%TF.GenerationSoftware,KiCad,Pcbnew,10.0.4*%
%TF.CreationDate,2026-08-18T22:30:30+03:00*%
%TF.ProjectId,MDC,4d44432e-6b69-4636-9164-5f7063625858,rev?*%
%TF.SameCoordinates,Original*%
%TF.FileFunction,Copper,L2,Inr*%
%TF.FilePolarity,Positive*%
%FSLAX46Y46*%
G04 Gerber Fmt 4.6, Leading zero omitted, Abs format (unit mm)*
G04 Created by KiCad (PCBNEW 10.0.4) date 2026-08-18 22:30:30*
%MOMM*%
%LPD*%
G01*
G04 APERTURE LIST*
%TA.AperFunction,ComponentPad*%
%ADD10R,1.700000X1.700000*%
%TD*%
%TA.AperFunction,ComponentPad*%
%ADD11C,1.700000*%
%TD*%
%TA.AperFunction,ComponentPad*%
%ADD12O,1.000000X2.100000*%
%TD*%
%TA.AperFunction,ComponentPad*%
%ADD13O,1.000000X1.800000*%
%TD*%
%TA.AperFunction,ViaPad*%
%ADD14C,0.600000*%
%TD*%
G04 APERTURE END LIST*
D10*
%TO.N,+5V*%
%TO.C,J4*%
X168000000Y-60200000D03*
D11*
%TO.N,+3.3V*%
X168000000Y-62740000D03*
%TO.N,/GPIO29*%
X168000000Y-65280000D03*
%TO.N,/GPIO28*%
X168000000Y-67820000D03*
%TO.N,/GPIO27*%
X168000000Y-70360000D03*
%TO.N,/GPIO26*%
X168000000Y-72900000D03*
%TO.N,/GPIO25*%
X168000000Y-75440000D03*
%TO.N,GND*%
X168000000Y-77980000D03*
%TO.N,/GPIO24*%
X168000000Y-80520000D03*
%TO.N,/GPIO23*%
X168000000Y-83060000D03*
%TO.N,/GPIO22*%
X168000000Y-85600000D03*
%TO.N,/GPIO21*%
X168000000Y-88140000D03*
%TO.N,/GPIO20*%
X168000000Y-90680000D03*
%TO.N,/GPIO19*%
X168000000Y-93220000D03*
%TO.N,/GPIO18*%
X168000000Y-95760000D03*
%TO.N,/GPIO17*%
X168000000Y-98300000D03*
%TO.N,/GPIO16*%
X168000000Y-100840000D03*
%TO.N,GND*%
X168000000Y-103380000D03*
%TO.N,+3.3V*%
X168000000Y-105920000D03*
%TO.N,+5V*%
X168000000Y-108460000D03*
%TD*%
D10*
%TO.N,+5V*%
%TO.C,J3*%
X128780000Y-60210000D03*
D11*
%TO.N,+3.3V*%
X128780000Y-62750000D03*
%TO.N,GND*%
X128780000Y-65290000D03*
%TO.N,/GPIO0*%
X128780000Y-67830000D03*
%TO.N,/GPIO1*%
X128780000Y-70370000D03*
%TO.N,/GPIO2*%
X128780000Y-72910000D03*
%TO.N,/GPIO3*%
X128780000Y-75450000D03*
%TO.N,/GPIO4*%
X128780000Y-77990000D03*
%TO.N,/GPIO5*%
X128780000Y-80530000D03*
%TO.N,/GPIO6*%
X128780000Y-83070000D03*
%TO.N,/GPIO7*%
X128780000Y-85610000D03*
%TO.N,/GPIO8*%
X128780000Y-88150000D03*
%TO.N,/GPIO9*%
X128780000Y-90690000D03*
%TO.N,/GPIO10*%
X128780000Y-93230000D03*
%TO.N,/GPIO11*%
X128780000Y-95770000D03*
%TO.N,/GPIO12*%
X128780000Y-98310000D03*
%TO.N,GND*%
X128780000Y-100850000D03*
%TO.N,/GPIO13*%
X128780000Y-103390000D03*
%TO.N,/GPIO14*%
X128780000Y-105930000D03*
%TO.N,/GPIO15*%
X128780000Y-108470000D03*
%TD*%
D12*
%TO.N,GND*%
%TO.C,J1*%
X152910000Y-65780000D03*
D13*
X152910000Y-61600000D03*
D12*
X144270000Y-65780000D03*
D13*
X144270000Y-61600000D03*
%TD*%
D10*
%TO.N,/SWCLK*%
%TO.C,J2*%
X156810000Y-108400000D03*
D11*
%TO.N,/SWDIO*%
X159350000Y-108400000D03*
%TO.N,GND*%
X161890000Y-108400000D03*
%TD*%
D14*
%TO.N,+5V*%
X147600000Y-69000000D03*
X142600000Y-70700000D03*
X137300000Y-76200000D03*
X163400000Y-101700000D03*
X133300000Y-71900000D03*
X162500000Y-71900000D03*
X151300000Y-67700000D03*
X145900000Y-68200000D03*
X152200000Y-69000000D03*
X163800000Y-64500000D03*
%TO.N,+3.3V*%
X148500000Y-72200000D03*
X146600000Y-90797500D03*
X139200000Y-72100000D03*
X156000000Y-78500000D03*
X164400000Y-60800000D03*
X156500000Y-90597500D03*
X149600000Y-85300000D03*
X163600000Y-69200000D03*
X152900000Y-85600000D03*
X145700000Y-85700000D03*
X144400000Y-73800000D03*
X149200000Y-92000000D03*
%TO.N,/GPIO25*%
X151755031Y-89200000D03*
X143700000Y-70000000D03*
%TO.N,GND*%
X150100000Y-72200000D03*
X157100000Y-77900000D03*
X140900000Y-75700000D03*
X155200000Y-67400000D03*
X145200000Y-69900000D03*
X145200000Y-99900000D03*
X154300000Y-77800000D03*
X149600000Y-95700000D03*
X136200000Y-68500000D03*
X154800000Y-60300000D03*
X135200000Y-74000000D03*
X148200000Y-91900000D03*
X151200000Y-80200000D03*
%TO.N,/USB_DM*%
X150800000Y-83300000D03*
X159086863Y-77491962D03*
%TO.N,/+1V1*%
X151966765Y-80633235D03*
X151600000Y-82200000D03*
%TO.N,Net-(U1-RUN)*%
X151000000Y-92297500D03*
X160500000Y-67400000D03*
%TO.N,/USB_DP*%
X150700000Y-79300000D03*
X150200000Y-84100000D03*
%TO.N,/QSPI_SD3*%
X146700000Y-75700000D03*
X149043761Y-84233479D03*
%TO.N,/QSPI_SCLK*%
X147800000Y-75700000D03*
X148600000Y-83567837D03*
%TO.N,/QSPI_SD0*%
X149200000Y-75600000D03*
X148000000Y-83005000D03*
%TO.N,/USB_CONN_DP*%
X148893941Y-67964990D03*
X155500000Y-76500000D03*
%TO.N,/USB_CONN_DM*%
X148300000Y-64800000D03*
X159200000Y-76700000D03*
X149576062Y-67547002D03*
X148800000Y-63400000D03*
%TO.N,Net-(R5-Pad1)*%
X140500000Y-67200000D03*
X142800000Y-72800000D03*
%TD*%
%TA.AperFunction,Conductor*%
%TO.N,GND*%
G36*
X166666454Y-58940185D02*
G01*
X166712209Y-58992989D01*
X166722153Y-59062147D01*
X166708246Y-59103929D01*
X166706203Y-59107669D01*
X166655908Y-59242517D01*
X166649501Y-59302116D01*
X166649500Y-59302135D01*
X166649500Y-61097870D01*
X166649501Y-61097876D01*
X166655908Y-61157483D01*
X166706202Y-61292328D01*
X166706206Y-61292335D01*
X166792452Y-61407544D01*
X166792455Y-61407547D01*
X166907664Y-61493793D01*
X166907671Y-61493797D01*
X167039082Y-61542810D01*
X167095016Y-61584681D01*
X167119433Y-61650145D01*
X167104582Y-61718418D01*
X167083431Y-61746673D01*
X166969889Y-61860215D01*
X166844951Y-62032179D01*
X166748444Y-62221585D01*
X166682753Y-62423760D01*
X166649500Y-62633713D01*
X166649500Y-62846286D01*
X166677144Y-63020827D01*
X166682754Y-63056243D01*
X166718578Y-63166498D01*
X166748444Y-63258414D01*
X166844951Y-63447820D01*
X166969890Y-63619786D01*
X167120213Y-63770109D01*
X167292182Y-63895050D01*
X167300946Y-63899516D01*
X167351742Y-63947491D01*
X167368536Y-64015312D01*
X167345998Y-64081447D01*
X167300946Y-64120484D01*
X167292182Y-64124949D01*
X167120213Y-64249890D01*
X166969890Y-64400213D01*
X166844951Y-64572179D01*
X166748444Y-64761585D01*
X166682753Y-64963760D01*
X166649500Y-65173713D01*
X166649500Y-65386286D01*
X166678555Y-65569735D01*
X166682754Y-65596243D01*
X166698126Y-65643554D01*
X166748444Y-65798414D01*
X166844951Y-65987820D01*
X166969890Y-66159786D01*
X167120213Y-66310109D01*
X167292182Y-66435050D01*
X167300946Y-66439516D01*
X167351742Y-66487491D01*
X167368536Y-66555312D01*
X167345998Y-66621447D01*
X167300946Y-66660484D01*
X167292182Y-66664949D01*
X167120213Y-66789890D01*
X166969890Y-66940213D01*
X166844951Y-67112179D01*
X166748444Y-67301585D01*
X166682753Y-67503760D01*
X166649500Y-67713713D01*
X166649500Y-67926286D01*
X166681291Y-68127011D01*
X166682754Y-68136243D01*
X166741401Y-68316740D01*
X166748444Y-68338414D01*
X166844951Y-68527820D01*
X166969890Y-68699786D01*
X167120213Y-68850109D01*
X167292182Y-68975050D01*
X167300946Y-68979516D01*
X167351742Y-69027491D01*
X167368536Y-69095312D01*
X167345998Y-69161447D01*
X167300946Y-69200484D01*
X167292182Y-69204949D01*
X167120213Y-69329890D01*
X166969890Y-69480213D01*
X166844951Y-69652179D01*
X166748444Y-69841585D01*
X166682753Y-70043760D01*
X166659637Y-70189711D01*
X166649500Y-70253713D01*
X166649500Y-70466287D01*
X166649534Y-70466503D01*
X166674028Y-70621153D01*
X166682754Y-70676243D01*
X166728541Y-70817161D01*
X166748444Y-70878414D01*
X166844951Y-71067820D01*
X166969890Y-71239786D01*
X167120213Y-71390109D01*
X167292182Y-71515050D01*
X167300946Y-71519516D01*
X167351742Y-71567491D01*
X167368536Y-71635312D01*
X167345998Y-71701447D01*
X167300946Y-71740484D01*
X167292182Y-71744949D01*
X167120213Y-71869890D01*
X166969890Y-72020213D01*
X166844951Y-72192179D01*
X166748444Y-72381585D01*
X166682753Y-72583760D01*
X166660892Y-72721786D01*
X166649500Y-72793713D01*
X166649500Y-73006287D01*
X166653298Y-73030264D01*
X166676884Y-73179185D01*
X166682754Y-73216243D01*
X166713311Y-73310288D01*
X166748444Y-73418414D01*
X166844951Y-73607820D01*
X166969890Y-73779786D01*
X167120213Y-73930109D01*
X167292182Y-74055050D01*
X167300946Y-74059516D01*
X167351742Y-74107491D01*
X167368536Y-74175312D01*
X167345998Y-74241447D01*
X167300946Y-74280484D01*
X167292182Y-74284949D01*
X167120213Y-74409890D01*
X166969890Y-74560213D01*
X166844951Y-74732179D01*
X166748444Y-74921585D01*
X166682753Y-75123760D01*
X166649500Y-75333713D01*
X166649500Y-75546286D01*
X166672215Y-75689707D01*
X166682754Y-75756243D01*
X166729301Y-75899500D01*
X166748444Y-75958414D01*
X166844951Y-76147820D01*
X166969890Y-76319786D01*
X167120213Y-76470109D01*
X167292179Y-76595048D01*
X167292181Y-76595049D01*
X167292184Y-76595051D01*
X167301493Y-76599794D01*
X167352290Y-76647766D01*
X167369087Y-76715587D01*
X167346552Y-76781722D01*
X167301505Y-76820760D01*
X167292446Y-76825376D01*
X167292440Y-76825380D01*
X167238282Y-76864727D01*
X167238282Y-76864728D01*
X167870591Y-77497037D01*
X167807007Y-77514075D01*
X167692993Y-77579901D01*
X167599901Y-77672993D01*
X167534075Y-77787007D01*
X167517037Y-77850591D01*
X166884728Y-77218282D01*
X166884727Y-77218282D01*
X166845380Y-77272439D01*
X166748904Y-77461782D01*
X166683242Y-77663869D01*
X166683242Y-77663872D01*
X166650000Y-77873753D01*
X166650000Y-78086246D01*
X166683242Y-78296127D01*
X166683242Y-78296130D01*
X166748904Y-78498217D01*
X166845375Y-78687550D01*
X166884728Y-78741716D01*
X167517037Y-78109408D01*
X167534075Y-78172993D01*
X167599901Y-78287007D01*
X167692993Y-78380099D01*
X167807007Y-78445925D01*
X167870590Y-78462962D01*
X167238282Y-79095269D01*
X167238282Y-79095270D01*
X167292452Y-79134626D01*
X167292451Y-79134626D01*
X167301495Y-79139234D01*
X167352292Y-79187208D01*
X167369087Y-79255029D01*
X167346550Y-79321164D01*
X167301499Y-79360202D01*
X167292182Y-79364949D01*
X167120213Y-79489890D01*
X166969890Y-79640213D01*
X166844951Y-79812179D01*
X166748444Y-80001585D01*
X166682753Y-80203760D01*
X166649500Y-80413713D01*
X166649500Y-80626286D01*
X166663088Y-80712081D01*
X166682754Y-80836243D01*
X166739993Y-81012407D01*
X166748444Y-81038414D01*
X166844951Y-81227820D01*
X166969890Y-81399786D01*
X167120213Y-81550109D01*
X167292182Y-81675050D01*
X167300946Y-81679516D01*
X167351742Y-81727491D01*
X167368536Y-81795312D01*
X167345998Y-81861447D01*
X167300946Y-81900484D01*
X167292182Y-81904949D01*
X167120213Y-82029890D01*
X166969890Y-82180213D01*
X166844951Y-82352179D01*
X166748444Y-82541585D01*
X166682753Y-82743760D01*
X166649500Y-82953713D01*
X166649500Y-83166286D01*
X166678048Y-83346534D01*
X166682754Y-83376243D01*
X166745467Y-83569254D01*
X166748444Y-83578414D01*
X166844951Y-83767820D01*
X166969890Y-83939786D01*
X167120213Y-84090109D01*
X167292182Y-84215050D01*
X167300946Y-84219516D01*
X167351742Y-84267491D01*
X167368536Y-84335312D01*
X167345998Y-84401447D01*
X167300946Y-84440484D01*
X167292182Y-84444949D01*
X167120213Y-84569890D01*
X166969890Y-84720213D01*
X166844951Y-84892179D01*
X166748444Y-85081585D01*
X166748443Y-85081587D01*
X166748443Y-85081588D01*
X166745805Y-85089707D01*
X166682753Y-85283760D01*
X166649950Y-85490873D01*
X166649500Y-85493713D01*
X166649500Y-85706287D01*
X166682754Y-85916243D01*
X166745803Y-86110288D01*
X166748444Y-86118414D01*
X166844951Y-86307820D01*
X166969890Y-86479786D01*
X167120213Y-86630109D01*
X167292182Y-86755050D01*
X167300946Y-86759516D01*
X167351742Y-86807491D01*
X167368536Y-86875312D01*
X167345998Y-86941447D01*
X167300946Y-86980484D01*
X167292182Y-86984949D01*
X167120213Y-87109890D01*
X166969890Y-87260213D01*
X166844951Y-87432179D01*
X166748444Y-87621585D01*
X166682753Y-87823760D01*
X166649500Y-88033713D01*
X166649500Y-88246287D01*
X166682754Y-88456243D01*
X166693920Y-88490609D01*
X166748444Y-88658414D01*
X166844951Y-88847820D01*
X166969890Y-89019786D01*
X167120213Y-89170109D01*
X167292182Y-89295050D01*
X167300946Y-89299516D01*
X167351742Y-89347491D01*
X167368536Y-89415312D01*
X167345998Y-89481447D01*
X167300946Y-89520484D01*
X167292182Y-89524949D01*
X167120213Y-89649890D01*
X166969890Y-89800213D01*
X166844951Y-89972179D01*
X166748444Y-90161585D01*
X166748443Y-90161587D01*
X166748443Y-90161588D01*
X166730012Y-90218314D01*
X166682753Y-90363760D01*
X166674111Y-90418327D01*
X166649500Y-90573713D01*
X166649500Y-90786287D01*
X166682754Y-90996243D01*
X166741383Y-91176685D01*
X166748444Y-91198414D01*
X166844951Y-91387820D01*
X166969890Y-91559786D01*
X167120213Y-91710109D01*
X167292182Y-91835050D01*
X167300946Y-91839516D01*
X167351742Y-91887491D01*
X167368536Y-91955312D01*
X167345998Y-92021447D01*
X167300946Y-92060484D01*
X167292182Y-92064949D01*
X167120213Y-92189890D01*
X166969890Y-92340213D01*
X166844951Y-92512179D01*
X166748444Y-92701585D01*
X166682753Y-92903760D01*
X166666418Y-93006897D01*
X166649500Y-93113713D01*
X166649500Y-93326287D01*
X166682754Y-93536243D01*
X166686003Y-93546243D01*
X166748444Y-93738414D01*
X166844951Y-93927820D01*
X166969890Y-94099786D01*
X167120213Y-94250109D01*
X167292182Y-94375050D01*
X167300946Y-94379516D01*
X167351742Y-94427491D01*
X167368536Y-94495312D01*
X167345998Y-94561447D01*
X167300946Y-94600484D01*
X167292182Y-94604949D01*
X167120213Y-94729890D01*
X166969890Y-94880213D01*
X166844951Y-95052179D01*
X166748444Y-95241585D01*
X166682753Y-95443760D01*
X166649500Y-95653713D01*
X166649500Y-95866287D01*
X166682754Y-96076243D01*
X166686003Y-96086243D01*
X166748444Y-96278414D01*
X166844951Y-96467820D01*
X166969890Y-96639786D01*
X167120213Y-96790109D01*
X167292182Y-96915050D01*
X167300946Y-96919516D01*
X167351742Y-96967491D01*
X167368536Y-97035312D01*
X167345998Y-97101447D01*
X167300946Y-97140484D01*
X167292182Y-97144949D01*
X167120213Y-97269890D01*
X166969890Y-97420213D01*
X166844951Y-97592179D01*
X166748444Y-97781585D01*
X166682753Y-97983760D01*
X166649500Y-98193713D01*
X166649500Y-98406287D01*
X166682754Y-98616243D01*
X166686003Y-98626243D01*
X166748444Y-98818414D01*
X166844951Y-99007820D01*
X166969890Y-99179786D01*
X167120213Y-99330109D01*
X167292182Y-99455050D01*
X167300946Y-99459516D01*
X167351742Y-99507491D01*
X167368536Y-99575312D01*
X167345998Y-99641447D01*
X167300946Y-99680484D01*
X167292182Y-99684949D01*
X167120213Y-99809890D01*
X166969890Y-99960213D01*
X166844951Y-100132179D01*
X166748444Y-100321585D01*
X166682753Y-100523760D01*
X166679707Y-100542993D01*
X166649500Y-100733713D01*
X166649500Y-100946287D01*
X166682754Y-101156243D01*
X166698126Y-101203554D01*
X166748444Y-101358414D01*
X166844951Y-101547820D01*
X166969890Y-101719786D01*
X167120213Y-101870109D01*
X167292179Y-101995048D01*
X167292181Y-101995049D01*
X167292184Y-101995051D01*
X167301493Y-101999794D01*
X167352290Y-102047766D01*
X167369087Y-102115587D01*
X167346552Y-102181722D01*
X167301505Y-102220760D01*
X167292446Y-102225376D01*
X167292440Y-102225380D01*
X167238282Y-102264727D01*
X167238282Y-102264728D01*
X167870591Y-102897037D01*
X167807007Y-102914075D01*
X167692993Y-102979901D01*
X167599901Y-103072993D01*
X167534075Y-103187007D01*
X167517037Y-103250591D01*
X166884728Y-102618282D01*
X166884727Y-102618282D01*
X166845380Y-102672439D01*
X166748904Y-102861782D01*
X166683242Y-103063869D01*
X166683242Y-103063872D01*
X166650000Y-103273753D01*
X166650000Y-103486246D01*
X166683242Y-103696127D01*
X166683242Y-103696130D01*
X166748904Y-103898217D01*
X166845375Y-104087550D01*
X166884728Y-104141716D01*
X167517037Y-103509408D01*
X167534075Y-103572993D01*
X167599901Y-103687007D01*
X167692993Y-103780099D01*
X167807007Y-103845925D01*
X167870590Y-103862962D01*
X167238282Y-104495269D01*
X167238282Y-104495270D01*
X167292452Y-104534626D01*
X167292451Y-104534626D01*
X167301495Y-104539234D01*
X167352292Y-104587208D01*
X167369087Y-104655029D01*
X167346550Y-104721164D01*
X167301499Y-104760202D01*
X167292182Y-104764949D01*
X167120213Y-104889890D01*
X166969890Y-105040213D01*
X166844951Y-105212179D01*
X166748444Y-105401585D01*
X166682753Y-105603760D01*
X166649500Y-105813713D01*
X166649500Y-106026287D01*
X166682754Y-106236243D01*
X166686003Y-106246243D01*
X166748444Y-106438414D01*
X166844951Y-106627820D01*
X166969890Y-106799786D01*
X167120213Y-106950109D01*
X167292182Y-107075050D01*
X167300946Y-107079516D01*
X167351742Y-107127491D01*
X167368536Y-107195312D01*
X167345998Y-107261447D01*
X167300946Y-107300484D01*
X167292182Y-107304949D01*
X167120213Y-107429890D01*
X166969890Y-107580213D01*
X166844951Y-107752179D01*
X166748444Y-107941585D01*
X166682753Y-108143760D01*
X166672736Y-108207007D01*
X166649500Y-108353713D01*
X166649500Y-108566287D01*
X166682754Y-108776243D01*
X166728884Y-108918217D01*
X166748444Y-108978414D01*
X166844951Y-109167820D01*
X166969890Y-109339786D01*
X166969896Y-109339792D01*
X167120208Y-109490104D01*
X167133971Y-109500103D01*
X167140960Y-109505181D01*
X167183626Y-109560511D01*
X167189605Y-109630124D01*
X167157000Y-109691920D01*
X167096161Y-109726277D01*
X167068075Y-109729500D01*
X162738489Y-109729500D01*
X162671450Y-109709815D01*
X162625695Y-109657011D01*
X162615751Y-109587853D01*
X162644776Y-109524297D01*
X162651491Y-109518133D01*
X162651717Y-109515270D01*
X162019408Y-108882962D01*
X162082993Y-108865925D01*
X162197007Y-108800099D01*
X162290099Y-108707007D01*
X162355925Y-108592993D01*
X162372962Y-108529408D01*
X163005270Y-109161717D01*
X163005270Y-109161716D01*
X163044622Y-109107554D01*
X163141095Y-108918217D01*
X163206757Y-108716130D01*
X163206757Y-108716127D01*
X163240000Y-108506246D01*
X163240000Y-108293753D01*
X163206757Y-108083872D01*
X163206757Y-108083869D01*
X163141095Y-107881782D01*
X163044624Y-107692449D01*
X163005270Y-107638282D01*
X163005269Y-107638282D01*
X162372962Y-108270590D01*
X162355925Y-108207007D01*
X162290099Y-108092993D01*
X162197007Y-107999901D01*
X162082993Y-107934075D01*
X162019409Y-107917037D01*
X162651716Y-107284728D01*
X162597550Y-107245375D01*
X162408217Y-107148904D01*
X162206129Y-107083242D01*
X161996246Y-107050000D01*
X161783754Y-107050000D01*
X161573872Y-107083242D01*
X161573869Y-107083242D01*
X161371782Y-107148904D01*
X161182439Y-107245380D01*
X161128282Y-107284727D01*
X161128282Y-107284728D01*
X161760591Y-107917037D01*
X161697007Y-107934075D01*
X161582993Y-107999901D01*
X161489901Y-108092993D01*
X161424075Y-108207007D01*
X161407037Y-108270591D01*
X160774728Y-107638282D01*
X160774727Y-107638282D01*
X160735380Y-107692440D01*
X160735376Y-107692446D01*
X160730760Y-107701505D01*
X160682781Y-107752297D01*
X160614959Y-107769087D01*
X160548826Y-107746543D01*
X160509794Y-107701493D01*
X160505051Y-107692184D01*
X160505049Y-107692181D01*
X160505048Y-107692179D01*
X160380109Y-107520213D01*
X160229786Y-107369890D01*
X160057820Y-107244951D01*
X159868414Y-107148444D01*
X159868413Y-107148443D01*
X159868412Y-107148443D01*
X159666243Y-107082754D01*
X159666241Y-107082753D01*
X159666240Y-107082753D01*
X159504957Y-107057208D01*
X159456287Y-107049500D01*
X159243713Y-107049500D01*
X159195042Y-107057208D01*
X159033760Y-107082753D01*
X158831585Y-107148444D01*
X158642179Y-107244951D01*
X158470215Y-107369889D01*
X158356673Y-107483431D01*
X158295350Y-107516915D01*
X158225658Y-107511931D01*
X158169725Y-107470059D01*
X158152810Y-107439082D01*
X158103797Y-107307671D01*
X158103793Y-107307664D01*
X158017547Y-107192455D01*
X158017544Y-107192452D01*
X157902335Y-107106206D01*
X157902328Y-107106202D01*
X157767482Y-107055908D01*
X157767483Y-107055908D01*
X157707883Y-107049501D01*
X157707881Y-107049500D01*
X157707873Y-107049500D01*
X157707864Y-107049500D01*
X155912129Y-107049500D01*
X155912123Y-107049501D01*
X155852516Y-107055908D01*
X155717671Y-107106202D01*
X155717664Y-107106206D01*
X155602455Y-107192452D01*
X155602452Y-107192455D01*
X155516206Y-107307664D01*
X155516202Y-107307671D01*
X155465908Y-107442517D01*
X155459501Y-107502116D01*
X155459500Y-107502135D01*
X155459500Y-109297870D01*
X155459501Y-109297876D01*
X155465908Y-109357483D01*
X155516202Y-109492328D01*
X155516204Y-109492331D01*
X155545293Y-109531189D01*
X155569710Y-109596653D01*
X155554858Y-109664926D01*
X155505453Y-109714332D01*
X155446026Y-109729500D01*
X129725689Y-109729500D01*
X129658650Y-109709815D01*
X129612895Y-109657011D01*
X129602951Y-109587853D01*
X129631976Y-109524297D01*
X129652804Y-109505181D01*
X129659792Y-109500104D01*
X129810104Y-109349792D01*
X129810106Y-109349788D01*
X129810109Y-109349786D01*
X129935048Y-109177820D01*
X129935047Y-109177820D01*
X129935051Y-109177816D01*
X130031557Y-108988412D01*
X130097246Y-108786243D01*
X130130500Y-108576287D01*
X130130500Y-108363713D01*
X130097246Y-108153757D01*
X130031557Y-107951588D01*
X129935051Y-107762184D01*
X129935049Y-107762181D01*
X129935048Y-107762179D01*
X129810109Y-107590213D01*
X129659786Y-107439890D01*
X129487820Y-107314951D01*
X129487115Y-107314591D01*
X129479054Y-107310485D01*
X129428259Y-107262512D01*
X129411463Y-107194692D01*
X129433999Y-107128556D01*
X129479054Y-107089515D01*
X129487816Y-107085051D01*
X129536748Y-107049500D01*
X129659786Y-106960109D01*
X129659788Y-106960106D01*
X129659792Y-106960104D01*
X129810104Y-106809792D01*
X129810106Y-106809788D01*
X129810109Y-106809786D01*
X129935048Y-106637820D01*
X129935047Y-106637820D01*
X129935051Y-106637816D01*
X130031557Y-106448412D01*
X130097246Y-106246243D01*
X130130500Y-106036287D01*
X130130500Y-105823713D01*
X130097246Y-105613757D01*
X130031557Y-105411588D01*
X129935051Y-105222184D01*
X129935049Y-105222181D01*
X129935048Y-105222179D01*
X129810109Y-105050213D01*
X129659786Y-104899890D01*
X129487820Y-104774951D01*
X129487115Y-104774591D01*
X129479054Y-104770485D01*
X129428259Y-104722512D01*
X129411463Y-104654692D01*
X129433999Y-104588556D01*
X129479054Y-104549515D01*
X129487816Y-104545051D01*
X129556336Y-104495269D01*
X129659786Y-104420109D01*
X129659788Y-104420106D01*
X129659792Y-104420104D01*
X129810104Y-104269792D01*
X129810106Y-104269788D01*
X129810109Y-104269786D01*
X129935048Y-104097820D01*
X129935047Y-104097820D01*
X129935051Y-104097816D01*
X130031557Y-103908412D01*
X130097246Y-103706243D01*
X130130500Y-103496287D01*
X130130500Y-103283713D01*
X130097246Y-103073757D01*
X130031557Y-102871588D01*
X129935051Y-102682184D01*
X129935049Y-102682181D01*
X129935048Y-102682179D01*
X129810109Y-102510213D01*
X129659786Y-102359890D01*
X129487817Y-102234949D01*
X129478504Y-102230204D01*
X129427707Y-102182230D01*
X129410912Y-102114409D01*
X129433449Y-102048274D01*
X129478507Y-102009232D01*
X129487555Y-102004622D01*
X129541716Y-101965270D01*
X129541717Y-101965270D01*
X129197599Y-101621153D01*
X162599500Y-101621153D01*
X162599500Y-101778846D01*
X162630261Y-101933489D01*
X162630264Y-101933501D01*
X162690602Y-102079172D01*
X162690609Y-102079185D01*
X162778210Y-102210288D01*
X162778213Y-102210292D01*
X162889707Y-102321786D01*
X162889711Y-102321789D01*
X163020814Y-102409390D01*
X163020827Y-102409397D01*
X163166498Y-102469735D01*
X163166503Y-102469737D01*
X163311802Y-102498639D01*
X163321153Y-102500499D01*
X163321156Y-102500500D01*
X163321158Y-102500500D01*
X163478844Y-102500500D01*
X163478845Y-102500499D01*
X163633497Y-102469737D01*
X163779179Y-102409394D01*
X163910289Y-102321789D01*
X164021789Y-102210289D01*
X164109394Y-102079179D01*
X164169737Y-101933497D01*
X164200500Y-101778842D01*
X164200500Y-101621158D01*
X164200500Y-101621155D01*
X164200499Y-101621153D01*
X164169738Y-101466510D01*
X164169737Y-101466503D01*
X164129026Y-101368217D01*
X164109397Y-101320827D01*
X164109390Y-101320814D01*
X164021789Y-101189711D01*
X164021786Y-101189707D01*
X163910292Y-101078213D01*
X163910288Y-101078210D01*
X163779185Y-100990609D01*
X163779172Y-100990602D01*
X163633501Y-100930264D01*
X163633489Y-100930261D01*
X163478845Y-100899500D01*
X163478842Y-100899500D01*
X163321158Y-100899500D01*
X163321155Y-100899500D01*
X163166510Y-100930261D01*
X163166498Y-100930264D01*
X163020827Y-100990602D01*
X163020814Y-100990609D01*
X162889711Y-101078210D01*
X162889707Y-101078213D01*
X162778213Y-101189707D01*
X162778210Y-101189711D01*
X162690609Y-101320814D01*
X162690602Y-101320827D01*
X162630264Y-101466498D01*
X162630261Y-101466510D01*
X162599500Y-101621153D01*
X129197599Y-101621153D01*
X128909408Y-101332962D01*
X128972993Y-101315925D01*
X129087007Y-101250099D01*
X129180099Y-101157007D01*
X129245925Y-101042993D01*
X129262962Y-100979408D01*
X129895270Y-101611717D01*
X129895270Y-101611716D01*
X129934623Y-101557553D01*
X130031095Y-101368217D01*
X130096757Y-101166130D01*
X130096757Y-101166127D01*
X130130000Y-100956246D01*
X130130000Y-100743753D01*
X130096757Y-100533872D01*
X130096757Y-100533869D01*
X130031095Y-100331782D01*
X129934624Y-100142449D01*
X129895270Y-100088282D01*
X129895269Y-100088282D01*
X129262962Y-100720590D01*
X129245925Y-100657007D01*
X129180099Y-100542993D01*
X129087007Y-100449901D01*
X128972993Y-100384075D01*
X128909409Y-100367037D01*
X129541716Y-99734728D01*
X129487547Y-99695373D01*
X129487547Y-99695372D01*
X129478500Y-99690763D01*
X129427706Y-99642788D01*
X129410912Y-99574966D01*
X129433451Y-99508832D01*
X129478508Y-99469793D01*
X129487816Y-99465051D01*
X129567007Y-99407515D01*
X129659786Y-99340109D01*
X129659788Y-99340106D01*
X129659792Y-99340104D01*
X129810104Y-99189792D01*
X129810106Y-99189788D01*
X129810109Y-99189786D01*
X129935048Y-99017820D01*
X129935047Y-99017820D01*
X129935051Y-99017816D01*
X130031557Y-98828412D01*
X130097246Y-98626243D01*
X130130500Y-98416287D01*
X130130500Y-98203713D01*
X130097246Y-97993757D01*
X130031557Y-97791588D01*
X129935051Y-97602184D01*
X129935049Y-97602181D01*
X129935048Y-97602179D01*
X129810109Y-97430213D01*
X129659786Y-97279890D01*
X129487820Y-97154951D01*
X129487115Y-97154591D01*
X129479054Y-97150485D01*
X129428259Y-97102512D01*
X129411463Y-97034692D01*
X129433999Y-96968556D01*
X129479054Y-96929515D01*
X129487816Y-96925051D01*
X129509789Y-96909086D01*
X129659786Y-96800109D01*
X129659788Y-96800106D01*
X129659792Y-96800104D01*
X129810104Y-96649792D01*
X129810106Y-96649788D01*
X129810109Y-96649786D01*
X129935048Y-96477820D01*
X129935047Y-96477820D01*
X129935051Y-96477816D01*
X130031557Y-96288412D01*
X130097246Y-96086243D01*
X130130500Y-95876287D01*
X130130500Y-95663713D01*
X130097246Y-95453757D01*
X130031557Y-95251588D01*
X129935051Y-95062184D01*
X129935049Y-95062181D01*
X129935048Y-95062179D01*
X129810109Y-94890213D01*
X129659786Y-94739890D01*
X129487820Y-94614951D01*
X129487115Y-94614591D01*
X129479054Y-94610485D01*
X129428259Y-94562512D01*
X129411463Y-94494692D01*
X129433999Y-94428556D01*
X129479054Y-94389515D01*
X129487816Y-94385051D01*
X129509789Y-94369086D01*
X129659786Y-94260109D01*
X129659788Y-94260106D01*
X129659792Y-94260104D01*
X129810104Y-94109792D01*
X129810106Y-94109788D01*
X129810109Y-94109786D01*
X129935048Y-93937820D01*
X129935047Y-93937820D01*
X129935051Y-93937816D01*
X130031557Y-93748412D01*
X130097246Y-93546243D01*
X130130500Y-93336287D01*
X130130500Y-93123713D01*
X130097246Y-92913757D01*
X130031557Y-92711588D01*
X129935051Y-92522184D01*
X129935049Y-92522181D01*
X129935048Y-92522179D01*
X129810109Y-92350213D01*
X129659786Y-92199890D01*
X129487820Y-92074951D01*
X129487115Y-92074591D01*
X129479054Y-92070485D01*
X129475300Y-92066938D01*
X129470318Y-92065579D01*
X129450161Y-92043197D01*
X129428259Y-92022512D01*
X129427017Y-92017497D01*
X129423561Y-92013660D01*
X129418704Y-91983932D01*
X129411463Y-91954692D01*
X129413128Y-91949802D01*
X129412296Y-91944704D01*
X129422512Y-91921153D01*
X148399500Y-91921153D01*
X148399500Y-92078846D01*
X148430261Y-92233489D01*
X148430264Y-92233501D01*
X148490602Y-92379172D01*
X148490609Y-92379185D01*
X148578210Y-92510288D01*
X148578213Y-92510292D01*
X148689707Y-92621786D01*
X148689711Y-92621789D01*
X148820814Y-92709390D01*
X148820827Y-92709397D01*
X148966498Y-92769735D01*
X148966503Y-92769737D01*
X149121153Y-92800499D01*
X149121156Y-92800500D01*
X149121158Y-92800500D01*
X149278844Y-92800500D01*
X149278845Y-92800499D01*
X149433497Y-92769737D01*
X149573882Y-92711588D01*
X149579172Y-92709397D01*
X149579172Y-92709396D01*
X149579179Y-92709394D01*
X149710289Y-92621789D01*
X149821789Y-92510289D01*
X149909394Y-92379179D01*
X149909397Y-92379172D01*
X149960939Y-92254738D01*
X150004779Y-92200334D01*
X150071074Y-92178269D01*
X150138773Y-92195548D01*
X150186384Y-92246685D01*
X150199500Y-92302190D01*
X150199500Y-92376346D01*
X150230261Y-92530989D01*
X150230264Y-92531001D01*
X150290602Y-92676672D01*
X150290609Y-92676685D01*
X150378210Y-92807788D01*
X150378213Y-92807792D01*
X150489707Y-92919286D01*
X150489711Y-92919289D01*
X150620814Y-93006890D01*
X150620827Y-93006897D01*
X150766498Y-93067235D01*
X150766503Y-93067237D01*
X150921153Y-93097999D01*
X150921156Y-93098000D01*
X150921158Y-93098000D01*
X151078844Y-93098000D01*
X151078845Y-93097999D01*
X151233497Y-93067237D01*
X151379179Y-93006894D01*
X151510289Y-92919289D01*
X151621789Y-92807789D01*
X151709394Y-92676679D01*
X151769737Y-92530997D01*
X151800500Y-92376342D01*
X151800500Y-92218658D01*
X151800500Y-92218655D01*
X151800499Y-92218653D01*
X151772689Y-92078846D01*
X151769737Y-92064003D01*
X151750474Y-92017497D01*
X151709397Y-91918327D01*
X151709390Y-91918314D01*
X151621789Y-91787211D01*
X151621786Y-91787207D01*
X151510292Y-91675713D01*
X151510288Y-91675710D01*
X151379185Y-91588109D01*
X151379172Y-91588102D01*
X151233501Y-91527764D01*
X151233489Y-91527761D01*
X151078845Y-91497000D01*
X151078842Y-91497000D01*
X150921158Y-91497000D01*
X150921155Y-91497000D01*
X150766510Y-91527761D01*
X150766498Y-91527764D01*
X150620827Y-91588102D01*
X150620814Y-91588109D01*
X150489711Y-91675710D01*
X150489707Y-91675713D01*
X150378213Y-91787207D01*
X150378210Y-91787211D01*
X150290609Y-91918314D01*
X150290602Y-91918327D01*
X150239061Y-92042761D01*
X150195220Y-92097165D01*
X150128926Y-92119230D01*
X150061227Y-92101951D01*
X150013616Y-92050814D01*
X150000500Y-91995309D01*
X150000500Y-91921155D01*
X150000499Y-91921153D01*
X149983372Y-91835050D01*
X149969737Y-91766503D01*
X149950520Y-91720109D01*
X149909397Y-91620827D01*
X149909390Y-91620814D01*
X149821789Y-91489711D01*
X149821786Y-91489707D01*
X149710292Y-91378213D01*
X149710288Y-91378210D01*
X149579185Y-91290609D01*
X149579172Y-91290602D01*
X149433501Y-91230264D01*
X149433489Y-91230261D01*
X149278845Y-91199500D01*
X149278842Y-91199500D01*
X149121158Y-91199500D01*
X149121155Y-91199500D01*
X148966510Y-91230261D01*
X148966498Y-91230264D01*
X148820827Y-91290602D01*
X148820814Y-91290609D01*
X148689711Y-91378210D01*
X148689707Y-91378213D01*
X148578213Y-91489707D01*
X148578210Y-91489711D01*
X148490609Y-91620814D01*
X148490602Y-91620827D01*
X148430264Y-91766498D01*
X148430261Y-91766510D01*
X148399500Y-91921153D01*
X129422512Y-91921153D01*
X129424283Y-91917069D01*
X129433999Y-91888556D01*
X129438600Y-91884062D01*
X129440100Y-91880605D01*
X129451265Y-91871693D01*
X129466326Y-91856986D01*
X129472464Y-91852872D01*
X129487816Y-91845051D01*
X129531431Y-91813362D01*
X129531443Y-91813355D01*
X129659785Y-91720109D01*
X129659783Y-91720109D01*
X129659792Y-91720104D01*
X129810104Y-91569792D01*
X129810106Y-91569788D01*
X129810109Y-91569786D01*
X129935048Y-91397820D01*
X129935047Y-91397820D01*
X129935051Y-91397816D01*
X130031557Y-91208412D01*
X130097246Y-91006243D01*
X130130500Y-90796287D01*
X130130500Y-90718653D01*
X145799500Y-90718653D01*
X145799500Y-90876346D01*
X145830261Y-91030989D01*
X145830264Y-91031001D01*
X145890602Y-91176672D01*
X145890609Y-91176685D01*
X145978210Y-91307788D01*
X145978213Y-91307792D01*
X146089707Y-91419286D01*
X146089711Y-91419289D01*
X146220814Y-91506890D01*
X146220827Y-91506897D01*
X146348529Y-91559792D01*
X146366503Y-91567237D01*
X146521153Y-91597999D01*
X146521156Y-91598000D01*
X146521158Y-91598000D01*
X146678844Y-91598000D01*
X146678845Y-91597999D01*
X146833497Y-91567237D01*
X146979179Y-91506894D01*
X147110289Y-91419289D01*
X147221789Y-91307789D01*
X147309394Y-91176679D01*
X147369737Y-91030997D01*
X147400500Y-90876342D01*
X147400500Y-90718658D01*
X147400500Y-90718655D01*
X147400499Y-90718653D01*
X147369737Y-90564003D01*
X147350955Y-90518658D01*
X147350953Y-90518653D01*
X155699500Y-90518653D01*
X155699500Y-90676346D01*
X155730261Y-90830989D01*
X155730264Y-90831001D01*
X155790602Y-90976672D01*
X155790609Y-90976685D01*
X155878210Y-91107788D01*
X155878213Y-91107792D01*
X155989707Y-91219286D01*
X155989711Y-91219289D01*
X156120814Y-91306890D01*
X156120827Y-91306897D01*
X156266498Y-91367235D01*
X156266503Y-91367237D01*
X156420233Y-91397816D01*
X156421153Y-91397999D01*
X156421156Y-91398000D01*
X156421158Y-91398000D01*
X156578844Y-91398000D01*
X156578845Y-91397999D01*
X156733497Y-91367237D01*
X156879179Y-91306894D01*
X157010289Y-91219289D01*
X157121789Y-91107789D01*
X157209394Y-90976679D01*
X157269737Y-90830997D01*
X157300500Y-90676342D01*
X157300500Y-90518658D01*
X157300500Y-90518655D01*
X157300499Y-90518653D01*
X157280543Y-90418327D01*
X157269737Y-90364003D01*
X157237929Y-90287211D01*
X157209397Y-90218327D01*
X157209390Y-90218314D01*
X157121789Y-90087211D01*
X157121786Y-90087207D01*
X157010292Y-89975713D01*
X157010288Y-89975710D01*
X156879185Y-89888109D01*
X156879172Y-89888102D01*
X156733501Y-89827764D01*
X156733489Y-89827761D01*
X156578845Y-89797000D01*
X156578842Y-89797000D01*
X156421158Y-89797000D01*
X156421155Y-89797000D01*
X156266510Y-89827761D01*
X156266498Y-89827764D01*
X156120827Y-89888102D01*
X156120814Y-89888109D01*
X155989711Y-89975710D01*
X155989707Y-89975713D01*
X155878213Y-90087207D01*
X155878210Y-90087211D01*
X155790609Y-90218314D01*
X155790602Y-90218327D01*
X155730264Y-90363998D01*
X155730261Y-90364010D01*
X155699500Y-90518653D01*
X147350953Y-90518653D01*
X147309397Y-90418327D01*
X147309390Y-90418314D01*
X147221789Y-90287211D01*
X147221786Y-90287207D01*
X147110292Y-90175713D01*
X147110288Y-90175710D01*
X146979185Y-90088109D01*
X146979172Y-90088102D01*
X146833501Y-90027764D01*
X146833489Y-90027761D01*
X146678845Y-89997000D01*
X146678842Y-89997000D01*
X146521158Y-89997000D01*
X146521155Y-89997000D01*
X146366510Y-90027761D01*
X146366498Y-90027764D01*
X146220827Y-90088102D01*
X146220814Y-90088109D01*
X146089711Y-90175710D01*
X146089707Y-90175713D01*
X145978213Y-90287207D01*
X145978210Y-90287211D01*
X145890609Y-90418314D01*
X145890602Y-90418327D01*
X145830264Y-90563998D01*
X145830261Y-90564010D01*
X145799500Y-90718653D01*
X130130500Y-90718653D01*
X130130500Y-90583713D01*
X130097246Y-90373757D01*
X130031557Y-90171588D01*
X129935051Y-89982184D01*
X129935049Y-89982181D01*
X129935048Y-89982179D01*
X129810109Y-89810213D01*
X129659786Y-89659890D01*
X129487820Y-89534951D01*
X129487115Y-89534591D01*
X129479054Y-89530485D01*
X129428259Y-89482512D01*
X129411463Y-89414692D01*
X129433999Y-89348556D01*
X129479054Y-89309515D01*
X129487816Y-89305051D01*
X129523890Y-89278842D01*
X129659786Y-89180109D01*
X129659788Y-89180106D01*
X129659792Y-89180104D01*
X129718743Y-89121153D01*
X150954531Y-89121153D01*
X150954531Y-89278846D01*
X150985292Y-89433489D01*
X150985295Y-89433501D01*
X151045633Y-89579172D01*
X151045640Y-89579185D01*
X151133241Y-89710288D01*
X151133244Y-89710292D01*
X151244738Y-89821786D01*
X151244742Y-89821789D01*
X151375845Y-89909390D01*
X151375858Y-89909397D01*
X151521529Y-89969735D01*
X151521534Y-89969737D01*
X151676184Y-90000499D01*
X151676187Y-90000500D01*
X151676189Y-90000500D01*
X151833875Y-90000500D01*
X151833876Y-90000499D01*
X151988528Y-89969737D01*
X152101197Y-89923067D01*
X152134203Y-89909397D01*
X152134203Y-89909396D01*
X152134210Y-89909394D01*
X152265320Y-89821789D01*
X152376820Y-89710289D01*
X152464425Y-89579179D01*
X152524768Y-89433497D01*
X152555531Y-89278842D01*
X152555531Y-89121158D01*
X152555531Y-89121155D01*
X152555530Y-89121153D01*
X152535368Y-89019792D01*
X152524768Y-88966503D01*
X152520155Y-88955367D01*
X152464428Y-88820827D01*
X152464421Y-88820814D01*
X152376820Y-88689711D01*
X152376817Y-88689707D01*
X152265323Y-88578213D01*
X152265319Y-88578210D01*
X152134216Y-88490609D01*
X152134203Y-88490602D01*
X151988532Y-88430264D01*
X151988520Y-88430261D01*
X151833876Y-88399500D01*
X151833873Y-88399500D01*
X151676189Y-88399500D01*
X151676186Y-88399500D01*
X151521541Y-88430261D01*
X151521529Y-88430264D01*
X151375858Y-88490602D01*
X151375845Y-88490609D01*
X151244742Y-88578210D01*
X151244738Y-88578213D01*
X151133244Y-88689707D01*
X151133241Y-88689711D01*
X151045640Y-88820814D01*
X151045633Y-88820827D01*
X150985295Y-88966498D01*
X150985292Y-88966510D01*
X150954531Y-89121153D01*
X129718743Y-89121153D01*
X129810104Y-89029792D01*
X129810106Y-89029788D01*
X129810109Y-89029786D01*
X129935048Y-88857820D01*
X129935047Y-88857820D01*
X129935051Y-88857816D01*
X130031557Y-88668412D01*
X130097246Y-88466243D01*
X130130500Y-88256287D01*
X130130500Y-88043713D01*
X130097246Y-87833757D01*
X130031557Y-87631588D01*
X129935051Y-87442184D01*
X129935049Y-87442181D01*
X129935048Y-87442179D01*
X129810109Y-87270213D01*
X129659786Y-87119890D01*
X129487820Y-86994951D01*
X129487115Y-86994591D01*
X129479054Y-86990485D01*
X129428259Y-86942512D01*
X129411463Y-86874692D01*
X129433999Y-86808556D01*
X129479054Y-86769515D01*
X129487816Y-86765051D01*
X129509789Y-86749086D01*
X129659786Y-86640109D01*
X129659788Y-86640106D01*
X129659792Y-86640104D01*
X129810104Y-86489792D01*
X129810106Y-86489788D01*
X129810109Y-86489786D01*
X129935048Y-86317820D01*
X129935047Y-86317820D01*
X129935051Y-86317816D01*
X130031557Y-86128412D01*
X130097246Y-85926243D01*
X130130500Y-85716287D01*
X130130500Y-85621153D01*
X144899500Y-85621153D01*
X144899500Y-85778846D01*
X144930261Y-85933489D01*
X144930264Y-85933501D01*
X144990602Y-86079172D01*
X144990609Y-86079185D01*
X145078210Y-86210288D01*
X145078213Y-86210292D01*
X145189707Y-86321786D01*
X145189711Y-86321789D01*
X145320814Y-86409390D01*
X145320827Y-86409397D01*
X145466498Y-86469735D01*
X145466503Y-86469737D01*
X145567326Y-86489792D01*
X145621153Y-86500499D01*
X145621156Y-86500500D01*
X145621158Y-86500500D01*
X145778844Y-86500500D01*
X145778845Y-86500499D01*
X145933497Y-86469737D01*
X146079179Y-86409394D01*
X146210289Y-86321789D01*
X146321789Y-86210289D01*
X146409394Y-86079179D01*
X146469737Y-85933497D01*
X146500500Y-85778842D01*
X146500500Y-85621158D01*
X146500500Y-85621155D01*
X146500499Y-85621153D01*
X146483061Y-85533489D01*
X146469737Y-85466503D01*
X146428314Y-85366498D01*
X146409397Y-85320827D01*
X146409390Y-85320814D01*
X146321789Y-85189711D01*
X146321786Y-85189707D01*
X146210292Y-85078213D01*
X146210288Y-85078210D01*
X146079185Y-84990609D01*
X146079172Y-84990602D01*
X145933501Y-84930264D01*
X145933489Y-84930261D01*
X145778845Y-84899500D01*
X145778842Y-84899500D01*
X145621158Y-84899500D01*
X145621155Y-84899500D01*
X145466510Y-84930261D01*
X145466498Y-84930264D01*
X145320827Y-84990602D01*
X145320814Y-84990609D01*
X145189711Y-85078210D01*
X145189707Y-85078213D01*
X145078213Y-85189707D01*
X145078210Y-85189711D01*
X144990609Y-85320814D01*
X144990602Y-85320827D01*
X144930264Y-85466498D01*
X144930261Y-85466510D01*
X144899500Y-85621153D01*
X130130500Y-85621153D01*
X130130500Y-85503713D01*
X130097246Y-85293757D01*
X130031557Y-85091588D01*
X129935051Y-84902184D01*
X129935049Y-84902181D01*
X129935048Y-84902179D01*
X129810109Y-84730213D01*
X129659786Y-84579890D01*
X129487820Y-84454951D01*
X129487115Y-84454591D01*
X129479054Y-84450485D01*
X129428259Y-84402512D01*
X129411463Y-84334692D01*
X129433999Y-84268556D01*
X129479054Y-84229515D01*
X129487816Y-84225051D01*
X129568737Y-84166259D01*
X129659786Y-84100109D01*
X129659788Y-84100106D01*
X129659792Y-84100104D01*
X129810104Y-83949792D01*
X129810106Y-83949788D01*
X129810109Y-83949786D01*
X129935048Y-83777820D01*
X129935047Y-83777820D01*
X129935051Y-83777816D01*
X130031557Y-83588412D01*
X130097246Y-83386243D01*
X130130500Y-83176287D01*
X130130500Y-82963713D01*
X130124551Y-82926153D01*
X147199500Y-82926153D01*
X147199500Y-83083846D01*
X147230261Y-83238489D01*
X147230264Y-83238501D01*
X147290602Y-83384172D01*
X147290609Y-83384185D01*
X147378210Y-83515288D01*
X147378213Y-83515292D01*
X147489707Y-83626786D01*
X147489711Y-83626789D01*
X147620814Y-83714390D01*
X147620827Y-83714397D01*
X147766503Y-83774737D01*
X147770703Y-83776011D01*
X147829141Y-83814308D01*
X147849268Y-83847218D01*
X147890604Y-83947012D01*
X147890609Y-83947022D01*
X147978210Y-84078125D01*
X147978213Y-84078129D01*
X148089707Y-84189623D01*
X148089711Y-84189626D01*
X148195944Y-84260609D01*
X148240749Y-84314221D01*
X148248670Y-84339519D01*
X148274022Y-84466970D01*
X148274025Y-84466980D01*
X148334363Y-84612651D01*
X148334370Y-84612664D01*
X148421971Y-84743767D01*
X148421974Y-84743771D01*
X148533468Y-84855265D01*
X148533472Y-84855268D01*
X148664575Y-84942869D01*
X148664587Y-84942876D01*
X148746352Y-84976743D01*
X148800756Y-85020583D01*
X148822821Y-85086877D01*
X148820517Y-85115495D01*
X148799500Y-85221153D01*
X148799500Y-85378846D01*
X148830261Y-85533489D01*
X148830264Y-85533501D01*
X148890602Y-85679172D01*
X148890609Y-85679185D01*
X148978210Y-85810288D01*
X148978213Y-85810292D01*
X149089707Y-85921786D01*
X149089711Y-85921789D01*
X149220814Y-86009390D01*
X149220827Y-86009397D01*
X149366498Y-86069735D01*
X149366503Y-86069737D01*
X149521153Y-86100499D01*
X149521156Y-86100500D01*
X149521158Y-86100500D01*
X149678844Y-86100500D01*
X149678845Y-86100499D01*
X149833497Y-86069737D01*
X149979179Y-86009394D01*
X150110289Y-85921789D01*
X150221789Y-85810289D01*
X150309394Y-85679179D01*
X150369737Y-85533497D01*
X150372192Y-85521153D01*
X152099500Y-85521153D01*
X152099500Y-85678846D01*
X152130261Y-85833489D01*
X152130264Y-85833501D01*
X152190602Y-85979172D01*
X152190609Y-85979185D01*
X152278210Y-86110288D01*
X152278213Y-86110292D01*
X152389707Y-86221786D01*
X152389711Y-86221789D01*
X152520814Y-86309390D01*
X152520827Y-86309397D01*
X152664972Y-86369103D01*
X152666503Y-86369737D01*
X152821153Y-86400499D01*
X152821156Y-86400500D01*
X152821158Y-86400500D01*
X152978844Y-86400500D01*
X152978845Y-86400499D01*
X153133497Y-86369737D01*
X153279179Y-86309394D01*
X153410289Y-86221789D01*
X153521789Y-86110289D01*
X153609394Y-85979179D01*
X153669737Y-85833497D01*
X153700500Y-85678842D01*
X153700500Y-85521158D01*
X153700500Y-85521155D01*
X153700499Y-85521153D01*
X153672192Y-85378846D01*
X153669737Y-85366503D01*
X153609534Y-85221158D01*
X153609397Y-85220827D01*
X153609390Y-85220814D01*
X153521789Y-85089711D01*
X153521786Y-85089707D01*
X153410292Y-84978213D01*
X153410288Y-84978210D01*
X153279185Y-84890609D01*
X153279172Y-84890602D01*
X153133501Y-84830264D01*
X153133489Y-84830261D01*
X152978845Y-84799500D01*
X152978842Y-84799500D01*
X152821158Y-84799500D01*
X152821155Y-84799500D01*
X152666510Y-84830261D01*
X152666498Y-84830264D01*
X152520827Y-84890602D01*
X152520814Y-84890609D01*
X152389711Y-84978210D01*
X152389707Y-84978213D01*
X152278213Y-85089707D01*
X152278210Y-85089711D01*
X152190609Y-85220814D01*
X152190602Y-85220827D01*
X152130264Y-85366498D01*
X152130261Y-85366510D01*
X152099500Y-85521153D01*
X150372192Y-85521153D01*
X150378216Y-85490874D01*
X150378216Y-85490873D01*
X150400499Y-85378846D01*
X150400500Y-85378844D01*
X150400500Y-85221155D01*
X150400499Y-85221153D01*
X150379482Y-85115495D01*
X150369737Y-85066503D01*
X150356803Y-85035279D01*
X150349335Y-84965812D01*
X150380610Y-84903333D01*
X150428457Y-84873488D01*
X150427869Y-84872068D01*
X150468429Y-84855268D01*
X150579179Y-84809394D01*
X150710289Y-84721789D01*
X150821789Y-84610289D01*
X150909394Y-84479179D01*
X150919430Y-84454951D01*
X150967043Y-84340000D01*
X150969737Y-84333497D01*
X151000500Y-84178842D01*
X151000500Y-84166259D01*
X151020185Y-84099220D01*
X151072989Y-84053465D01*
X151077048Y-84051698D01*
X151179172Y-84009397D01*
X151179172Y-84009396D01*
X151179179Y-84009394D01*
X151310289Y-83921789D01*
X151421789Y-83810289D01*
X151509394Y-83679179D01*
X151569737Y-83533497D01*
X151600500Y-83378842D01*
X151600500Y-83221158D01*
X151600500Y-83221155D01*
X151585452Y-83145506D01*
X151591679Y-83075914D01*
X151634542Y-83020737D01*
X151682877Y-82999697D01*
X151833497Y-82969737D01*
X151951592Y-82920821D01*
X151979172Y-82909397D01*
X151979172Y-82909396D01*
X151979179Y-82909394D01*
X152110289Y-82821789D01*
X152221789Y-82710289D01*
X152309394Y-82579179D01*
X152369737Y-82433497D01*
X152400500Y-82278842D01*
X152400500Y-82121158D01*
X152400500Y-82121155D01*
X152400499Y-82121153D01*
X152384336Y-82039896D01*
X152369737Y-81966503D01*
X152346534Y-81910486D01*
X152309397Y-81820827D01*
X152309390Y-81820814D01*
X152221789Y-81689711D01*
X152221786Y-81689707D01*
X152143064Y-81610985D01*
X152109579Y-81549662D01*
X152114563Y-81479970D01*
X152156435Y-81424037D01*
X152194755Y-81404642D01*
X152200254Y-81402973D01*
X152200262Y-81402972D01*
X152345944Y-81342629D01*
X152477054Y-81255024D01*
X152588554Y-81143524D01*
X152676159Y-81012414D01*
X152736502Y-80866732D01*
X152767265Y-80712077D01*
X152767265Y-80554393D01*
X152767265Y-80554390D01*
X152767264Y-80554388D01*
X152741271Y-80423713D01*
X152736502Y-80399738D01*
X152736500Y-80399733D01*
X152676162Y-80254062D01*
X152676155Y-80254049D01*
X152588554Y-80122946D01*
X152588551Y-80122942D01*
X152477057Y-80011448D01*
X152477053Y-80011445D01*
X152345950Y-79923844D01*
X152345937Y-79923837D01*
X152200266Y-79863499D01*
X152200254Y-79863496D01*
X152045610Y-79832735D01*
X152045607Y-79832735D01*
X151887923Y-79832735D01*
X151887920Y-79832735D01*
X151733275Y-79863496D01*
X151733263Y-79863499D01*
X151587592Y-79923837D01*
X151587581Y-79923843D01*
X151495952Y-79985067D01*
X151495944Y-79985074D01*
X151456476Y-80011446D01*
X151344976Y-80122946D01*
X151341578Y-80128031D01*
X151341573Y-80128036D01*
X151257374Y-80254049D01*
X151257367Y-80254062D01*
X151197029Y-80399733D01*
X151197026Y-80399745D01*
X151166265Y-80554388D01*
X151166265Y-80712081D01*
X151197026Y-80866724D01*
X151197029Y-80866736D01*
X151257367Y-81012407D01*
X151257374Y-81012420D01*
X151344975Y-81143523D01*
X151344978Y-81143527D01*
X151423700Y-81222249D01*
X151457185Y-81283572D01*
X151452201Y-81353264D01*
X151410329Y-81409197D01*
X151372021Y-81428588D01*
X151366507Y-81430260D01*
X151220827Y-81490602D01*
X151220814Y-81490609D01*
X151089711Y-81578210D01*
X151089707Y-81578213D01*
X150978213Y-81689707D01*
X150978210Y-81689711D01*
X150890609Y-81820814D01*
X150890602Y-81820827D01*
X150830264Y-81966498D01*
X150830261Y-81966510D01*
X150799500Y-82121153D01*
X150799500Y-82278846D01*
X150814547Y-82354494D01*
X150808320Y-82424086D01*
X150765456Y-82479263D01*
X150717122Y-82500302D01*
X150566508Y-82530261D01*
X150566498Y-82530264D01*
X150420827Y-82590602D01*
X150420814Y-82590609D01*
X150289711Y-82678210D01*
X150289707Y-82678213D01*
X150178213Y-82789707D01*
X150178210Y-82789711D01*
X150090609Y-82920814D01*
X150090602Y-82920827D01*
X150030264Y-83066498D01*
X150030261Y-83066510D01*
X149999500Y-83221153D01*
X149999500Y-83233740D01*
X149979815Y-83300779D01*
X149927011Y-83346534D01*
X149922953Y-83348301D01*
X149820824Y-83390604D01*
X149820814Y-83390609D01*
X149689711Y-83478210D01*
X149627315Y-83540606D01*
X149599443Y-83555824D01*
X149572437Y-83572506D01*
X149569004Y-83572444D01*
X149565991Y-83574090D01*
X149534328Y-83571825D01*
X149502579Y-83571258D01*
X149498391Y-83569254D01*
X149496300Y-83569105D01*
X149470743Y-83556026D01*
X149447814Y-83540705D01*
X149403010Y-83487092D01*
X149395090Y-83461795D01*
X149372514Y-83348301D01*
X149369737Y-83334340D01*
X149355836Y-83300779D01*
X149309397Y-83188664D01*
X149309390Y-83188651D01*
X149221789Y-83057548D01*
X149221786Y-83057544D01*
X149110292Y-82946050D01*
X149110288Y-82946047D01*
X148979185Y-82858446D01*
X148979172Y-82858439D01*
X148833497Y-82798099D01*
X148829292Y-82796824D01*
X148770855Y-82758524D01*
X148750731Y-82725617D01*
X148709397Y-82625827D01*
X148709390Y-82625814D01*
X148621789Y-82494711D01*
X148621786Y-82494707D01*
X148510292Y-82383213D01*
X148510288Y-82383210D01*
X148379185Y-82295609D01*
X148379172Y-82295602D01*
X148233501Y-82235264D01*
X148233489Y-82235261D01*
X148078845Y-82204500D01*
X148078842Y-82204500D01*
X147921158Y-82204500D01*
X147921155Y-82204500D01*
X147766510Y-82235261D01*
X147766498Y-82235264D01*
X147620827Y-82295602D01*
X147620814Y-82295609D01*
X147489711Y-82383210D01*
X147489707Y-82383213D01*
X147378213Y-82494707D01*
X147378210Y-82494711D01*
X147290609Y-82625814D01*
X147290602Y-82625827D01*
X147230264Y-82771498D01*
X147230261Y-82771510D01*
X147199500Y-82926153D01*
X130124551Y-82926153D01*
X130097246Y-82753757D01*
X130031557Y-82551588D01*
X129935051Y-82362184D01*
X129935049Y-82362181D01*
X129935048Y-82362179D01*
X129810109Y-82190213D01*
X129659786Y-82039890D01*
X129487820Y-81914951D01*
X129487115Y-81914591D01*
X129479054Y-81910485D01*
X129428259Y-81862512D01*
X129411463Y-81794692D01*
X129433999Y-81728556D01*
X129479054Y-81689515D01*
X129487816Y-81685051D01*
X129589760Y-81610985D01*
X129659786Y-81560109D01*
X129659788Y-81560106D01*
X129659792Y-81560104D01*
X129810104Y-81409792D01*
X129810106Y-81409788D01*
X129810109Y-81409786D01*
X129935048Y-81237820D01*
X129935047Y-81237820D01*
X129935051Y-81237816D01*
X130031557Y-81048412D01*
X130097246Y-80846243D01*
X130130500Y-80636287D01*
X130130500Y-80423713D01*
X130097246Y-80213757D01*
X130031557Y-80011588D01*
X129935051Y-79822184D01*
X129935049Y-79822181D01*
X129935048Y-79822179D01*
X129810109Y-79650213D01*
X129659786Y-79499890D01*
X129487820Y-79374951D01*
X129487115Y-79374591D01*
X129479054Y-79370485D01*
X129428259Y-79322512D01*
X129411463Y-79254692D01*
X129422891Y-79221153D01*
X149899500Y-79221153D01*
X149899500Y-79378846D01*
X149930261Y-79533489D01*
X149930264Y-79533501D01*
X149990602Y-79679172D01*
X149990609Y-79679185D01*
X150078210Y-79810288D01*
X150078213Y-79810292D01*
X150189707Y-79921786D01*
X150189711Y-79921789D01*
X150320814Y-80009390D01*
X150320827Y-80009397D01*
X150466498Y-80069735D01*
X150466503Y-80069737D01*
X150621153Y-80100499D01*
X150621156Y-80100500D01*
X150621158Y-80100500D01*
X150778844Y-80100500D01*
X150778845Y-80100499D01*
X150933497Y-80069737D01*
X151073882Y-80011588D01*
X151079172Y-80009397D01*
X151079172Y-80009396D01*
X151079179Y-80009394D01*
X151210289Y-79921789D01*
X151321789Y-79810289D01*
X151409394Y-79679179D01*
X151469737Y-79533497D01*
X151500500Y-79378842D01*
X151500500Y-79221158D01*
X151500500Y-79221155D01*
X151500499Y-79221153D01*
X151491970Y-79178274D01*
X151469737Y-79066503D01*
X151446452Y-79010288D01*
X151409397Y-78920827D01*
X151409390Y-78920814D01*
X151321789Y-78789711D01*
X151321786Y-78789707D01*
X151210292Y-78678213D01*
X151210288Y-78678210D01*
X151079185Y-78590609D01*
X151079172Y-78590602D01*
X150933501Y-78530264D01*
X150933489Y-78530261D01*
X150778845Y-78499500D01*
X150778842Y-78499500D01*
X150621158Y-78499500D01*
X150621155Y-78499500D01*
X150466510Y-78530261D01*
X150466498Y-78530264D01*
X150320827Y-78590602D01*
X150320814Y-78590609D01*
X150189711Y-78678210D01*
X150189707Y-78678213D01*
X150078213Y-78789707D01*
X150078210Y-78789711D01*
X149990609Y-78920814D01*
X149990602Y-78920827D01*
X149930264Y-79066498D01*
X149930261Y-79066510D01*
X149899500Y-79221153D01*
X129422891Y-79221153D01*
X129433999Y-79188556D01*
X129479054Y-79149515D01*
X129487816Y-79145051D01*
X129556336Y-79095269D01*
X129659786Y-79020109D01*
X129659788Y-79020106D01*
X129659792Y-79020104D01*
X129810104Y-78869792D01*
X129810106Y-78869788D01*
X129810109Y-78869786D01*
X129935048Y-78697820D01*
X129935047Y-78697820D01*
X129935051Y-78697816D01*
X130031557Y-78508412D01*
X130059909Y-78421153D01*
X155199500Y-78421153D01*
X155199500Y-78578846D01*
X155230261Y-78733489D01*
X155230264Y-78733501D01*
X155290602Y-78879172D01*
X155290609Y-78879185D01*
X155378210Y-79010288D01*
X155378213Y-79010292D01*
X155489707Y-79121786D01*
X155489711Y-79121789D01*
X155620814Y-79209390D01*
X155620827Y-79209397D01*
X155755820Y-79265312D01*
X155766503Y-79269737D01*
X155921153Y-79300499D01*
X155921156Y-79300500D01*
X155921158Y-79300500D01*
X156078844Y-79300500D01*
X156078845Y-79300499D01*
X156233497Y-79269737D01*
X156379179Y-79209394D01*
X156510289Y-79121789D01*
X156621789Y-79010289D01*
X156709394Y-78879179D01*
X156769737Y-78733497D01*
X156800500Y-78578842D01*
X156800500Y-78421158D01*
X156800500Y-78421155D01*
X156800499Y-78421153D01*
X156775630Y-78296130D01*
X156769737Y-78266503D01*
X156742754Y-78201359D01*
X156709397Y-78120827D01*
X156709390Y-78120814D01*
X156621789Y-77989711D01*
X156621786Y-77989707D01*
X156510292Y-77878213D01*
X156510288Y-77878210D01*
X156379185Y-77790609D01*
X156379172Y-77790602D01*
X156233501Y-77730264D01*
X156233489Y-77730261D01*
X156078845Y-77699500D01*
X156078842Y-77699500D01*
X155921158Y-77699500D01*
X155921155Y-77699500D01*
X155766510Y-77730261D01*
X155766498Y-77730264D01*
X155620827Y-77790602D01*
X155620814Y-77790609D01*
X155489711Y-77878210D01*
X155489707Y-77878213D01*
X155378213Y-77989707D01*
X155378210Y-77989711D01*
X155290609Y-78120814D01*
X155290602Y-78120827D01*
X155230264Y-78266498D01*
X155230261Y-78266510D01*
X155199500Y-78421153D01*
X130059909Y-78421153D01*
X130097246Y-78306243D01*
X130130500Y-78096287D01*
X130130500Y-77883713D01*
X130097246Y-77673757D01*
X130031557Y-77471588D01*
X130001764Y-77413115D01*
X158286363Y-77413115D01*
X158286363Y-77570808D01*
X158317124Y-77725451D01*
X158317127Y-77725463D01*
X158377465Y-77871134D01*
X158377472Y-77871147D01*
X158465073Y-78002250D01*
X158465076Y-78002254D01*
X158576570Y-78113748D01*
X158576574Y-78113751D01*
X158707677Y-78201352D01*
X158707690Y-78201359D01*
X158853361Y-78261697D01*
X158853366Y-78261699D01*
X158980597Y-78287007D01*
X159008016Y-78292461D01*
X159008019Y-78292462D01*
X159008021Y-78292462D01*
X159165707Y-78292462D01*
X159165708Y-78292461D01*
X159320360Y-78261699D01*
X159466042Y-78201356D01*
X159597152Y-78113751D01*
X159708652Y-78002251D01*
X159796257Y-77871141D01*
X159856600Y-77725459D01*
X159887363Y-77570804D01*
X159887363Y-77413120D01*
X159887363Y-77413117D01*
X159887362Y-77413115D01*
X159861317Y-77282179D01*
X159856600Y-77258465D01*
X159856325Y-77257802D01*
X159856285Y-77257428D01*
X159854832Y-77252638D01*
X159855740Y-77252362D01*
X159848853Y-77188337D01*
X159867780Y-77141456D01*
X159909394Y-77079179D01*
X159969737Y-76933497D01*
X160000500Y-76778842D01*
X160000500Y-76621158D01*
X160000500Y-76621155D01*
X160000499Y-76621153D01*
X159997296Y-76605050D01*
X159969737Y-76466503D01*
X159950955Y-76421158D01*
X159909397Y-76320827D01*
X159909390Y-76320814D01*
X159821789Y-76189711D01*
X159821786Y-76189707D01*
X159710292Y-76078213D01*
X159710288Y-76078210D01*
X159579185Y-75990609D01*
X159579172Y-75990602D01*
X159433501Y-75930264D01*
X159433489Y-75930261D01*
X159278845Y-75899500D01*
X159278842Y-75899500D01*
X159121158Y-75899500D01*
X159121155Y-75899500D01*
X158966510Y-75930261D01*
X158966498Y-75930264D01*
X158820827Y-75990602D01*
X158820814Y-75990609D01*
X158689711Y-76078210D01*
X158689707Y-76078213D01*
X158578213Y-76189707D01*
X158578210Y-76189711D01*
X158490609Y-76320814D01*
X158490602Y-76320827D01*
X158430264Y-76466498D01*
X158430261Y-76466510D01*
X158399500Y-76621153D01*
X158399500Y-76778846D01*
X158430260Y-76933488D01*
X158430263Y-76933498D01*
X158430539Y-76934163D01*
X158430579Y-76934538D01*
X158432030Y-76939320D01*
X158431123Y-76939595D01*
X158438008Y-77003633D01*
X158419081Y-77050504D01*
X158377468Y-77112783D01*
X158377467Y-77112784D01*
X158317127Y-77258460D01*
X158317124Y-77258472D01*
X158286363Y-77413115D01*
X130001764Y-77413115D01*
X129935051Y-77282184D01*
X129935049Y-77282181D01*
X129935048Y-77282179D01*
X129810109Y-77110213D01*
X129659786Y-76959890D01*
X129487820Y-76834951D01*
X129487115Y-76834591D01*
X129479054Y-76830485D01*
X129428259Y-76782512D01*
X129411463Y-76714692D01*
X129433999Y-76648556D01*
X129479054Y-76609515D01*
X129487816Y-76605051D01*
X129523890Y-76578842D01*
X129659786Y-76480109D01*
X129659788Y-76480106D01*
X129659792Y-76480104D01*
X129810104Y-76329792D01*
X129810106Y-76329788D01*
X129810109Y-76329786D01*
X129896925Y-76210292D01*
X129935051Y-76157816D01*
X129953732Y-76121153D01*
X136499500Y-76121153D01*
X136499500Y-76278846D01*
X136530261Y-76433489D01*
X136530264Y-76433501D01*
X136590602Y-76579172D01*
X136590609Y-76579185D01*
X136678210Y-76710288D01*
X136678213Y-76710292D01*
X136789707Y-76821786D01*
X136789711Y-76821789D01*
X136920814Y-76909390D01*
X136920827Y-76909397D01*
X137066498Y-76969735D01*
X137066503Y-76969737D01*
X137195509Y-76995398D01*
X137221153Y-77000499D01*
X137221156Y-77000500D01*
X137221158Y-77000500D01*
X137378844Y-77000500D01*
X137378845Y-77000499D01*
X137533497Y-76969737D01*
X137679179Y-76909394D01*
X137810289Y-76821789D01*
X137921789Y-76710289D01*
X138009394Y-76579179D01*
X138069737Y-76433497D01*
X138100500Y-76278842D01*
X138100500Y-76121158D01*
X138100500Y-76121155D01*
X138100499Y-76121153D01*
X138074531Y-75990606D01*
X138069737Y-75966503D01*
X138069735Y-75966498D01*
X138009397Y-75820827D01*
X138009390Y-75820814D01*
X137921790Y-75689712D01*
X137921784Y-75689705D01*
X137853232Y-75621153D01*
X145899500Y-75621153D01*
X145899500Y-75778846D01*
X145930261Y-75933489D01*
X145930264Y-75933501D01*
X145990602Y-76079172D01*
X145990609Y-76079185D01*
X146078210Y-76210288D01*
X146078213Y-76210292D01*
X146189707Y-76321786D01*
X146189711Y-76321789D01*
X146320814Y-76409390D01*
X146320827Y-76409397D01*
X146458683Y-76466498D01*
X146466503Y-76469737D01*
X146621153Y-76500499D01*
X146621156Y-76500500D01*
X146621158Y-76500500D01*
X146778844Y-76500500D01*
X146778845Y-76500499D01*
X146933497Y-76469737D01*
X147079179Y-76409394D01*
X147181111Y-76341284D01*
X147247786Y-76320408D01*
X147315166Y-76338892D01*
X147318847Y-76341257D01*
X147420821Y-76409394D01*
X147420823Y-76409395D01*
X147420827Y-76409397D01*
X147558683Y-76466498D01*
X147566503Y-76469737D01*
X147721153Y-76500499D01*
X147721156Y-76500500D01*
X147721158Y-76500500D01*
X147878844Y-76500500D01*
X147878845Y-76500499D01*
X148033497Y-76469737D01*
X148150790Y-76421153D01*
X154699500Y-76421153D01*
X154699500Y-76578846D01*
X154730261Y-76733489D01*
X154730264Y-76733501D01*
X154790602Y-76879172D01*
X154790609Y-76879185D01*
X154878210Y-77010288D01*
X154878213Y-77010292D01*
X154989707Y-77121786D01*
X154989711Y-77121789D01*
X155120814Y-77209390D01*
X155120827Y-77209397D01*
X155266498Y-77269735D01*
X155266503Y-77269737D01*
X155421153Y-77300499D01*
X155421156Y-77300500D01*
X155421158Y-77300500D01*
X155578844Y-77300500D01*
X155578845Y-77300499D01*
X155598259Y-77296637D01*
X155654702Y-77285411D01*
X155694189Y-77277555D01*
X155733497Y-77269737D01*
X155857721Y-77218282D01*
X155879172Y-77209397D01*
X155879172Y-77209396D01*
X155879179Y-77209394D01*
X156010289Y-77121789D01*
X156121789Y-77010289D01*
X156209394Y-76879179D01*
X156269737Y-76733497D01*
X156300500Y-76578842D01*
X156300500Y-76421158D01*
X156300500Y-76421155D01*
X156300499Y-76421153D01*
X156280734Y-76321789D01*
X156269737Y-76266503D01*
X156265124Y-76255367D01*
X156209397Y-76120827D01*
X156209390Y-76120814D01*
X156121789Y-75989711D01*
X156121786Y-75989707D01*
X156010292Y-75878213D01*
X156010288Y-75878210D01*
X155879185Y-75790609D01*
X155879172Y-75790602D01*
X155733501Y-75730264D01*
X155733489Y-75730261D01*
X155578845Y-75699500D01*
X155578842Y-75699500D01*
X155421158Y-75699500D01*
X155421155Y-75699500D01*
X155266510Y-75730261D01*
X155266498Y-75730264D01*
X155120827Y-75790602D01*
X155120814Y-75790609D01*
X154989711Y-75878210D01*
X154989707Y-75878213D01*
X154878213Y-75989707D01*
X154878210Y-75989711D01*
X154790609Y-76120814D01*
X154790602Y-76120827D01*
X154730264Y-76266498D01*
X154730261Y-76266510D01*
X154699500Y-76421153D01*
X148150790Y-76421153D01*
X148179179Y-76409394D01*
X148310289Y-76321789D01*
X148421789Y-76210289D01*
X148440553Y-76182205D01*
X148494162Y-76137402D01*
X148563486Y-76128692D01*
X148626515Y-76158845D01*
X148631336Y-76163415D01*
X148689707Y-76221786D01*
X148689711Y-76221789D01*
X148820814Y-76309390D01*
X148820827Y-76309397D01*
X148962698Y-76368161D01*
X148966503Y-76369737D01*
X149121153Y-76400499D01*
X149121156Y-76400500D01*
X149121158Y-76400500D01*
X149278844Y-76400500D01*
X149278845Y-76400499D01*
X149433497Y-76369737D01*
X149551592Y-76320821D01*
X149579172Y-76309397D01*
X149579172Y-76309396D01*
X149579179Y-76309394D01*
X149710289Y-76221789D01*
X149821789Y-76110289D01*
X149909394Y-75979179D01*
X149969737Y-75833497D01*
X150000500Y-75678842D01*
X150000500Y-75521158D01*
X150000500Y-75521155D01*
X150000499Y-75521153D01*
X149982419Y-75430261D01*
X149969737Y-75366503D01*
X149927774Y-75265194D01*
X149909397Y-75220827D01*
X149909390Y-75220814D01*
X149821789Y-75089711D01*
X149821786Y-75089707D01*
X149710292Y-74978213D01*
X149710288Y-74978210D01*
X149579185Y-74890609D01*
X149579172Y-74890602D01*
X149433501Y-74830264D01*
X149433489Y-74830261D01*
X149278845Y-74799500D01*
X149278842Y-74799500D01*
X149121158Y-74799500D01*
X149121155Y-74799500D01*
X148966510Y-74830261D01*
X148966498Y-74830264D01*
X148820827Y-74890602D01*
X148820814Y-74890609D01*
X148689711Y-74978210D01*
X148689707Y-74978213D01*
X148578213Y-75089707D01*
X148578210Y-75089711D01*
X148559446Y-75117794D01*
X148505833Y-75162599D01*
X148436508Y-75171306D01*
X148373481Y-75141151D01*
X148368663Y-75136584D01*
X148310292Y-75078213D01*
X148310288Y-75078210D01*
X148179185Y-74990609D01*
X148179172Y-74990602D01*
X148033501Y-74930264D01*
X148033489Y-74930261D01*
X147878845Y-74899500D01*
X147878842Y-74899500D01*
X147721158Y-74899500D01*
X147721155Y-74899500D01*
X147566510Y-74930261D01*
X147566498Y-74930264D01*
X147420827Y-74990602D01*
X147420814Y-74990609D01*
X147318891Y-75058713D01*
X147252213Y-75079591D01*
X147184833Y-75061107D01*
X147181109Y-75058713D01*
X147079185Y-74990609D01*
X147079172Y-74990602D01*
X146933501Y-74930264D01*
X146933489Y-74930261D01*
X146778845Y-74899500D01*
X146778842Y-74899500D01*
X146621158Y-74899500D01*
X146621155Y-74899500D01*
X146466510Y-74930261D01*
X146466498Y-74930264D01*
X146320827Y-74990602D01*
X146320814Y-74990609D01*
X146189711Y-75078210D01*
X146189707Y-75078213D01*
X146078213Y-75189707D01*
X146078210Y-75189711D01*
X145990609Y-75320814D01*
X145990602Y-75320827D01*
X145930264Y-75466498D01*
X145930261Y-75466510D01*
X145899500Y-75621153D01*
X137853232Y-75621153D01*
X137810292Y-75578213D01*
X137810288Y-75578210D01*
X137679185Y-75490609D01*
X137679172Y-75490602D01*
X137533501Y-75430264D01*
X137533489Y-75430261D01*
X137378845Y-75399500D01*
X137378842Y-75399500D01*
X137221158Y-75399500D01*
X137221155Y-75399500D01*
X137066510Y-75430261D01*
X137066498Y-75430264D01*
X136920827Y-75490602D01*
X136920814Y-75490609D01*
X136789711Y-75578210D01*
X136789707Y-75578213D01*
X136678213Y-75689707D01*
X136678210Y-75689711D01*
X136590609Y-75820814D01*
X136590602Y-75820827D01*
X136530264Y-75966498D01*
X136530261Y-75966510D01*
X136499500Y-76121153D01*
X129953732Y-76121153D01*
X130031557Y-75968412D01*
X130097246Y-75766243D01*
X130130500Y-75556287D01*
X130130500Y-75343713D01*
X130097246Y-75133757D01*
X130031557Y-74931588D01*
X129935051Y-74742184D01*
X129935049Y-74742181D01*
X129935048Y-74742179D01*
X129810109Y-74570213D01*
X129659786Y-74419890D01*
X129487820Y-74294951D01*
X129487115Y-74294591D01*
X129479054Y-74290485D01*
X129428259Y-74242512D01*
X129411463Y-74174692D01*
X129433999Y-74108556D01*
X129479054Y-74069515D01*
X129487816Y-74065051D01*
X129531258Y-74033489D01*
X129659786Y-73940109D01*
X129659788Y-73940106D01*
X129659792Y-73940104D01*
X129810104Y-73789792D01*
X129810106Y-73789788D01*
X129810109Y-73789786D01*
X129859973Y-73721153D01*
X143599500Y-73721153D01*
X143599500Y-73878846D01*
X143630261Y-74033489D01*
X143630264Y-74033501D01*
X143690602Y-74179172D01*
X143690609Y-74179185D01*
X143778210Y-74310288D01*
X143778213Y-74310292D01*
X143889707Y-74421786D01*
X143889711Y-74421789D01*
X144020814Y-74509390D01*
X144020827Y-74509397D01*
X144143500Y-74560209D01*
X144166503Y-74569737D01*
X144321153Y-74600499D01*
X144321156Y-74600500D01*
X144321158Y-74600500D01*
X144478844Y-74600500D01*
X144478845Y-74600499D01*
X144633497Y-74569737D01*
X144779179Y-74509394D01*
X144910289Y-74421789D01*
X145021789Y-74310289D01*
X145109394Y-74179179D01*
X145169737Y-74033497D01*
X145200500Y-73878842D01*
X145200500Y-73721158D01*
X145200500Y-73721155D01*
X145200499Y-73721153D01*
X145191335Y-73675082D01*
X145169737Y-73566503D01*
X145146080Y-73509390D01*
X145109397Y-73420827D01*
X145109390Y-73420814D01*
X145021789Y-73289711D01*
X145021786Y-73289707D01*
X144910292Y-73178213D01*
X144910288Y-73178210D01*
X144779185Y-73090609D01*
X144779172Y-73090602D01*
X144633501Y-73030264D01*
X144633489Y-73030261D01*
X144478845Y-72999500D01*
X144478842Y-72999500D01*
X144321158Y-72999500D01*
X144321155Y-72999500D01*
X144166510Y-73030261D01*
X144166498Y-73030264D01*
X144020827Y-73090602D01*
X144020814Y-73090609D01*
X143889711Y-73178210D01*
X143889707Y-73178213D01*
X143778213Y-73289707D01*
X143778210Y-73289711D01*
X143690609Y-73420814D01*
X143690602Y-73420827D01*
X143630264Y-73566498D01*
X143630261Y-73566510D01*
X143599500Y-73721153D01*
X129859973Y-73721153D01*
X129935048Y-73617820D01*
X129935047Y-73617820D01*
X129935051Y-73617816D01*
X130031557Y-73428412D01*
X130097246Y-73226243D01*
X130130500Y-73016287D01*
X130130500Y-72803713D01*
X130097246Y-72593757D01*
X130031557Y-72391588D01*
X129935051Y-72202184D01*
X129935049Y-72202181D01*
X129935048Y-72202179D01*
X129810109Y-72030213D01*
X129659786Y-71879890D01*
X129578940Y-71821153D01*
X132499500Y-71821153D01*
X132499500Y-71978846D01*
X132530261Y-72133489D01*
X132530264Y-72133501D01*
X132590602Y-72279172D01*
X132590609Y-72279185D01*
X132678210Y-72410288D01*
X132678213Y-72410292D01*
X132789707Y-72521786D01*
X132789711Y-72521789D01*
X132920814Y-72609390D01*
X132920827Y-72609397D01*
X132964255Y-72627385D01*
X133066503Y-72669737D01*
X133221153Y-72700499D01*
X133221156Y-72700500D01*
X133221158Y-72700500D01*
X133378844Y-72700500D01*
X133378845Y-72700499D01*
X133533497Y-72669737D01*
X133679179Y-72609394D01*
X133810289Y-72521789D01*
X133921789Y-72410289D01*
X134009394Y-72279179D01*
X134069737Y-72133497D01*
X134084715Y-72058194D01*
X134092084Y-72021153D01*
X138399500Y-72021153D01*
X138399500Y-72178846D01*
X138430261Y-72333489D01*
X138430264Y-72333501D01*
X138490602Y-72479172D01*
X138490609Y-72479185D01*
X138578210Y-72610288D01*
X138578213Y-72610292D01*
X138689707Y-72721786D01*
X138689711Y-72721789D01*
X138820814Y-72809390D01*
X138820827Y-72809397D01*
X138966498Y-72869735D01*
X138966503Y-72869737D01*
X139121153Y-72900499D01*
X139121156Y-72900500D01*
X139121158Y-72900500D01*
X139278844Y-72900500D01*
X139278845Y-72900499D01*
X139433497Y-72869737D01*
X139579179Y-72809394D01*
X139710289Y-72721789D01*
X139710925Y-72721153D01*
X141999500Y-72721153D01*
X141999500Y-72878846D01*
X142030261Y-73033489D01*
X142030264Y-73033501D01*
X142090602Y-73179172D01*
X142090609Y-73179185D01*
X142178210Y-73310288D01*
X142178213Y-73310292D01*
X142289707Y-73421786D01*
X142289711Y-73421789D01*
X142420814Y-73509390D01*
X142420827Y-73509397D01*
X142558683Y-73566498D01*
X142566503Y-73569737D01*
X142721153Y-73600499D01*
X142721156Y-73600500D01*
X142721158Y-73600500D01*
X142878844Y-73600500D01*
X142878845Y-73600499D01*
X142889179Y-73598443D01*
X142914287Y-73593450D01*
X142914292Y-73593449D01*
X142999800Y-73576439D01*
X143033497Y-73569737D01*
X143179179Y-73509394D01*
X143310289Y-73421789D01*
X143421789Y-73310289D01*
X143509394Y-73179179D01*
X143569737Y-73033497D01*
X143600500Y-72878842D01*
X143600500Y-72721158D01*
X143600500Y-72721155D01*
X143600499Y-72721153D01*
X143578447Y-72610292D01*
X143569737Y-72566503D01*
X143533569Y-72479185D01*
X143509397Y-72420827D01*
X143509390Y-72420814D01*
X143421789Y-72289711D01*
X143421786Y-72289707D01*
X143310292Y-72178213D01*
X143310288Y-72178210D01*
X143224897Y-72121153D01*
X147699500Y-72121153D01*
X147699500Y-72278846D01*
X147730261Y-72433489D01*
X147730264Y-72433501D01*
X147790602Y-72579172D01*
X147790609Y-72579185D01*
X147878210Y-72710288D01*
X147878213Y-72710292D01*
X147989707Y-72821786D01*
X147989711Y-72821789D01*
X148120814Y-72909390D01*
X148120827Y-72909397D01*
X148266498Y-72969735D01*
X148266503Y-72969737D01*
X148416131Y-72999500D01*
X148421153Y-73000499D01*
X148421156Y-73000500D01*
X148421158Y-73000500D01*
X148578844Y-73000500D01*
X148578845Y-73000499D01*
X148733497Y-72969737D01*
X148879179Y-72909394D01*
X149010289Y-72821789D01*
X149121789Y-72710289D01*
X149209394Y-72579179D01*
X149269737Y-72433497D01*
X149300500Y-72278842D01*
X149300500Y-72121158D01*
X149300500Y-72121155D01*
X149300499Y-72121153D01*
X149291598Y-72076405D01*
X149269737Y-71966503D01*
X149269735Y-71966498D01*
X149226666Y-71862518D01*
X149209532Y-71821153D01*
X161699500Y-71821153D01*
X161699500Y-71978846D01*
X161730261Y-72133489D01*
X161730264Y-72133501D01*
X161790602Y-72279172D01*
X161790609Y-72279185D01*
X161878210Y-72410288D01*
X161878213Y-72410292D01*
X161989707Y-72521786D01*
X161989711Y-72521789D01*
X162120814Y-72609390D01*
X162120827Y-72609397D01*
X162164255Y-72627385D01*
X162266503Y-72669737D01*
X162421153Y-72700499D01*
X162421156Y-72700500D01*
X162421158Y-72700500D01*
X162578844Y-72700500D01*
X162578845Y-72700499D01*
X162733497Y-72669737D01*
X162879179Y-72609394D01*
X163010289Y-72521789D01*
X163121789Y-72410289D01*
X163209394Y-72279179D01*
X163269737Y-72133497D01*
X163300500Y-71978842D01*
X163300500Y-71821158D01*
X163300500Y-71821155D01*
X163300499Y-71821153D01*
X163300432Y-71820814D01*
X163269737Y-71666503D01*
X163269735Y-71666498D01*
X163209397Y-71520827D01*
X163209390Y-71520814D01*
X163121789Y-71389711D01*
X163121786Y-71389707D01*
X163010292Y-71278213D01*
X163010288Y-71278210D01*
X162879185Y-71190609D01*
X162879172Y-71190602D01*
X162733501Y-71130264D01*
X162733489Y-71130261D01*
X162578845Y-71099500D01*
X162578842Y-71099500D01*
X162421158Y-71099500D01*
X162421155Y-71099500D01*
X162266510Y-71130261D01*
X162266498Y-71130264D01*
X162120827Y-71190602D01*
X162120814Y-71190609D01*
X161989711Y-71278210D01*
X161989707Y-71278213D01*
X161878213Y-71389707D01*
X161878210Y-71389711D01*
X161790609Y-71520814D01*
X161790602Y-71520827D01*
X161730264Y-71666498D01*
X161730261Y-71666510D01*
X161699500Y-71821153D01*
X149209532Y-71821153D01*
X149209395Y-71820823D01*
X149209390Y-71820814D01*
X149121789Y-71689711D01*
X149121786Y-71689707D01*
X149010292Y-71578213D01*
X149010288Y-71578210D01*
X148879185Y-71490609D01*
X148879172Y-71490602D01*
X148733501Y-71430264D01*
X148733489Y-71430261D01*
X148578845Y-71399500D01*
X148578842Y-71399500D01*
X148421158Y-71399500D01*
X148421155Y-71399500D01*
X148266510Y-71430261D01*
X148266498Y-71430264D01*
X148120827Y-71490602D01*
X148120814Y-71490609D01*
X147989711Y-71578210D01*
X147989707Y-71578213D01*
X147878213Y-71689707D01*
X147878210Y-71689711D01*
X147790609Y-71820814D01*
X147790602Y-71820827D01*
X147730264Y-71966498D01*
X147730261Y-71966510D01*
X147699500Y-72121153D01*
X143224897Y-72121153D01*
X143179185Y-72090609D01*
X143179172Y-72090602D01*
X143033501Y-72030264D01*
X143033489Y-72030261D01*
X142878845Y-71999500D01*
X142878842Y-71999500D01*
X142721158Y-71999500D01*
X142721155Y-71999500D01*
X142566510Y-72030261D01*
X142566498Y-72030264D01*
X142420827Y-72090602D01*
X142420814Y-72090609D01*
X142289711Y-72178210D01*
X142289707Y-72178213D01*
X142178213Y-72289707D01*
X142178210Y-72289711D01*
X142090609Y-72420814D01*
X142090602Y-72420827D01*
X142030264Y-72566498D01*
X142030261Y-72566510D01*
X141999500Y-72721153D01*
X139710925Y-72721153D01*
X139731579Y-72700499D01*
X139804694Y-72627385D01*
X139821786Y-72610292D01*
X139821789Y-72610289D01*
X139909394Y-72479179D01*
X139910054Y-72477587D01*
X139969735Y-72333501D01*
X139969737Y-72333497D01*
X140000500Y-72178842D01*
X140000500Y-72021158D01*
X140000500Y-72021155D01*
X140000499Y-72021153D01*
X139994476Y-71990874D01*
X139969737Y-71866503D01*
X139950955Y-71821158D01*
X139909397Y-71720827D01*
X139909390Y-71720814D01*
X139821789Y-71589711D01*
X139821786Y-71589707D01*
X139710292Y-71478213D01*
X139710288Y-71478210D01*
X139579185Y-71390609D01*
X139579172Y-71390602D01*
X139433501Y-71330264D01*
X139433489Y-71330261D01*
X139278845Y-71299500D01*
X139278842Y-71299500D01*
X139121158Y-71299500D01*
X139121155Y-71299500D01*
X138966510Y-71330261D01*
X138966498Y-71330264D01*
X138820827Y-71390602D01*
X138820814Y-71390609D01*
X138689711Y-71478210D01*
X138689707Y-71478213D01*
X138578213Y-71589707D01*
X138578210Y-71589711D01*
X138490609Y-71720814D01*
X138490602Y-71720827D01*
X138430264Y-71866498D01*
X138430261Y-71866510D01*
X138399500Y-72021153D01*
X134092084Y-72021153D01*
X134098107Y-71990875D01*
X134098107Y-71990874D01*
X134100500Y-71978844D01*
X134100500Y-71821155D01*
X134100499Y-71821153D01*
X134100432Y-71820814D01*
X134069737Y-71666503D01*
X134069735Y-71666498D01*
X134009397Y-71520827D01*
X134009390Y-71520814D01*
X133921789Y-71389711D01*
X133921786Y-71389707D01*
X133810292Y-71278213D01*
X133810288Y-71278210D01*
X133679185Y-71190609D01*
X133679172Y-71190602D01*
X133533501Y-71130264D01*
X133533489Y-71130261D01*
X133378845Y-71099500D01*
X133378842Y-71099500D01*
X133221158Y-71099500D01*
X133221155Y-71099500D01*
X133066510Y-71130261D01*
X133066498Y-71130264D01*
X132920827Y-71190602D01*
X132920814Y-71190609D01*
X132789711Y-71278210D01*
X132789707Y-71278213D01*
X132678213Y-71389707D01*
X132678210Y-71389711D01*
X132590609Y-71520814D01*
X132590602Y-71520827D01*
X132530264Y-71666498D01*
X132530261Y-71666510D01*
X132499500Y-71821153D01*
X129578940Y-71821153D01*
X129487820Y-71754951D01*
X129487115Y-71754591D01*
X129479054Y-71750485D01*
X129428259Y-71702512D01*
X129411463Y-71634692D01*
X129433999Y-71568556D01*
X129479054Y-71529515D01*
X129487816Y-71525051D01*
X129535231Y-71490602D01*
X129659786Y-71400109D01*
X129659788Y-71400106D01*
X129659792Y-71400104D01*
X129810104Y-71249792D01*
X129810106Y-71249788D01*
X129810109Y-71249786D01*
X129935048Y-71077820D01*
X129935047Y-71077820D01*
X129935051Y-71077816D01*
X130031557Y-70888412D01*
X130097246Y-70686243D01*
X130107555Y-70621153D01*
X141799500Y-70621153D01*
X141799500Y-70778846D01*
X141830261Y-70933489D01*
X141830264Y-70933501D01*
X141890602Y-71079172D01*
X141890609Y-71079185D01*
X141978210Y-71210288D01*
X141978213Y-71210292D01*
X142089707Y-71321786D01*
X142089711Y-71321789D01*
X142220814Y-71409390D01*
X142220827Y-71409397D01*
X142366498Y-71469735D01*
X142366503Y-71469737D01*
X142521153Y-71500499D01*
X142521156Y-71500500D01*
X142521158Y-71500500D01*
X142678844Y-71500500D01*
X142678845Y-71500499D01*
X142833497Y-71469737D01*
X142979179Y-71409394D01*
X143110289Y-71321789D01*
X143221789Y-71210289D01*
X143309394Y-71079179D01*
X143369737Y-70933497D01*
X143380563Y-70879072D01*
X143412947Y-70817161D01*
X143473663Y-70782587D01*
X143526372Y-70781646D01*
X143621155Y-70800500D01*
X143621158Y-70800500D01*
X143778844Y-70800500D01*
X143778845Y-70800499D01*
X143933497Y-70769737D01*
X144079179Y-70709394D01*
X144210289Y-70621789D01*
X144321789Y-70510289D01*
X144409394Y-70379179D01*
X144469737Y-70233497D01*
X144500500Y-70078842D01*
X144500500Y-69921158D01*
X144500500Y-69921155D01*
X144500499Y-69921153D01*
X144492878Y-69882840D01*
X144469737Y-69766503D01*
X144409794Y-69621786D01*
X144409397Y-69620827D01*
X144409390Y-69620814D01*
X144321789Y-69489711D01*
X144321786Y-69489707D01*
X144210292Y-69378213D01*
X144210288Y-69378210D01*
X144079185Y-69290609D01*
X144079172Y-69290602D01*
X143933501Y-69230264D01*
X143933489Y-69230261D01*
X143778845Y-69199500D01*
X143778842Y-69199500D01*
X143621158Y-69199500D01*
X143621155Y-69199500D01*
X143466510Y-69230261D01*
X143466498Y-69230264D01*
X143320827Y-69290602D01*
X143320814Y-69290609D01*
X143189711Y-69378210D01*
X143189707Y-69378213D01*
X143078213Y-69489707D01*
X143078210Y-69489711D01*
X142990609Y-69620814D01*
X142990602Y-69620827D01*
X142930264Y-69766498D01*
X142930261Y-69766507D01*
X142919436Y-69820929D01*
X142887050Y-69882840D01*
X142826334Y-69917413D01*
X142773628Y-69918353D01*
X142678846Y-69899500D01*
X142678842Y-69899500D01*
X142521158Y-69899500D01*
X142521155Y-69899500D01*
X142366510Y-69930261D01*
X142366498Y-69930264D01*
X142220827Y-69990602D01*
X142220814Y-69990609D01*
X142089711Y-70078210D01*
X142089707Y-70078213D01*
X141978213Y-70189707D01*
X141978210Y-70189711D01*
X141890609Y-70320814D01*
X141890602Y-70320827D01*
X141830264Y-70466498D01*
X141830261Y-70466510D01*
X141799500Y-70621153D01*
X130107555Y-70621153D01*
X130130500Y-70476287D01*
X130130500Y-70263713D01*
X130097246Y-70053757D01*
X130031557Y-69851588D01*
X129935051Y-69662184D01*
X129935049Y-69662181D01*
X129935048Y-69662179D01*
X129810109Y-69490213D01*
X129659786Y-69339890D01*
X129487820Y-69214951D01*
X129487115Y-69214591D01*
X129479054Y-69210485D01*
X129428259Y-69162512D01*
X129411463Y-69094692D01*
X129433999Y-69028556D01*
X129479054Y-68989515D01*
X129487816Y-68985051D01*
X129591950Y-68909394D01*
X129659786Y-68860109D01*
X129659788Y-68860106D01*
X129659792Y-68860104D01*
X129810104Y-68709792D01*
X129810106Y-68709788D01*
X129810109Y-68709786D01*
X129935048Y-68537820D01*
X129935047Y-68537820D01*
X129935051Y-68537816D01*
X130031557Y-68348412D01*
X130097246Y-68146243D01*
X130101220Y-68121153D01*
X145099500Y-68121153D01*
X145099500Y-68278846D01*
X145130261Y-68433489D01*
X145130264Y-68433501D01*
X145190602Y-68579172D01*
X145190609Y-68579185D01*
X145278210Y-68710288D01*
X145278213Y-68710292D01*
X145389707Y-68821786D01*
X145389711Y-68821789D01*
X145520814Y-68909390D01*
X145520827Y-68909397D01*
X145658683Y-68966498D01*
X145666503Y-68969737D01*
X145821153Y-69000499D01*
X145821156Y-69000500D01*
X145821158Y-69000500D01*
X145978844Y-69000500D01*
X145978845Y-69000499D01*
X146133497Y-68969737D01*
X146250790Y-68921153D01*
X146799500Y-68921153D01*
X146799500Y-69078846D01*
X146830261Y-69233489D01*
X146830264Y-69233501D01*
X146890602Y-69379172D01*
X146890609Y-69379185D01*
X146978210Y-69510288D01*
X146978213Y-69510292D01*
X147089707Y-69621786D01*
X147089711Y-69621789D01*
X147220814Y-69709390D01*
X147220827Y-69709397D01*
X147358683Y-69766498D01*
X147366503Y-69769737D01*
X147521153Y-69800499D01*
X147521156Y-69800500D01*
X147521158Y-69800500D01*
X147678844Y-69800500D01*
X147678845Y-69800499D01*
X147833497Y-69769737D01*
X147979179Y-69709394D01*
X148110289Y-69621789D01*
X148221789Y-69510289D01*
X148309394Y-69379179D01*
X148369737Y-69233497D01*
X148400500Y-69078842D01*
X148400500Y-68921158D01*
X148400500Y-68921155D01*
X148382005Y-68828178D01*
X148388232Y-68758586D01*
X148431095Y-68703409D01*
X148496984Y-68680164D01*
X148551074Y-68689425D01*
X148601445Y-68710289D01*
X148660444Y-68734727D01*
X148815094Y-68765489D01*
X148815097Y-68765490D01*
X148815099Y-68765490D01*
X148972785Y-68765490D01*
X148972786Y-68765489D01*
X149127438Y-68734727D01*
X149273120Y-68674384D01*
X149404230Y-68586779D01*
X149515730Y-68475279D01*
X149564736Y-68401936D01*
X149618346Y-68357133D01*
X149649022Y-68349158D01*
X149648930Y-68348691D01*
X149735396Y-68331490D01*
X149809559Y-68316739D01*
X149955241Y-68256396D01*
X150086351Y-68168791D01*
X150197851Y-68057291D01*
X150285456Y-67926181D01*
X150293427Y-67906934D01*
X150337267Y-67852532D01*
X150403561Y-67830466D01*
X150471260Y-67847744D01*
X150518872Y-67898880D01*
X150529607Y-67930197D01*
X150530263Y-67933498D01*
X150530264Y-67933501D01*
X150590602Y-68079172D01*
X150590609Y-68079185D01*
X150678210Y-68210288D01*
X150678213Y-68210292D01*
X150789707Y-68321786D01*
X150789711Y-68321789D01*
X150920814Y-68409390D01*
X150920827Y-68409397D01*
X151066498Y-68469735D01*
X151066503Y-68469737D01*
X151221153Y-68500499D01*
X151221156Y-68500500D01*
X151354866Y-68500500D01*
X151421905Y-68520185D01*
X151467660Y-68572989D01*
X151477604Y-68642147D01*
X151469427Y-68671950D01*
X151456397Y-68703409D01*
X151430263Y-68766502D01*
X151430261Y-68766510D01*
X151399500Y-68921153D01*
X151399500Y-69078846D01*
X151430261Y-69233489D01*
X151430264Y-69233501D01*
X151490602Y-69379172D01*
X151490609Y-69379185D01*
X151578210Y-69510288D01*
X151578213Y-69510292D01*
X151689707Y-69621786D01*
X151689711Y-69621789D01*
X151820814Y-69709390D01*
X151820827Y-69709397D01*
X151958683Y-69766498D01*
X151966503Y-69769737D01*
X152121153Y-69800499D01*
X152121156Y-69800500D01*
X152121158Y-69800500D01*
X152278844Y-69800500D01*
X152278845Y-69800499D01*
X152433497Y-69769737D01*
X152579179Y-69709394D01*
X152710289Y-69621789D01*
X152821789Y-69510289D01*
X152909394Y-69379179D01*
X152969737Y-69233497D01*
X152992083Y-69121158D01*
X152992084Y-69121153D01*
X162799500Y-69121153D01*
X162799500Y-69278846D01*
X162830261Y-69433489D01*
X162830264Y-69433501D01*
X162890602Y-69579172D01*
X162890609Y-69579185D01*
X162978210Y-69710288D01*
X162978213Y-69710292D01*
X163089707Y-69821786D01*
X163089711Y-69821789D01*
X163220814Y-69909390D01*
X163220827Y-69909397D01*
X163288885Y-69937587D01*
X163366503Y-69969737D01*
X163521153Y-70000499D01*
X163521156Y-70000500D01*
X163521158Y-70000500D01*
X163678844Y-70000500D01*
X163678845Y-70000499D01*
X163833497Y-69969737D01*
X163979179Y-69909394D01*
X164110289Y-69821789D01*
X164221789Y-69710289D01*
X164309394Y-69579179D01*
X164369737Y-69433497D01*
X164400500Y-69278842D01*
X164400500Y-69121158D01*
X164400500Y-69121155D01*
X164400499Y-69121153D01*
X164395359Y-69095312D01*
X164369737Y-68966503D01*
X164350955Y-68921158D01*
X164309397Y-68820827D01*
X164309390Y-68820814D01*
X164221789Y-68689711D01*
X164221786Y-68689707D01*
X164110292Y-68578213D01*
X164110288Y-68578210D01*
X163979185Y-68490609D01*
X163979172Y-68490602D01*
X163833501Y-68430264D01*
X163833489Y-68430261D01*
X163678845Y-68399500D01*
X163678842Y-68399500D01*
X163521158Y-68399500D01*
X163521155Y-68399500D01*
X163366510Y-68430261D01*
X163366498Y-68430264D01*
X163220827Y-68490602D01*
X163220814Y-68490609D01*
X163089711Y-68578210D01*
X163089707Y-68578213D01*
X162978213Y-68689707D01*
X162978210Y-68689711D01*
X162890609Y-68820814D01*
X162890602Y-68820827D01*
X162830264Y-68966498D01*
X162830261Y-68966510D01*
X162799500Y-69121153D01*
X152992084Y-69121153D01*
X152998107Y-69090875D01*
X152998107Y-69090874D01*
X153000500Y-69078844D01*
X153000500Y-68921155D01*
X153000499Y-68921153D01*
X152998159Y-68909390D01*
X152969737Y-68766503D01*
X152962140Y-68748161D01*
X152909397Y-68620827D01*
X152909390Y-68620814D01*
X152821789Y-68489711D01*
X152821786Y-68489707D01*
X152710292Y-68378213D01*
X152710288Y-68378210D01*
X152579185Y-68290609D01*
X152579172Y-68290602D01*
X152433501Y-68230264D01*
X152433489Y-68230261D01*
X152278845Y-68199500D01*
X152278842Y-68199500D01*
X152145134Y-68199500D01*
X152078095Y-68179815D01*
X152032340Y-68127011D01*
X152022396Y-68057853D01*
X152030573Y-68028047D01*
X152069737Y-67933497D01*
X152100500Y-67778842D01*
X152100500Y-67621158D01*
X152100500Y-67621155D01*
X152100499Y-67621153D01*
X152074531Y-67490606D01*
X152069737Y-67466503D01*
X152069735Y-67466498D01*
X152009532Y-67321153D01*
X159699500Y-67321153D01*
X159699500Y-67478846D01*
X159730261Y-67633489D01*
X159730264Y-67633501D01*
X159790602Y-67779172D01*
X159790609Y-67779185D01*
X159878210Y-67910288D01*
X159878213Y-67910292D01*
X159989707Y-68021786D01*
X159989711Y-68021789D01*
X160120814Y-68109390D01*
X160120827Y-68109397D01*
X160264212Y-68168788D01*
X160266503Y-68169737D01*
X160372690Y-68190859D01*
X160421153Y-68200499D01*
X160421156Y-68200500D01*
X160421158Y-68200500D01*
X160578844Y-68200500D01*
X160578845Y-68200499D01*
X160733497Y-68169737D01*
X160879179Y-68109394D01*
X161010289Y-68021789D01*
X161121789Y-67910289D01*
X161209394Y-67779179D01*
X161269737Y-67633497D01*
X161300500Y-67478842D01*
X161300500Y-67321158D01*
X161300500Y-67321155D01*
X161300499Y-67321153D01*
X161298978Y-67313505D01*
X161269737Y-67166503D01*
X161250955Y-67121158D01*
X161209397Y-67020827D01*
X161209390Y-67020814D01*
X161121789Y-66889711D01*
X161121786Y-66889707D01*
X161010292Y-66778213D01*
X161010288Y-66778210D01*
X160879185Y-66690609D01*
X160879172Y-66690602D01*
X160733501Y-66630264D01*
X160733489Y-66630261D01*
X160578845Y-66599500D01*
X160578842Y-66599500D01*
X160421158Y-66599500D01*
X160421155Y-66599500D01*
X160266510Y-66630261D01*
X160266498Y-66630264D01*
X160120827Y-66690602D01*
X160120814Y-66690609D01*
X159989711Y-66778210D01*
X159989707Y-66778213D01*
X159878213Y-66889707D01*
X159878210Y-66889711D01*
X159790609Y-67020814D01*
X159790602Y-67020827D01*
X159730264Y-67166498D01*
X159730261Y-67166510D01*
X159699500Y-67321153D01*
X152009532Y-67321153D01*
X152009397Y-67320827D01*
X152009390Y-67320814D01*
X151921789Y-67189711D01*
X151921786Y-67189707D01*
X151810292Y-67078213D01*
X151810288Y-67078210D01*
X151679185Y-66990609D01*
X151679172Y-66990602D01*
X151533501Y-66930264D01*
X151533489Y-66930261D01*
X151378845Y-66899500D01*
X151378842Y-66899500D01*
X151221158Y-66899500D01*
X151221155Y-66899500D01*
X151066510Y-66930261D01*
X151066498Y-66930264D01*
X150920827Y-66990602D01*
X150920814Y-66990609D01*
X150789711Y-67078210D01*
X150789707Y-67078213D01*
X150678213Y-67189707D01*
X150678210Y-67189711D01*
X150590609Y-67320814D01*
X150590604Y-67320823D01*
X150582632Y-67340070D01*
X150538789Y-67394472D01*
X150472494Y-67416535D01*
X150404795Y-67399254D01*
X150357186Y-67348115D01*
X150346454Y-67316802D01*
X150345799Y-67313505D01*
X150331443Y-67278846D01*
X150285459Y-67167829D01*
X150285452Y-67167816D01*
X150197851Y-67036713D01*
X150197848Y-67036709D01*
X150086354Y-66925215D01*
X150086350Y-66925212D01*
X149955247Y-66837611D01*
X149955234Y-66837604D01*
X149809563Y-66777266D01*
X149809551Y-66777263D01*
X149654907Y-66746502D01*
X149654904Y-66746502D01*
X149497220Y-66746502D01*
X149497217Y-66746502D01*
X149342572Y-66777263D01*
X149342560Y-66777266D01*
X149196889Y-66837604D01*
X149196876Y-66837611D01*
X149065773Y-66925212D01*
X149065769Y-66925215D01*
X148954275Y-67036709D01*
X148954272Y-67036713D01*
X148905267Y-67110054D01*
X148851654Y-67154859D01*
X148820980Y-67162835D01*
X148821073Y-67163301D01*
X148660451Y-67195251D01*
X148660439Y-67195254D01*
X148514768Y-67255592D01*
X148514755Y-67255599D01*
X148383652Y-67343200D01*
X148383648Y-67343203D01*
X148272154Y-67454697D01*
X148272151Y-67454701D01*
X148184550Y-67585804D01*
X148184543Y-67585817D01*
X148124205Y-67731488D01*
X148124202Y-67731500D01*
X148093441Y-67886143D01*
X148093441Y-68043836D01*
X148111935Y-68136812D01*
X148105708Y-68206404D01*
X148062845Y-68261581D01*
X147996955Y-68284825D01*
X147942866Y-68275564D01*
X147833501Y-68230264D01*
X147833489Y-68230261D01*
X147678845Y-68199500D01*
X147678842Y-68199500D01*
X147521158Y-68199500D01*
X147521155Y-68199500D01*
X147366510Y-68230261D01*
X147366498Y-68230264D01*
X147220827Y-68290602D01*
X147220814Y-68290609D01*
X147089711Y-68378210D01*
X147089707Y-68378213D01*
X146978213Y-68489707D01*
X146978210Y-68489711D01*
X146890609Y-68620814D01*
X146890602Y-68620827D01*
X146830264Y-68766498D01*
X146830261Y-68766510D01*
X146799500Y-68921153D01*
X146250790Y-68921153D01*
X146279179Y-68909394D01*
X146410289Y-68821789D01*
X146521789Y-68710289D01*
X146609394Y-68579179D01*
X146669737Y-68433497D01*
X146700500Y-68278842D01*
X146700500Y-68121158D01*
X146700500Y-68121155D01*
X146700499Y-68121153D01*
X146687908Y-68057853D01*
X146669737Y-67966503D01*
X146620546Y-67847744D01*
X146609397Y-67820827D01*
X146609390Y-67820814D01*
X146521789Y-67689711D01*
X146521786Y-67689707D01*
X146410292Y-67578213D01*
X146410288Y-67578210D01*
X146279185Y-67490609D01*
X146279172Y-67490602D01*
X146133501Y-67430264D01*
X146133489Y-67430261D01*
X145978845Y-67399500D01*
X145978842Y-67399500D01*
X145821158Y-67399500D01*
X145821155Y-67399500D01*
X145666510Y-67430261D01*
X145666498Y-67430264D01*
X145520827Y-67490602D01*
X145520814Y-67490609D01*
X145389711Y-67578210D01*
X145389707Y-67578213D01*
X145278213Y-67689707D01*
X145278210Y-67689711D01*
X145190609Y-67820814D01*
X145190602Y-67820827D01*
X145130264Y-67966498D01*
X145130261Y-67966510D01*
X145099500Y-68121153D01*
X130101220Y-68121153D01*
X130130500Y-67936287D01*
X130130500Y-67723713D01*
X130097246Y-67513757D01*
X130031557Y-67311588D01*
X129935051Y-67122184D01*
X129934302Y-67121153D01*
X139699500Y-67121153D01*
X139699500Y-67278846D01*
X139730261Y-67433489D01*
X139730264Y-67433501D01*
X139790602Y-67579172D01*
X139790609Y-67579185D01*
X139878210Y-67710288D01*
X139878213Y-67710292D01*
X139989707Y-67821786D01*
X139989711Y-67821789D01*
X140120814Y-67909390D01*
X140120827Y-67909397D01*
X140258683Y-67966498D01*
X140266503Y-67969737D01*
X140421153Y-68000499D01*
X140421156Y-68000500D01*
X140421158Y-68000500D01*
X140578844Y-68000500D01*
X140578845Y-68000499D01*
X140589179Y-67998443D01*
X140614287Y-67993450D01*
X140614292Y-67993449D01*
X140699800Y-67976439D01*
X140733497Y-67969737D01*
X140879179Y-67909394D01*
X141010289Y-67821789D01*
X141121789Y-67710289D01*
X141209394Y-67579179D01*
X141269737Y-67433497D01*
X141300500Y-67278842D01*
X141300500Y-67121158D01*
X141300500Y-67121155D01*
X141300499Y-67121153D01*
X141281848Y-67027389D01*
X141269737Y-66966503D01*
X141262988Y-66950209D01*
X141209397Y-66820827D01*
X141209390Y-66820814D01*
X141121789Y-66689711D01*
X141121786Y-66689707D01*
X141010292Y-66578213D01*
X141010288Y-66578210D01*
X140879185Y-66490609D01*
X140879172Y-66490602D01*
X140733501Y-66430264D01*
X140733489Y-66430261D01*
X140578845Y-66399500D01*
X140578842Y-66399500D01*
X140421158Y-66399500D01*
X140421155Y-66399500D01*
X140266510Y-66430261D01*
X140266498Y-66430264D01*
X140120827Y-66490602D01*
X140120814Y-66490609D01*
X139989711Y-66578210D01*
X139989707Y-66578213D01*
X139878213Y-66689707D01*
X139878210Y-66689711D01*
X139790609Y-66820814D01*
X139790602Y-66820827D01*
X139730264Y-66966498D01*
X139730261Y-66966510D01*
X139699500Y-67121153D01*
X129934302Y-67121153D01*
X129923836Y-67106748D01*
X129810109Y-66950213D01*
X129659786Y-66799890D01*
X129487817Y-66674949D01*
X129478504Y-66670204D01*
X129427707Y-66622230D01*
X129410912Y-66554409D01*
X129433449Y-66488274D01*
X129478507Y-66449232D01*
X129487555Y-66444622D01*
X129541716Y-66405270D01*
X129541717Y-66405270D01*
X128909408Y-65772962D01*
X128972993Y-65755925D01*
X129087007Y-65690099D01*
X129180099Y-65597007D01*
X129245925Y-65482993D01*
X129262962Y-65419409D01*
X129895270Y-66051717D01*
X129895270Y-66051716D01*
X129934622Y-65997554D01*
X129972945Y-65922343D01*
X130031095Y-65808217D01*
X130096757Y-65606130D01*
X130096757Y-65606127D01*
X130130000Y-65396246D01*
X130130000Y-65183752D01*
X130123833Y-65144814D01*
X130121725Y-65131504D01*
X143270000Y-65131504D01*
X143270000Y-65530000D01*
X143970000Y-65530000D01*
X143970000Y-66030000D01*
X143270000Y-66030000D01*
X143270000Y-66428494D01*
X143308427Y-66621681D01*
X143308430Y-66621693D01*
X143383807Y-66803671D01*
X143383814Y-66803684D01*
X143493248Y-66967462D01*
X143493251Y-66967466D01*
X143632533Y-67106748D01*
X143632537Y-67106751D01*
X143796315Y-67216185D01*
X143796328Y-67216192D01*
X143978308Y-67291569D01*
X144020000Y-67299862D01*
X144020000Y-66496988D01*
X144029940Y-66514205D01*
X144085795Y-66570060D01*
X144154204Y-66609556D01*
X144230504Y-66630000D01*
X144309496Y-66630000D01*
X144385796Y-66609556D01*
X144454205Y-66570060D01*
X144510060Y-66514205D01*
X144520000Y-66496988D01*
X144520000Y-67299862D01*
X144561690Y-67291569D01*
X144561692Y-67291569D01*
X144743671Y-67216192D01*
X144743684Y-67216185D01*
X144907462Y-67106751D01*
X144907466Y-67106748D01*
X145046748Y-66967466D01*
X145046751Y-66967462D01*
X145156185Y-66803684D01*
X145156192Y-66803671D01*
X145231569Y-66621693D01*
X145231572Y-66621681D01*
X145270000Y-66428494D01*
X145270000Y-66030000D01*
X144570000Y-66030000D01*
X144570000Y-65530000D01*
X145108216Y-65530000D01*
X145175255Y-65549685D01*
X145215602Y-65591999D01*
X145239485Y-65633365D01*
X145346635Y-65740515D01*
X145477865Y-65816281D01*
X145624234Y-65855500D01*
X145624236Y-65855500D01*
X145775764Y-65855500D01*
X145775766Y-65855500D01*
X145922135Y-65816281D01*
X146053365Y-65740515D01*
X146160515Y-65633365D01*
X146236281Y-65502135D01*
X146275500Y-65355766D01*
X146275500Y-65204234D01*
X146236281Y-65057865D01*
X146160515Y-64926635D01*
X146053365Y-64819485D01*
X145983406Y-64779094D01*
X145922137Y-64743720D01*
X145922136Y-64743719D01*
X145922135Y-64743719D01*
X145837917Y-64721153D01*
X147499500Y-64721153D01*
X147499500Y-64878846D01*
X147530261Y-65033489D01*
X147530264Y-65033501D01*
X147590602Y-65179172D01*
X147590609Y-65179185D01*
X147678210Y-65310288D01*
X147678213Y-65310292D01*
X147789707Y-65421786D01*
X147789711Y-65421789D01*
X147920814Y-65509390D01*
X147920827Y-65509397D01*
X148066498Y-65569735D01*
X148066503Y-65569737D01*
X148178426Y-65592000D01*
X148221153Y-65600499D01*
X148221156Y-65600500D01*
X148221158Y-65600500D01*
X148378844Y-65600500D01*
X148378845Y-65600499D01*
X148533497Y-65569737D01*
X148679179Y-65509394D01*
X148810289Y-65421789D01*
X148921789Y-65310289D01*
X148992653Y-65204234D01*
X150904500Y-65204234D01*
X150904500Y-65355766D01*
X150922190Y-65421786D01*
X150943719Y-65502136D01*
X150959807Y-65530000D01*
X151019485Y-65633365D01*
X151126635Y-65740515D01*
X151257865Y-65816281D01*
X151404234Y-65855500D01*
X151404236Y-65855500D01*
X151555763Y-65855500D01*
X151555766Y-65855500D01*
X151702135Y-65816281D01*
X151833365Y-65740515D01*
X151940515Y-65633365D01*
X151964397Y-65591999D01*
X152014964Y-65543784D01*
X152071784Y-65530000D01*
X152610000Y-65530000D01*
X152610000Y-66030000D01*
X151910000Y-66030000D01*
X151910000Y-66428494D01*
X151948427Y-66621681D01*
X151948430Y-66621693D01*
X152023807Y-66803671D01*
X152023814Y-66803684D01*
X152133248Y-66967462D01*
X152133251Y-66967466D01*
X152272533Y-67106748D01*
X152272537Y-67106751D01*
X152436315Y-67216185D01*
X152436328Y-67216192D01*
X152618308Y-67291569D01*
X152660000Y-67299862D01*
X152660000Y-66496988D01*
X152669940Y-66514205D01*
X152725795Y-66570060D01*
X152794204Y-66609556D01*
X152870504Y-66630000D01*
X152949496Y-66630000D01*
X153025796Y-66609556D01*
X153094205Y-66570060D01*
X153150060Y-66514205D01*
X153160000Y-66496988D01*
X153160000Y-67299862D01*
X153201690Y-67291569D01*
X153201692Y-67291569D01*
X153383671Y-67216192D01*
X153383683Y-67216185D01*
X153390002Y-67211964D01*
X153547462Y-67106751D01*
X153547466Y-67106748D01*
X153686748Y-66967466D01*
X153686751Y-66967462D01*
X153796185Y-66803684D01*
X153796192Y-66803671D01*
X153871569Y-66621693D01*
X153871572Y-66621681D01*
X153910000Y-66428494D01*
X153910000Y-66030000D01*
X153210000Y-66030000D01*
X153210000Y-65530000D01*
X153910000Y-65530000D01*
X153910000Y-65131508D01*
X153909999Y-65131504D01*
X153871572Y-64938318D01*
X153871569Y-64938306D01*
X153796192Y-64756328D01*
X153796185Y-64756315D01*
X153686751Y-64592537D01*
X153686748Y-64592533D01*
X153547466Y-64453251D01*
X153547462Y-64453248D01*
X153499429Y-64421153D01*
X162999500Y-64421153D01*
X162999500Y-64578846D01*
X163030261Y-64733489D01*
X163030264Y-64733501D01*
X163090602Y-64879172D01*
X163090609Y-64879185D01*
X163178210Y-65010288D01*
X163178213Y-65010292D01*
X163289707Y-65121786D01*
X163289711Y-65121789D01*
X163420814Y-65209390D01*
X163420827Y-65209397D01*
X163566498Y-65269735D01*
X163566503Y-65269737D01*
X163721153Y-65300499D01*
X163721156Y-65300500D01*
X163721158Y-65300500D01*
X163878844Y-65300500D01*
X163878845Y-65300499D01*
X164033497Y-65269737D01*
X164179179Y-65209394D01*
X164310289Y-65121789D01*
X164421789Y-65010289D01*
X164509394Y-64879179D01*
X164569737Y-64733497D01*
X164600500Y-64578842D01*
X164600500Y-64421158D01*
X164600500Y-64421155D01*
X164600499Y-64421153D01*
X164600432Y-64420814D01*
X164569737Y-64266503D01*
X164542398Y-64200500D01*
X164509397Y-64120827D01*
X164509390Y-64120814D01*
X164421789Y-63989711D01*
X164421786Y-63989707D01*
X164310292Y-63878213D01*
X164310288Y-63878210D01*
X164179185Y-63790609D01*
X164179172Y-63790602D01*
X164033501Y-63730264D01*
X164033489Y-63730261D01*
X163878845Y-63699500D01*
X163878842Y-63699500D01*
X163721158Y-63699500D01*
X163721155Y-63699500D01*
X163566510Y-63730261D01*
X163566498Y-63730264D01*
X163420827Y-63790602D01*
X163420814Y-63790609D01*
X163289711Y-63878210D01*
X163289707Y-63878213D01*
X163178213Y-63989707D01*
X163178210Y-63989711D01*
X163090609Y-64120814D01*
X163090602Y-64120827D01*
X163030264Y-64266498D01*
X163030261Y-64266510D01*
X162999500Y-64421153D01*
X153499429Y-64421153D01*
X153383684Y-64343814D01*
X153383671Y-64343807D01*
X153201691Y-64268429D01*
X153201683Y-64268427D01*
X153160000Y-64260135D01*
X153160000Y-65063011D01*
X153150060Y-65045795D01*
X153094205Y-64989940D01*
X153025796Y-64950444D01*
X152949496Y-64930000D01*
X152870504Y-64930000D01*
X152794204Y-64950444D01*
X152725795Y-64989940D01*
X152669940Y-65045795D01*
X152660000Y-65063011D01*
X152660000Y-64260136D01*
X152659999Y-64260135D01*
X152618316Y-64268427D01*
X152618308Y-64268429D01*
X152436328Y-64343807D01*
X152436315Y-64343814D01*
X152272537Y-64453248D01*
X152272533Y-64453251D01*
X152133251Y-64592533D01*
X152133248Y-64592537D01*
X152023814Y-64756315D01*
X152023809Y-64756324D01*
X152019866Y-64765845D01*
X151976023Y-64820247D01*
X151909728Y-64842310D01*
X151842030Y-64825029D01*
X151836597Y-64821351D01*
X151702136Y-64743719D01*
X151617924Y-64721155D01*
X151555766Y-64704500D01*
X151404234Y-64704500D01*
X151257863Y-64743719D01*
X151126635Y-64819485D01*
X151126632Y-64819487D01*
X151019487Y-64926632D01*
X151019485Y-64926635D01*
X150943719Y-65057863D01*
X150920421Y-65144814D01*
X150904500Y-65204234D01*
X148992653Y-65204234D01*
X149009394Y-65179179D01*
X149069737Y-65033497D01*
X149100500Y-64878842D01*
X149100500Y-64721158D01*
X149100500Y-64721155D01*
X149100499Y-64721153D01*
X149097186Y-64704500D01*
X149069737Y-64566503D01*
X149054900Y-64530682D01*
X149009397Y-64420827D01*
X149009390Y-64420814D01*
X148966850Y-64357149D01*
X148945972Y-64290472D01*
X148964456Y-64223092D01*
X149016435Y-64176401D01*
X149031994Y-64170359D01*
X149033494Y-64169737D01*
X149033497Y-64169737D01*
X149179179Y-64109394D01*
X149310289Y-64021789D01*
X149421789Y-63910289D01*
X149509394Y-63779179D01*
X149569737Y-63633497D01*
X149575894Y-63602547D01*
X149600499Y-63478846D01*
X149600500Y-63478844D01*
X149600500Y-63321155D01*
X149600499Y-63321153D01*
X149588019Y-63258412D01*
X149569737Y-63166503D01*
X149546689Y-63110859D01*
X149509397Y-63020827D01*
X149509390Y-63020814D01*
X149421789Y-62889711D01*
X149421786Y-62889707D01*
X149310292Y-62778213D01*
X149310288Y-62778210D01*
X149179185Y-62690609D01*
X149179172Y-62690602D01*
X149033501Y-62630264D01*
X149033489Y-62630261D01*
X148878845Y-62599500D01*
X148878842Y-62599500D01*
X148721158Y-62599500D01*
X148721155Y-62599500D01*
X148566510Y-62630261D01*
X148566498Y-62630264D01*
X148420827Y-62690602D01*
X148420814Y-62690609D01*
X148289711Y-62778210D01*
X148289707Y-62778213D01*
X148178213Y-62889707D01*
X148178210Y-62889711D01*
X148090609Y-63020814D01*
X148090602Y-63020827D01*
X148030264Y-63166498D01*
X148030261Y-63166510D01*
X147999500Y-63321153D01*
X147999500Y-63478846D01*
X148030261Y-63633488D01*
X148030264Y-63633501D01*
X148090602Y-63779172D01*
X148090609Y-63779185D01*
X148133149Y-63842850D01*
X148154027Y-63909528D01*
X148135542Y-63976908D01*
X148083564Y-64023598D01*
X148067987Y-64029647D01*
X147920827Y-64090602D01*
X147920814Y-64090609D01*
X147789711Y-64178210D01*
X147789707Y-64178213D01*
X147678213Y-64289707D01*
X147678210Y-64289711D01*
X147590609Y-64420814D01*
X147590602Y-64420827D01*
X147530264Y-64566498D01*
X147530261Y-64566510D01*
X147499500Y-64721153D01*
X145837917Y-64721153D01*
X145775766Y-64704500D01*
X145624234Y-64704500D01*
X145477863Y-64743719D01*
X145397704Y-64790000D01*
X145346635Y-64819485D01*
X145346633Y-64819486D01*
X145339597Y-64823549D01*
X145338327Y-64821349D01*
X145284995Y-64841960D01*
X145216552Y-64827914D01*
X145166568Y-64779094D01*
X145160131Y-64765838D01*
X145156192Y-64756328D01*
X145156185Y-64756315D01*
X145046751Y-64592537D01*
X145046748Y-64592533D01*
X144907466Y-64453251D01*
X144907462Y-64453248D01*
X144743684Y-64343814D01*
X144743671Y-64343807D01*
X144561691Y-64268429D01*
X144561683Y-64268427D01*
X144520000Y-64260135D01*
X144520000Y-65063011D01*
X144510060Y-65045795D01*
X144454205Y-64989940D01*
X144385796Y-64950444D01*
X144309496Y-64930000D01*
X144230504Y-64930000D01*
X144154204Y-64950444D01*
X144085795Y-64989940D01*
X144029940Y-65045795D01*
X144020000Y-65063011D01*
X144020000Y-64260136D01*
X144019999Y-64260135D01*
X143978316Y-64268427D01*
X143978308Y-64268429D01*
X143796328Y-64343807D01*
X143796315Y-64343814D01*
X143632537Y-64453248D01*
X143632533Y-64453251D01*
X143493251Y-64592533D01*
X143493248Y-64592537D01*
X143383814Y-64756315D01*
X143383807Y-64756328D01*
X143308430Y-64938306D01*
X143308427Y-64938318D01*
X143270000Y-65131504D01*
X130121725Y-65131504D01*
X130096757Y-64973872D01*
X130096757Y-64973869D01*
X130031095Y-64771782D01*
X129934624Y-64582449D01*
X129895270Y-64528282D01*
X129895269Y-64528282D01*
X129262962Y-65160590D01*
X129245925Y-65097007D01*
X129180099Y-64982993D01*
X129087007Y-64889901D01*
X128972993Y-64824075D01*
X128909409Y-64807037D01*
X129541716Y-64174728D01*
X129487547Y-64135373D01*
X129487547Y-64135372D01*
X129478500Y-64130763D01*
X129427706Y-64082788D01*
X129410912Y-64014966D01*
X129433451Y-63948832D01*
X129478508Y-63909793D01*
X129487816Y-63905051D01*
X129573429Y-63842850D01*
X129659786Y-63780109D01*
X129659788Y-63780106D01*
X129659792Y-63780104D01*
X129810104Y-63629792D01*
X129810106Y-63629788D01*
X129810109Y-63629786D01*
X129935048Y-63457820D01*
X129935047Y-63457820D01*
X129935051Y-63457816D01*
X130031557Y-63268412D01*
X130097246Y-63066243D01*
X130130500Y-62856287D01*
X130130500Y-62643713D01*
X130097246Y-62433757D01*
X130031557Y-62231588D01*
X129935051Y-62042184D01*
X129810104Y-61870208D01*
X129696116Y-61756220D01*
X129695713Y-61755809D01*
X129679525Y-61725459D01*
X129663084Y-61695350D01*
X129663129Y-61694719D01*
X129662831Y-61694161D01*
X129665616Y-61659931D01*
X129668068Y-61625658D01*
X129668447Y-61625150D01*
X129668499Y-61624521D01*
X129689340Y-61597242D01*
X129709940Y-61569725D01*
X129710667Y-61569327D01*
X129710917Y-61569001D01*
X129711951Y-61568626D01*
X129740915Y-61552810D01*
X129872331Y-61503796D01*
X129987546Y-61417546D01*
X130073796Y-61302331D01*
X130124091Y-61167483D01*
X130130500Y-61107873D01*
X130130500Y-61101504D01*
X143270000Y-61101504D01*
X143270000Y-61350000D01*
X143970000Y-61350000D01*
X143970000Y-61850000D01*
X143270000Y-61850000D01*
X143270000Y-62098495D01*
X143308427Y-62291681D01*
X143308430Y-62291693D01*
X143383807Y-62473671D01*
X143383814Y-62473684D01*
X143493248Y-62637462D01*
X143493251Y-62637466D01*
X143632533Y-62776748D01*
X143632537Y-62776751D01*
X143796315Y-62886185D01*
X143796328Y-62886192D01*
X143978308Y-62961569D01*
X144020000Y-62969862D01*
X144020000Y-62166988D01*
X144029940Y-62184205D01*
X144085795Y-62240060D01*
X144154204Y-62279556D01*
X144230504Y-62300000D01*
X144309496Y-62300000D01*
X144385796Y-62279556D01*
X144454205Y-62240060D01*
X144510060Y-62184205D01*
X144520000Y-62166988D01*
X144520000Y-62969862D01*
X144561690Y-62961569D01*
X144561692Y-62961569D01*
X144743671Y-62886192D01*
X144743684Y-62886185D01*
X144907462Y-62776751D01*
X144907466Y-62776748D01*
X145046748Y-62637466D01*
X145046751Y-62637462D01*
X145156185Y-62473684D01*
X145156192Y-62473671D01*
X145231569Y-62291693D01*
X145231572Y-62291681D01*
X145269999Y-62098495D01*
X145270000Y-62098492D01*
X145270000Y-61850000D01*
X144570000Y-61850000D01*
X144570000Y-61350000D01*
X145270000Y-61350000D01*
X145270000Y-61101508D01*
X145269999Y-61101504D01*
X151910000Y-61101504D01*
X151910000Y-61350000D01*
X152610000Y-61350000D01*
X152610000Y-61850000D01*
X151910000Y-61850000D01*
X151910000Y-62098495D01*
X151948427Y-62291681D01*
X151948430Y-62291693D01*
X152023807Y-62473671D01*
X152023814Y-62473684D01*
X152133248Y-62637462D01*
X152133251Y-62637466D01*
X152272533Y-62776748D01*
X152272537Y-62776751D01*
X152436315Y-62886185D01*
X152436328Y-62886192D01*
X152618308Y-62961569D01*
X152660000Y-62969862D01*
X152660000Y-62166988D01*
X152669940Y-62184205D01*
X152725795Y-62240060D01*
X152794204Y-62279556D01*
X152870504Y-62300000D01*
X152949496Y-62300000D01*
X153025796Y-62279556D01*
X153094205Y-62240060D01*
X153150060Y-62184205D01*
X153160000Y-62166988D01*
X153160000Y-62969862D01*
X153201690Y-62961569D01*
X153201692Y-62961569D01*
X153383671Y-62886192D01*
X153383684Y-62886185D01*
X153547462Y-62776751D01*
X153547466Y-62776748D01*
X153686748Y-62637466D01*
X153686751Y-62637462D01*
X153796185Y-62473684D01*
X153796192Y-62473671D01*
X153871569Y-62291693D01*
X153871572Y-62291681D01*
X153909999Y-62098495D01*
X153910000Y-62098492D01*
X153910000Y-61850000D01*
X153210000Y-61850000D01*
X153210000Y-61350000D01*
X153910000Y-61350000D01*
X153910000Y-61101508D01*
X153909999Y-61101504D01*
X153871572Y-60908318D01*
X153871570Y-60908310D01*
X153811192Y-60762545D01*
X153811181Y-60762518D01*
X153796187Y-60726319D01*
X153796185Y-60726315D01*
X153792736Y-60721153D01*
X163599500Y-60721153D01*
X163599500Y-60878846D01*
X163630261Y-61033489D01*
X163630264Y-61033501D01*
X163690602Y-61179172D01*
X163690609Y-61179185D01*
X163778210Y-61310288D01*
X163778213Y-61310292D01*
X163889707Y-61421786D01*
X163889711Y-61421789D01*
X164020814Y-61509390D01*
X164020827Y-61509397D01*
X164164726Y-61569001D01*
X164166503Y-61569737D01*
X164304779Y-61597242D01*
X164321153Y-61600499D01*
X164321156Y-61600500D01*
X164321158Y-61600500D01*
X164478844Y-61600500D01*
X164478845Y-61600499D01*
X164633497Y-61569737D01*
X164779179Y-61509394D01*
X164910289Y-61421789D01*
X165021789Y-61310289D01*
X165109394Y-61179179D01*
X165169737Y-61033497D01*
X165200500Y-60878842D01*
X165200500Y-60721158D01*
X165200500Y-60721155D01*
X165200499Y-60721153D01*
X165169738Y-60566510D01*
X165169737Y-60566503D01*
X165110401Y-60423251D01*
X165109397Y-60420827D01*
X165109390Y-60420814D01*
X165021789Y-60289711D01*
X165021786Y-60289707D01*
X164910292Y-60178213D01*
X164910288Y-60178210D01*
X164779185Y-60090609D01*
X164779172Y-60090602D01*
X164633501Y-60030264D01*
X164633489Y-60030261D01*
X164478845Y-59999500D01*
X164478842Y-59999500D01*
X164321158Y-59999500D01*
X164321155Y-59999500D01*
X164166510Y-60030261D01*
X164166498Y-60030264D01*
X164020827Y-60090602D01*
X164020814Y-60090609D01*
X163889711Y-60178210D01*
X163889707Y-60178213D01*
X163778213Y-60289707D01*
X163778210Y-60289711D01*
X163690609Y-60420814D01*
X163690602Y-60420827D01*
X163630264Y-60566498D01*
X163630261Y-60566510D01*
X163599500Y-60721153D01*
X153792736Y-60721153D01*
X153686751Y-60562537D01*
X153686748Y-60562533D01*
X153547466Y-60423251D01*
X153547462Y-60423248D01*
X153383684Y-60313814D01*
X153383671Y-60313807D01*
X153201691Y-60238429D01*
X153201683Y-60238427D01*
X153160000Y-60230135D01*
X153160000Y-61033011D01*
X153150060Y-61015795D01*
X153094205Y-60959940D01*
X153025796Y-60920444D01*
X152949496Y-60900000D01*
X152870504Y-60900000D01*
X152794204Y-60920444D01*
X152725795Y-60959940D01*
X152669940Y-61015795D01*
X152660000Y-61033011D01*
X152660000Y-60230136D01*
X152659999Y-60230135D01*
X152618316Y-60238427D01*
X152618308Y-60238429D01*
X152436328Y-60313807D01*
X152436315Y-60313814D01*
X152272537Y-60423248D01*
X152272533Y-60423251D01*
X152133251Y-60562533D01*
X152133248Y-60562537D01*
X152023814Y-60726315D01*
X152023807Y-60726328D01*
X151948430Y-60908306D01*
X151948427Y-60908318D01*
X151910000Y-61101504D01*
X145269999Y-61101504D01*
X145231572Y-60908318D01*
X145231569Y-60908306D01*
X145156192Y-60726328D01*
X145156185Y-60726315D01*
X145046751Y-60562537D01*
X145046748Y-60562533D01*
X144907466Y-60423251D01*
X144907462Y-60423248D01*
X144743684Y-60313814D01*
X144743671Y-60313807D01*
X144561691Y-60238429D01*
X144561683Y-60238427D01*
X144520000Y-60230135D01*
X144520000Y-61033011D01*
X144510060Y-61015795D01*
X144454205Y-60959940D01*
X144385796Y-60920444D01*
X144309496Y-60900000D01*
X144230504Y-60900000D01*
X144154204Y-60920444D01*
X144085795Y-60959940D01*
X144029940Y-61015795D01*
X144020000Y-61033011D01*
X144020000Y-60230136D01*
X144019999Y-60230135D01*
X143978316Y-60238427D01*
X143978308Y-60238429D01*
X143796328Y-60313807D01*
X143796315Y-60313814D01*
X143632537Y-60423248D01*
X143632533Y-60423251D01*
X143493251Y-60562533D01*
X143493248Y-60562537D01*
X143383814Y-60726315D01*
X143383807Y-60726328D01*
X143308430Y-60908306D01*
X143308427Y-60908318D01*
X143270000Y-61101504D01*
X130130500Y-61101504D01*
X130130499Y-59312128D01*
X130124091Y-59252517D01*
X130120361Y-59242517D01*
X130073797Y-59117671D01*
X130069546Y-59109886D01*
X130071021Y-59109080D01*
X130050234Y-59053345D01*
X130065086Y-58985072D01*
X130114492Y-58935667D01*
X130173918Y-58920500D01*
X166599415Y-58920500D01*
X166666454Y-58940185D01*
G37*
%TD.AperFunction*%
%TA.AperFunction,Conductor*%
G36*
X161424075Y-108592993D02*
G01*
X161489901Y-108707007D01*
X161582993Y-108800099D01*
X161697007Y-108865925D01*
X161760590Y-108882962D01*
X161128282Y-109515269D01*
X161128976Y-109524091D01*
X161157061Y-109560512D01*
X161163040Y-109630125D01*
X161130434Y-109691920D01*
X161069595Y-109726278D01*
X161041510Y-109729500D01*
X160199341Y-109729500D01*
X160132302Y-109709815D01*
X160086547Y-109657011D01*
X160076603Y-109587853D01*
X160105628Y-109524297D01*
X160126453Y-109505183D01*
X160229792Y-109430104D01*
X160380104Y-109279792D01*
X160380106Y-109279788D01*
X160380109Y-109279786D01*
X160465890Y-109161717D01*
X160505051Y-109107816D01*
X160509793Y-109098508D01*
X160557763Y-109047711D01*
X160625583Y-109030911D01*
X160691719Y-109053445D01*
X160730763Y-109098500D01*
X160735373Y-109107547D01*
X160774728Y-109161716D01*
X161407037Y-108529408D01*
X161424075Y-108592993D01*
G37*
%TD.AperFunction*%
%TA.AperFunction,Conductor*%
G36*
X169115269Y-104141716D02*
G01*
X169165771Y-104137742D01*
X169234148Y-104152106D01*
X169283905Y-104201157D01*
X169299500Y-104261360D01*
X169299500Y-105029366D01*
X169279815Y-105096405D01*
X169227011Y-105142160D01*
X169157853Y-105152104D01*
X169094297Y-105123079D01*
X169075182Y-105102251D01*
X169030109Y-105040214D01*
X169030105Y-105040209D01*
X168879786Y-104889890D01*
X168707817Y-104764949D01*
X168698504Y-104760204D01*
X168647707Y-104712230D01*
X168630912Y-104644409D01*
X168653449Y-104578274D01*
X168698507Y-104539232D01*
X168707555Y-104534622D01*
X168761716Y-104495270D01*
X168761717Y-104495270D01*
X168129408Y-103862962D01*
X168192993Y-103845925D01*
X168307007Y-103780099D01*
X168400099Y-103687007D01*
X168465925Y-103572993D01*
X168482962Y-103509408D01*
X169115269Y-104141716D01*
G37*
%TD.AperFunction*%
%TA.AperFunction,Conductor*%
G36*
X169261920Y-101641708D02*
G01*
X169296277Y-101702547D01*
X169299500Y-101730633D01*
X169299500Y-102498639D01*
X169279815Y-102565678D01*
X169227011Y-102611433D01*
X169165771Y-102622257D01*
X169115269Y-102618282D01*
X168482962Y-103250590D01*
X168465925Y-103187007D01*
X168400099Y-103072993D01*
X168307007Y-102979901D01*
X168192993Y-102914075D01*
X168129409Y-102897037D01*
X168761716Y-102264728D01*
X168707547Y-102225373D01*
X168707547Y-102225372D01*
X168698500Y-102220763D01*
X168647706Y-102172788D01*
X168630912Y-102104966D01*
X168653451Y-102038832D01*
X168698508Y-101999793D01*
X168707816Y-101995051D01*
X168792549Y-101933489D01*
X168879786Y-101870109D01*
X168879788Y-101870106D01*
X168879792Y-101870104D01*
X169030104Y-101719792D01*
X169075181Y-101657747D01*
X169130511Y-101615082D01*
X169200124Y-101609103D01*
X169261920Y-101641708D01*
G37*
%TD.AperFunction*%
%TA.AperFunction,Conductor*%
G36*
X128314075Y-101042993D02*
G01*
X128379901Y-101157007D01*
X128472993Y-101250099D01*
X128587007Y-101315925D01*
X128650590Y-101332962D01*
X128018282Y-101965269D01*
X128018282Y-101965270D01*
X128072452Y-102004626D01*
X128072451Y-102004626D01*
X128081495Y-102009234D01*
X128132292Y-102057208D01*
X128149087Y-102125029D01*
X128126550Y-102191164D01*
X128081499Y-102230202D01*
X128072182Y-102234949D01*
X127900213Y-102359890D01*
X127749894Y-102510209D01*
X127724818Y-102544724D01*
X127669487Y-102587389D01*
X127599874Y-102593368D01*
X127538079Y-102560762D01*
X127503722Y-102499923D01*
X127500500Y-102471838D01*
X127500500Y-101732933D01*
X127520185Y-101665894D01*
X127572989Y-101620139D01*
X127634231Y-101609315D01*
X127664729Y-101611715D01*
X128297037Y-100979408D01*
X128314075Y-101042993D01*
G37*
%TD.AperFunction*%
%TA.AperFunction,Conductor*%
G36*
X127705703Y-99134448D02*
G01*
X127724818Y-99155275D01*
X127742626Y-99179786D01*
X127749896Y-99189792D01*
X127900213Y-99340109D01*
X128072179Y-99465048D01*
X128072181Y-99465049D01*
X128072184Y-99465051D01*
X128081493Y-99469794D01*
X128132290Y-99517766D01*
X128149087Y-99585587D01*
X128126552Y-99651722D01*
X128081505Y-99690760D01*
X128072446Y-99695376D01*
X128072440Y-99695380D01*
X128018282Y-99734727D01*
X128018282Y-99734728D01*
X128650591Y-100367037D01*
X128587007Y-100384075D01*
X128472993Y-100449901D01*
X128379901Y-100542993D01*
X128314075Y-100657007D01*
X128297037Y-100720591D01*
X127664727Y-100088281D01*
X127634228Y-100090682D01*
X127565851Y-100076317D01*
X127516095Y-100027266D01*
X127500500Y-99967064D01*
X127500500Y-99228161D01*
X127520185Y-99161122D01*
X127572989Y-99115367D01*
X127642147Y-99105423D01*
X127705703Y-99134448D01*
G37*
%TD.AperFunction*%
%TA.AperFunction,Conductor*%
G36*
X169115269Y-78741716D02*
G01*
X169165771Y-78737742D01*
X169234148Y-78752106D01*
X169283905Y-78801157D01*
X169299500Y-78861360D01*
X169299500Y-79629366D01*
X169279815Y-79696405D01*
X169227011Y-79742160D01*
X169157853Y-79752104D01*
X169094297Y-79723079D01*
X169075182Y-79702251D01*
X169030109Y-79640214D01*
X169030105Y-79640209D01*
X168879786Y-79489890D01*
X168707817Y-79364949D01*
X168698504Y-79360204D01*
X168647707Y-79312230D01*
X168630912Y-79244409D01*
X168653449Y-79178274D01*
X168698507Y-79139232D01*
X168707555Y-79134622D01*
X168761716Y-79095270D01*
X168761717Y-79095270D01*
X168129408Y-78462962D01*
X168192993Y-78445925D01*
X168307007Y-78380099D01*
X168400099Y-78287007D01*
X168465925Y-78172993D01*
X168482962Y-78109408D01*
X169115269Y-78741716D01*
G37*
%TD.AperFunction*%
%TA.AperFunction,Conductor*%
G36*
X169261920Y-76241708D02*
G01*
X169296277Y-76302547D01*
X169299500Y-76330633D01*
X169299500Y-77098639D01*
X169279815Y-77165678D01*
X169227011Y-77211433D01*
X169165771Y-77222257D01*
X169115269Y-77218282D01*
X168482962Y-77850590D01*
X168465925Y-77787007D01*
X168400099Y-77672993D01*
X168307007Y-77579901D01*
X168192993Y-77514075D01*
X168129409Y-77497037D01*
X168761716Y-76864728D01*
X168707547Y-76825373D01*
X168707547Y-76825372D01*
X168698500Y-76820763D01*
X168647706Y-76772788D01*
X168630912Y-76704966D01*
X168653451Y-76638832D01*
X168698508Y-76599793D01*
X168707816Y-76595051D01*
X168787007Y-76537515D01*
X168879786Y-76470109D01*
X168879788Y-76470106D01*
X168879792Y-76470104D01*
X169030104Y-76319792D01*
X169075181Y-76257747D01*
X169130511Y-76215082D01*
X169200124Y-76209103D01*
X169261920Y-76241708D01*
G37*
%TD.AperFunction*%
%TA.AperFunction,Conductor*%
G36*
X128314075Y-65482993D02*
G01*
X128379901Y-65597007D01*
X128472993Y-65690099D01*
X128587007Y-65755925D01*
X128650590Y-65772962D01*
X128018282Y-66405269D01*
X128018282Y-66405270D01*
X128072452Y-66444626D01*
X128072451Y-66444626D01*
X128081495Y-66449234D01*
X128132292Y-66497208D01*
X128149087Y-66565029D01*
X128126550Y-66631164D01*
X128081499Y-66670202D01*
X128072182Y-66674949D01*
X127900213Y-66799890D01*
X127749894Y-66950209D01*
X127724818Y-66984724D01*
X127669487Y-67027389D01*
X127599874Y-67033368D01*
X127538079Y-67000762D01*
X127503722Y-66939923D01*
X127500500Y-66911838D01*
X127500500Y-66172933D01*
X127520185Y-66105894D01*
X127572989Y-66060139D01*
X127634231Y-66049315D01*
X127664729Y-66051715D01*
X128297037Y-65419408D01*
X128314075Y-65482993D01*
G37*
%TD.AperFunction*%
%TA.AperFunction,Conductor*%
G36*
X127705703Y-63574448D02*
G01*
X127724818Y-63595275D01*
X127742626Y-63619786D01*
X127749896Y-63629792D01*
X127900213Y-63780109D01*
X128072179Y-63905048D01*
X128072181Y-63905049D01*
X128072184Y-63905051D01*
X128081493Y-63909794D01*
X128132290Y-63957766D01*
X128149087Y-64025587D01*
X128126552Y-64091722D01*
X128081505Y-64130760D01*
X128072446Y-64135376D01*
X128072440Y-64135380D01*
X128018282Y-64174727D01*
X128018282Y-64174728D01*
X128650591Y-64807037D01*
X128587007Y-64824075D01*
X128472993Y-64889901D01*
X128379901Y-64982993D01*
X128314075Y-65097007D01*
X128297037Y-65160591D01*
X127664727Y-64528281D01*
X127634228Y-64530682D01*
X127565851Y-64516317D01*
X127516095Y-64467266D01*
X127500500Y-64407064D01*
X127500500Y-63668161D01*
X127520185Y-63601122D01*
X127572989Y-63555367D01*
X127642147Y-63545423D01*
X127705703Y-63574448D01*
G37*
%TD.AperFunction*%
%TD*%
M02*
