%TF.GenerationSoftware,KiCad,Pcbnew,10.0.4*%
%TF.CreationDate,2026-08-18T22:30:30+03:00*%
%TF.ProjectId,MDC,4d44432e-6b69-4636-9164-5f7063625858,rev?*%
%TF.SameCoordinates,Original*%
%TF.FileFunction,Soldermask,Bot*%
%TF.FilePolarity,Negative*%
%FSLAX46Y46*%
G04 Gerber Fmt 4.6, Leading zero omitted, Abs format (unit mm)*
G04 Created by KiCad (PCBNEW 10.0.4) date 2026-08-18 22:30:30*
%MOMM*%
%LPD*%
G01*
G04 APERTURE LIST*
%ADD10R,1.700000X1.700000*%
%ADD11C,1.700000*%
%ADD12C,0.650000*%
%ADD13O,1.000000X2.100000*%
%ADD14O,1.000000X1.800000*%
G04 APERTURE END LIST*
D10*
%TO.C,J4*%
X168000000Y-60200000D03*
D11*
X168000000Y-62740000D03*
X168000000Y-65280000D03*
X168000000Y-67820000D03*
X168000000Y-70360000D03*
X168000000Y-72900000D03*
X168000000Y-75440000D03*
X168000000Y-77980000D03*
X168000000Y-80520000D03*
X168000000Y-83060000D03*
X168000000Y-85600000D03*
X168000000Y-88140000D03*
X168000000Y-90680000D03*
X168000000Y-93220000D03*
X168000000Y-95760000D03*
X168000000Y-98300000D03*
X168000000Y-100840000D03*
X168000000Y-103380000D03*
X168000000Y-105920000D03*
X168000000Y-108460000D03*
%TD*%
D10*
%TO.C,J3*%
X128780000Y-60210000D03*
D11*
X128780000Y-62750000D03*
X128780000Y-65290000D03*
X128780000Y-67830000D03*
X128780000Y-70370000D03*
X128780000Y-72910000D03*
X128780000Y-75450000D03*
X128780000Y-77990000D03*
X128780000Y-80530000D03*
X128780000Y-83070000D03*
X128780000Y-85610000D03*
X128780000Y-88150000D03*
X128780000Y-90690000D03*
X128780000Y-93230000D03*
X128780000Y-95770000D03*
X128780000Y-98310000D03*
X128780000Y-100850000D03*
X128780000Y-103390000D03*
X128780000Y-105930000D03*
X128780000Y-108470000D03*
%TD*%
D12*
%TO.C,J1*%
X151480000Y-65280000D03*
X145700000Y-65280000D03*
D13*
X152910000Y-65780000D03*
D14*
X152910000Y-61600000D03*
D13*
X144270000Y-65780000D03*
D14*
X144270000Y-61600000D03*
%TD*%
D10*
%TO.C,J2*%
X156810000Y-108400000D03*
D11*
X159350000Y-108400000D03*
X161890000Y-108400000D03*
%TD*%
M02*
