%TF.GenerationSoftware,KiCad,Pcbnew,10.0.4*%
%TF.CreationDate,2026-08-18T22:30:30+03:00*%
%TF.ProjectId,MDC,4d44432e-6b69-4636-9164-5f7063625858,rev?*%
%TF.SameCoordinates,Original*%
%TF.FileFunction,Copper,L1,Top*%
%TF.FilePolarity,Positive*%
%FSLAX46Y46*%
G04 Gerber Fmt 4.6, Leading zero omitted, Abs format (unit mm)*
G04 Created by KiCad (PCBNEW 10.0.4) date 2026-08-18 22:30:30*
%MOMM*%
%LPD*%
G01*
G04 APERTURE LIST*
G04 Aperture macros list*
%AMRoundRect*
0 Rectangle with rounded corners*
0 $1 Rounding radius*
0 $2 $3 $4 $5 $6 $7 $8 $9 X,Y pos of 4 corners*
0 Add a 4 corners polygon primitive as box body*
4,1,4,$2,$3,$4,$5,$6,$7,$8,$9,$2,$3,0*
0 Add four circle primitives for the rounded corners*
1,1,$1+$1,$2,$3*
1,1,$1+$1,$4,$5*
1,1,$1+$1,$6,$7*
1,1,$1+$1,$8,$9*
0 Add four rect primitives between the rounded corners*
20,1,$1+$1,$2,$3,$4,$5,0*
20,1,$1+$1,$4,$5,$6,$7,0*
20,1,$1+$1,$6,$7,$8,$9,0*
20,1,$1+$1,$8,$9,$2,$3,0*%
G04 Aperture macros list end*
%TA.AperFunction,ComponentPad*%
%ADD10R,1.700000X1.700000*%
%TD*%
%TA.AperFunction,ComponentPad*%
%ADD11C,1.700000*%
%TD*%
%TA.AperFunction,SMDPad,CuDef*%
%ADD12RoundRect,0.250000X-0.350000X0.450000X-0.350000X-0.450000X0.350000X-0.450000X0.350000X0.450000X0*%
%TD*%
%TA.AperFunction,SMDPad,CuDef*%
%ADD13RoundRect,0.225000X-0.250000X0.225000X-0.250000X-0.225000X0.250000X-0.225000X0.250000X0.225000X0*%
%TD*%
%TA.AperFunction,SMDPad,CuDef*%
%ADD14RoundRect,0.200000X0.275000X-0.200000X0.275000X0.200000X-0.275000X0.200000X-0.275000X-0.200000X0*%
%TD*%
%TA.AperFunction,SMDPad,CuDef*%
%ADD15RoundRect,0.150000X-0.512500X-0.150000X0.512500X-0.150000X0.512500X0.150000X-0.512500X0.150000X0*%
%TD*%
%TA.AperFunction,SMDPad,CuDef*%
%ADD16RoundRect,0.050000X-0.387500X-0.050000X0.387500X-0.050000X0.387500X0.050000X-0.387500X0.050000X0*%
%TD*%
%TA.AperFunction,SMDPad,CuDef*%
%ADD17RoundRect,0.050000X-0.050000X-0.387500X0.050000X-0.387500X0.050000X0.387500X-0.050000X0.387500X0*%
%TD*%
%TA.AperFunction,HeatsinkPad*%
%ADD18R,3.200000X3.200000*%
%TD*%
%TA.AperFunction,SMDPad,CuDef*%
%ADD19RoundRect,0.162500X0.162500X-0.650000X0.162500X0.650000X-0.162500X0.650000X-0.162500X-0.650000X0*%
%TD*%
%TA.AperFunction,SMDPad,CuDef*%
%ADD20RoundRect,0.225000X0.250000X-0.225000X0.250000X0.225000X-0.250000X0.225000X-0.250000X-0.225000X0*%
%TD*%
%TA.AperFunction,SMDPad,CuDef*%
%ADD21RoundRect,0.150000X0.150000X0.425000X-0.150000X0.425000X-0.150000X-0.425000X0.150000X-0.425000X0*%
%TD*%
%TA.AperFunction,SMDPad,CuDef*%
%ADD22RoundRect,0.075000X0.075000X0.500000X-0.075000X0.500000X-0.075000X-0.500000X0.075000X-0.500000X0*%
%TD*%
%TA.AperFunction,ComponentPad*%
%ADD23O,1.000000X2.100000*%
%TD*%
%TA.AperFunction,ComponentPad*%
%ADD24O,1.000000X1.800000*%
%TD*%
%TA.AperFunction,SMDPad,CuDef*%
%ADD25RoundRect,0.200000X-0.275000X0.200000X-0.275000X-0.200000X0.275000X-0.200000X0.275000X0.200000X0*%
%TD*%
%TA.AperFunction,SMDPad,CuDef*%
%ADD26RoundRect,0.200000X0.200000X0.275000X-0.200000X0.275000X-0.200000X-0.275000X0.200000X-0.275000X0*%
%TD*%
%TA.AperFunction,SMDPad,CuDef*%
%ADD27RoundRect,0.218750X-0.218750X-0.256250X0.218750X-0.256250X0.218750X0.256250X-0.218750X0.256250X0*%
%TD*%
%TA.AperFunction,SMDPad,CuDef*%
%ADD28RoundRect,0.225000X-0.225000X-0.250000X0.225000X-0.250000X0.225000X0.250000X-0.225000X0.250000X0*%
%TD*%
%TA.AperFunction,SMDPad,CuDef*%
%ADD29R,1.000000X1.700000*%
%TD*%
%TA.AperFunction,SMDPad,CuDef*%
%ADD30RoundRect,0.200000X-0.200000X-0.275000X0.200000X-0.275000X0.200000X0.275000X-0.200000X0.275000X0*%
%TD*%
%TA.AperFunction,SMDPad,CuDef*%
%ADD31RoundRect,0.150000X0.150000X-0.512500X0.150000X0.512500X-0.150000X0.512500X-0.150000X-0.512500X0*%
%TD*%
%TA.AperFunction,ViaPad*%
%ADD32C,0.600000*%
%TD*%
%TA.AperFunction,Conductor*%
%ADD33C,0.750000*%
%TD*%
%TA.AperFunction,Conductor*%
%ADD34C,0.600000*%
%TD*%
%TA.AperFunction,Conductor*%
%ADD35C,0.500000*%
%TD*%
%TA.AperFunction,Conductor*%
%ADD36C,0.200000*%
%TD*%
G04 APERTURE END LIST*
D10*
%TO.P,J4,1,Pin_1_1*%
%TO.N,+5V*%
X168000000Y-60200000D03*
D11*
%TO.P,J4,2,Pin_2_2*%
%TO.N,+3.3V*%
X168000000Y-62740000D03*
%TO.P,J4,3,Pin_3_3*%
%TO.N,/GPIO29*%
X168000000Y-65280000D03*
%TO.P,J4,4,Pin_4_4*%
%TO.N,/GPIO28*%
X168000000Y-67820000D03*
%TO.P,J4,5,Pin_5_5*%
%TO.N,/GPIO27*%
X168000000Y-70360000D03*
%TO.P,J4,6,Pin_6_6*%
%TO.N,/GPIO26*%
X168000000Y-72900000D03*
%TO.P,J4,7,Pin_7_7*%
%TO.N,/GPIO25*%
X168000000Y-75440000D03*
%TO.P,J4,8,Pin_8_8*%
%TO.N,GND*%
X168000000Y-77980000D03*
%TO.P,J4,9,Pin_9_9*%
%TO.N,/GPIO24*%
X168000000Y-80520000D03*
%TO.P,J4,10,Pin_10_10*%
%TO.N,/GPIO23*%
X168000000Y-83060000D03*
%TO.P,J4,11,Pin_11_11*%
%TO.N,/GPIO22*%
X168000000Y-85600000D03*
%TO.P,J4,12,Pin_12_12*%
%TO.N,/GPIO21*%
X168000000Y-88140000D03*
%TO.P,J4,13,Pin_13_13*%
%TO.N,/GPIO20*%
X168000000Y-90680000D03*
%TO.P,J4,14,Pin_14_14*%
%TO.N,/GPIO19*%
X168000000Y-93220000D03*
%TO.P,J4,15,Pin_15_15*%
%TO.N,/GPIO18*%
X168000000Y-95760000D03*
%TO.P,J4,16,Pin_16_16*%
%TO.N,/GPIO17*%
X168000000Y-98300000D03*
%TO.P,J4,17,Pin_17_17*%
%TO.N,/GPIO16*%
X168000000Y-100840000D03*
%TO.P,J4,18,Pin_18_18*%
%TO.N,GND*%
X168000000Y-103380000D03*
%TO.P,J4,19,Pin_19_19*%
%TO.N,+3.3V*%
X168000000Y-105920000D03*
%TO.P,J4,20,Pin_20_20*%
%TO.N,+5V*%
X168000000Y-108460000D03*
%TD*%
D12*
%TO.P,Y1,1,1_1*%
%TO.N,Net-(U1-XIN)*%
X146450000Y-96250000D03*
%TO.P,Y1,2,G_2*%
%TO.N,GND*%
X146450000Y-98450000D03*
%TO.P,Y1,3,3_3*%
%TO.N,Net-(U1-XOUT)*%
X148150000Y-98450000D03*
%TO.P,Y1,4,G_4*%
%TO.N,GND*%
X148150000Y-96250000D03*
%TD*%
D13*
%TO.P,C5,1*%
%TO.N,GND*%
X150300000Y-97025000D03*
%TO.P,C5,2*%
%TO.N,Net-(U1-XOUT)*%
X150300000Y-98575000D03*
%TD*%
D10*
%TO.P,J3,1,Pin_1_1*%
%TO.N,+5V*%
X128780000Y-60210000D03*
D11*
%TO.P,J3,2,Pin_2_2*%
%TO.N,+3.3V*%
X128780000Y-62750000D03*
%TO.P,J3,3,Pin_3_3*%
%TO.N,GND*%
X128780000Y-65290000D03*
%TO.P,J3,4,Pin_4_4*%
%TO.N,/GPIO0*%
X128780000Y-67830000D03*
%TO.P,J3,5,Pin_5_5*%
%TO.N,/GPIO1*%
X128780000Y-70370000D03*
%TO.P,J3,6,Pin_6_6*%
%TO.N,/GPIO2*%
X128780000Y-72910000D03*
%TO.P,J3,7,Pin_7_7*%
%TO.N,/GPIO3*%
X128780000Y-75450000D03*
%TO.P,J3,8,Pin_8_8*%
%TO.N,/GPIO4*%
X128780000Y-77990000D03*
%TO.P,J3,9,Pin_9_9*%
%TO.N,/GPIO5*%
X128780000Y-80530000D03*
%TO.P,J3,10,Pin_10_10*%
%TO.N,/GPIO6*%
X128780000Y-83070000D03*
%TO.P,J3,11,Pin_11_11*%
%TO.N,/GPIO7*%
X128780000Y-85610000D03*
%TO.P,J3,12,Pin_12_12*%
%TO.N,/GPIO8*%
X128780000Y-88150000D03*
%TO.P,J3,13,Pin_13_13*%
%TO.N,/GPIO9*%
X128780000Y-90690000D03*
%TO.P,J3,14,Pin_14_14*%
%TO.N,/GPIO10*%
X128780000Y-93230000D03*
%TO.P,J3,15,Pin_15_15*%
%TO.N,/GPIO11*%
X128780000Y-95770000D03*
%TO.P,J3,16,Pin_16_16*%
%TO.N,/GPIO12*%
X128780000Y-98310000D03*
%TO.P,J3,17,Pin_17_17*%
%TO.N,GND*%
X128780000Y-100850000D03*
%TO.P,J3,18,Pin_18_18*%
%TO.N,/GPIO13*%
X128780000Y-103390000D03*
%TO.P,J3,19,Pin_19_19*%
%TO.N,/GPIO14*%
X128780000Y-105930000D03*
%TO.P,J3,20,Pin_20_20*%
%TO.N,/GPIO15*%
X128780000Y-108470000D03*
%TD*%
D14*
%TO.P,R2,1*%
%TO.N,/USB_DM*%
X161290000Y-75565000D03*
%TO.P,R2,2*%
%TO.N,Net-(R2-Pad2)*%
X161290000Y-73915000D03*
%TD*%
D15*
%TO.P,U3,1,VIN_1*%
%TO.N,+5V*%
X136525000Y-73025000D03*
%TO.P,U3,2,GND_2*%
%TO.N,GND*%
X136525000Y-73975000D03*
%TO.P,U3,3,EN_3*%
%TO.N,+5V*%
X136525000Y-74925000D03*
%TO.P,U3,4,NC_4*%
%TO.N,unconnected-(U3-NC-Pad4)*%
X138800000Y-74925000D03*
%TO.P,U3,5,VOUT_5*%
%TO.N,+3.3V*%
X138800000Y-73025000D03*
%TD*%
D13*
%TO.P,C2,1*%
%TO.N,GND*%
X154700000Y-78925000D03*
%TO.P,C2,2*%
%TO.N,+3.3V*%
X154700000Y-80475000D03*
%TD*%
D16*
%TO.P,U1,1,IOVDD_1*%
%TO.N,+3.3V*%
X145762500Y-87197500D03*
%TO.P,U1,2,GPIO0_2*%
%TO.N,/GPIO0*%
X145762500Y-87597500D03*
%TO.P,U1,3,GPIO1_3*%
%TO.N,/GPIO1*%
X145762500Y-87997500D03*
%TO.P,U1,4,GPIO2_4*%
%TO.N,/GPIO2*%
X145762500Y-88397500D03*
%TO.P,U1,5,GPIO3_5*%
%TO.N,/GPIO3*%
X145762500Y-88797500D03*
%TO.P,U1,6,GPIO4_6*%
%TO.N,/GPIO4*%
X145762500Y-89197500D03*
%TO.P,U1,7,GPIO5_7*%
%TO.N,/GPIO5*%
X145762500Y-89597500D03*
%TO.P,U1,8,GPIO6_8*%
%TO.N,/GPIO6*%
X145762500Y-89997500D03*
%TO.P,U1,9,GPIO7_9*%
%TO.N,/GPIO7*%
X145762500Y-90397500D03*
%TO.P,U1,10,IOVDD_10*%
%TO.N,+3.3V*%
X145762500Y-90797500D03*
%TO.P,U1,11,GPIO8_11*%
%TO.N,/GPIO8*%
X145762500Y-91197500D03*
%TO.P,U1,12,GPIO9_12*%
%TO.N,/GPIO9*%
X145762500Y-91597500D03*
%TO.P,U1,13,GPIO10_13*%
%TO.N,/GPIO10*%
X145762500Y-91997500D03*
%TO.P,U1,14,GPIO11_14*%
%TO.N,/GPIO11*%
X145762500Y-92397500D03*
D17*
%TO.P,U1,15,GPIO12_15*%
%TO.N,/GPIO12*%
X146600000Y-93235000D03*
%TO.P,U1,16,GPIO13_16*%
%TO.N,/GPIO13*%
X147000000Y-93235000D03*
%TO.P,U1,17,GPIO14_17*%
%TO.N,/GPIO14*%
X147400000Y-93235000D03*
%TO.P,U1,18,GPIO15_18*%
%TO.N,/GPIO15*%
X147800000Y-93235000D03*
%TO.P,U1,19,TESTEN_19*%
%TO.N,GND*%
X148200000Y-93235000D03*
%TO.P,U1,20,XIN_20*%
%TO.N,Net-(U1-XIN)*%
X148600000Y-93235000D03*
%TO.P,U1,21,XOUT_21*%
%TO.N,Net-(U1-XOUT)*%
X149000000Y-93235000D03*
%TO.P,U1,22,IOVDD_22*%
%TO.N,+3.3V*%
X149400000Y-93235000D03*
%TO.P,U1,23,DVDD_23*%
%TO.N,/+1V1*%
X149800000Y-93235000D03*
%TO.P,U1,24,SWCLK_24*%
%TO.N,/SWCLK*%
X150200000Y-93235000D03*
%TO.P,U1,25,SWDIO_25*%
%TO.N,/SWDIO*%
X150600000Y-93235000D03*
%TO.P,U1,26,RUN_26*%
%TO.N,Net-(U1-RUN)*%
X151000000Y-93235000D03*
%TO.P,U1,27,GPIO16_27*%
%TO.N,/GPIO16*%
X151400000Y-93235000D03*
%TO.P,U1,28,GPIO17_28*%
%TO.N,/GPIO17*%
X151800000Y-93235000D03*
D16*
%TO.P,U1,29,GPIO18_29*%
%TO.N,/GPIO18*%
X152637500Y-92397500D03*
%TO.P,U1,30,GPIO19_30*%
%TO.N,/GPIO19*%
X152637500Y-91997500D03*
%TO.P,U1,31,GPIO20_31*%
%TO.N,/GPIO20*%
X152637500Y-91597500D03*
%TO.P,U1,32,GPIO21_32*%
%TO.N,/GPIO21*%
X152637500Y-91197500D03*
%TO.P,U1,33,IOVDD_33*%
%TO.N,+3.3V*%
X152637500Y-90797500D03*
%TO.P,U1,34,GPIO22_34*%
%TO.N,/GPIO22*%
X152637500Y-90397500D03*
%TO.P,U1,35,GPIO23_35*%
%TO.N,/GPIO23*%
X152637500Y-89997500D03*
%TO.P,U1,36,GPIO24_36*%
%TO.N,/GPIO24*%
X152637500Y-89597500D03*
%TO.P,U1,37,GPIO25_37*%
%TO.N,/GPIO25*%
X152637500Y-89197500D03*
%TO.P,U1,38,GPIO26/ADC0_38*%
%TO.N,/GPIO26*%
X152637500Y-88797500D03*
%TO.P,U1,39,GPIO27/ADC1_39*%
%TO.N,/GPIO27*%
X152637500Y-88397500D03*
%TO.P,U1,40,GPIO28/ADC2_40*%
%TO.N,/GPIO28*%
X152637500Y-87997500D03*
%TO.P,U1,41,GPIO29/ADC3_41*%
%TO.N,/GPIO29*%
X152637500Y-87597500D03*
%TO.P,U1,42,IOVDD_42*%
%TO.N,+3.3V*%
X152637500Y-87197500D03*
D17*
%TO.P,U1,43,ADC_AVDD_43*%
X151800000Y-86360000D03*
%TO.P,U1,44,VREG_VIN_44*%
X151400000Y-86360000D03*
%TO.P,U1,45,VREG_VOUT_45*%
%TO.N,/+1V1*%
X151000000Y-86360000D03*
%TO.P,U1,46,USB_DM_46*%
%TO.N,/USB_DM*%
X150600000Y-86360000D03*
%TO.P,U1,47,USB_DP_47*%
%TO.N,/USB_DP*%
X150200000Y-86360000D03*
%TO.P,U1,48,USB_VDD_48*%
%TO.N,+3.3V*%
X149800000Y-86360000D03*
%TO.P,U1,49,IOVDD_49*%
X149400000Y-86360000D03*
%TO.P,U1,50,DVDD_50*%
%TO.N,/+1V1*%
X149000000Y-86360000D03*
%TO.P,U1,51,QSPI_SD3_51*%
%TO.N,/QSPI_SD3*%
X148600000Y-86360000D03*
%TO.P,U1,52,QSPI_SCLK_52*%
%TO.N,/QSPI_SCLK*%
X148200000Y-86360000D03*
%TO.P,U1,53,QSPI_SD0_53*%
%TO.N,/QSPI_SD0*%
X147800000Y-86360000D03*
%TO.P,U1,54,QSPI_SD2_54*%
%TO.N,/QSPI_SD2*%
X147400000Y-86360000D03*
%TO.P,U1,55,QSPI_SD1_55*%
%TO.N,/QSPI_SD1*%
X147000000Y-86360000D03*
%TO.P,U1,56,~{QSPI_SS}_56*%
%TO.N,/QSPI_SS_N*%
X146600000Y-86360000D03*
D18*
%TO.P,U1,57,GND_57*%
%TO.N,GND*%
X149200000Y-89797500D03*
%TD*%
D13*
%TO.P,C13,1*%
%TO.N,/+1V1*%
X153035000Y-81000000D03*
%TO.P,C13,2*%
%TO.N,GND*%
X153035000Y-82550000D03*
%TD*%
D19*
%TO.P,U2,1,~{CS}_1*%
%TO.N,/QSPI_SS_N*%
X145415000Y-81692500D03*
%TO.P,U2,2,DO/IO_{1}_2*%
%TO.N,/QSPI_SD1*%
X146685000Y-81692500D03*
%TO.P,U2,3,~{WP}/IO_{2}_3*%
%TO.N,/QSPI_SD2*%
X147955000Y-81692500D03*
%TO.P,U2,4,GND_4*%
%TO.N,GND*%
X149225000Y-81692500D03*
%TO.P,U2,5,DI/IO_{0}_5*%
%TO.N,/QSPI_SD0*%
X149225000Y-74517500D03*
%TO.P,U2,6,CLK_6*%
%TO.N,/QSPI_SCLK*%
X147955000Y-74517500D03*
%TO.P,U2,7,~{HOLD}/~{RESET}/IO_{3}_7*%
%TO.N,/QSPI_SD3*%
X146685000Y-74517500D03*
%TO.P,U2,8,VCC_8*%
%TO.N,+3.3V*%
X145415000Y-74517500D03*
%TD*%
D20*
%TO.P,C4,1*%
%TO.N,GND*%
X144000000Y-98375000D03*
%TO.P,C4,2*%
%TO.N,Net-(U1-XIN)*%
X144000000Y-96825000D03*
%TD*%
D21*
%TO.P,J1,A1,GND_A1*%
%TO.N,GND*%
X151790000Y-66355000D03*
%TO.P,J1,A4,VBUS_A4*%
%TO.N,+5V*%
X150990000Y-66355000D03*
D22*
%TO.P,J1,A5,CC1_A5*%
%TO.N,Net-(J1-CC1)*%
X149840000Y-66355000D03*
%TO.P,J1,A6,D+_A6*%
%TO.N,/USB_CONN_DP*%
X148840000Y-66355000D03*
%TO.P,J1,A7,D-_A7*%
%TO.N,/USB_CONN_DM*%
X148340000Y-66355000D03*
%TO.P,J1,A8,SBU1_A8*%
%TO.N,unconnected-(J1-SBU1-PadA8)*%
X147340000Y-66355000D03*
D21*
%TO.P,J1,A9,VBUS_A9*%
%TO.N,+5V*%
X146190000Y-66355000D03*
%TO.P,J1,A12,GND_A12*%
%TO.N,GND*%
X145390000Y-66355000D03*
%TO.P,J1,B1,GND_B1*%
X145390000Y-66355000D03*
%TO.P,J1,B4,VBUS_B4*%
%TO.N,+5V*%
X146190000Y-66355000D03*
D22*
%TO.P,J1,B5,CC2_B5*%
%TO.N,Net-(J1-CC2)*%
X146840000Y-66355000D03*
%TO.P,J1,B6,D+_B6*%
%TO.N,/USB_CONN_DP*%
X147840000Y-66355000D03*
%TO.P,J1,B7,D-_B7*%
%TO.N,/USB_CONN_DM*%
X149340000Y-66355000D03*
%TO.P,J1,B8,SBU2_B8*%
%TO.N,unconnected-(J1-SBU2-PadB8)*%
X150340000Y-66355000D03*
D21*
%TO.P,J1,B9,VBUS_B9*%
%TO.N,+5V*%
X150990000Y-66355000D03*
%TO.P,J1,B12,GND_B12*%
%TO.N,GND*%
X151790000Y-66355000D03*
D23*
%TO.P,J1,SH,SHIELD_SH*%
X152910000Y-65780000D03*
D24*
X152910000Y-61600000D03*
D23*
X144270000Y-65780000D03*
D24*
X144270000Y-61600000D03*
%TD*%
D13*
%TO.P,C6,1*%
%TO.N,GND*%
X156300000Y-82925000D03*
%TO.P,C6,2*%
%TO.N,+3.3V*%
X156300000Y-84475000D03*
%TD*%
D20*
%TO.P,C12,1*%
%TO.N,+3.3V*%
X154500000Y-86375000D03*
%TO.P,C12,2*%
%TO.N,GND*%
X154500000Y-84825000D03*
%TD*%
D25*
%TO.P,R1,1*%
%TO.N,Net-(R1-Pad1)*%
X153670000Y-73915000D03*
%TO.P,R1,2*%
%TO.N,/USB_DP*%
X153670000Y-75565000D03*
%TD*%
D10*
%TO.P,J2,1,Pin_1_1*%
%TO.N,/SWCLK*%
X156810000Y-108400000D03*
D11*
%TO.P,J2,2,Pin_2_2*%
%TO.N,/SWDIO*%
X159350000Y-108400000D03*
%TO.P,J2,3,Pin_3_3*%
%TO.N,GND*%
X161890000Y-108400000D03*
%TD*%
D26*
%TO.P,R6,1*%
%TO.N,+3.3V*%
X162597500Y-69215000D03*
%TO.P,R6,2*%
%TO.N,Net-(D1-A)*%
X160947500Y-69215000D03*
%TD*%
D27*
%TO.P,D1,1,K_1*%
%TO.N,GND*%
X157175000Y-69215000D03*
%TO.P,D1,2,A_2*%
%TO.N,Net-(D1-A)*%
X158750000Y-69215000D03*
%TD*%
D20*
%TO.P,C3,1*%
%TO.N,/+1V1*%
X153035000Y-79375000D03*
%TO.P,C3,2*%
%TO.N,GND*%
X153035000Y-77825000D03*
%TD*%
D27*
%TO.P,D2,1,K_1*%
%TO.N,GND*%
X138277500Y-69215000D03*
%TO.P,D2,2,A_2*%
%TO.N,Net-(D2-A)*%
X139852500Y-69215000D03*
%TD*%
D28*
%TO.P,C1,1*%
%TO.N,+3.3V*%
X148525000Y-71100000D03*
%TO.P,C1,2*%
%TO.N,GND*%
X150075000Y-71100000D03*
%TD*%
D29*
%TO.P,SW1,1,1_1*%
%TO.N,GND*%
X136530000Y-66015000D03*
X136530000Y-59715000D03*
%TO.P,SW1,2,2_2*%
%TO.N,Net-(R5-Pad1)*%
X140330000Y-66015000D03*
X140330000Y-59715000D03*
%TD*%
D30*
%TO.P,R4,1*%
%TO.N,Net-(J1-CC1)*%
X153480000Y-68580000D03*
%TO.P,R4,2*%
%TO.N,GND*%
X155130000Y-68580000D03*
%TD*%
D20*
%TO.P,C14,1*%
%TO.N,+5V*%
X135900000Y-71275000D03*
%TO.P,C14,2*%
%TO.N,GND*%
X135900000Y-69725000D03*
%TD*%
D31*
%TO.P,U4,1,I/O1_1*%
%TO.N,/USB_CONN_DP*%
X156210000Y-76645000D03*
%TO.P,U4,2,GND_2*%
%TO.N,GND*%
X157160000Y-76645000D03*
%TO.P,U4,3,I/O2_3*%
%TO.N,/USB_CONN_DM*%
X158110000Y-76645000D03*
%TO.P,U4,4,I/O2_4*%
%TO.N,Net-(R2-Pad2)*%
X158110000Y-74370000D03*
%TO.P,U4,5,VBUS_5*%
%TO.N,+5V*%
X157160000Y-74370000D03*
%TO.P,U4,6,I/O1_6*%
%TO.N,Net-(R1-Pad1)*%
X156210000Y-74370000D03*
%TD*%
D26*
%TO.P,R8,1*%
%TO.N,+3.3V*%
X164325000Y-59690000D03*
%TO.P,R8,2*%
%TO.N,Net-(U1-RUN)*%
X162675000Y-59690000D03*
%TD*%
D13*
%TO.P,C15,1*%
%TO.N,+3.3V*%
X140900000Y-73025000D03*
%TO.P,C15,2*%
%TO.N,GND*%
X140900000Y-74575000D03*
%TD*%
D26*
%TO.P,R3,1*%
%TO.N,Net-(J1-CC2)*%
X146875000Y-71120000D03*
%TO.P,R3,2*%
%TO.N,GND*%
X145225000Y-71120000D03*
%TD*%
D30*
%TO.P,R7,1*%
%TO.N,Net-(D2-A)*%
X142050000Y-69215000D03*
%TO.P,R7,2*%
%TO.N,/GPIO25*%
X143700000Y-69215000D03*
%TD*%
D29*
%TO.P,SW2,1,1_1*%
%TO.N,Net-(U1-RUN)*%
X160650000Y-59715000D03*
X160650000Y-66015000D03*
%TO.P,SW2,2,2_2*%
%TO.N,GND*%
X156850000Y-59715000D03*
X156850000Y-66015000D03*
%TD*%
D25*
%TO.P,R5,1*%
%TO.N,Net-(R5-Pad1)*%
X142800000Y-74075000D03*
%TO.P,R5,2*%
%TO.N,/QSPI_SS_N*%
X142800000Y-75725000D03*
%TD*%
D32*
%TO.N,+5V*%
X147600000Y-69000000D03*
X142600000Y-70700000D03*
X137300000Y-76200000D03*
X163400000Y-101700000D03*
X133300000Y-71900000D03*
X162500000Y-71900000D03*
X151300000Y-67700000D03*
X145900000Y-68200000D03*
X152200000Y-69000000D03*
X163800000Y-64500000D03*
%TO.N,+3.3V*%
X148500000Y-72200000D03*
X146600000Y-90797500D03*
X139200000Y-72100000D03*
X156000000Y-78500000D03*
X164400000Y-60800000D03*
X156500000Y-90597500D03*
X149600000Y-85300000D03*
X163600000Y-69200000D03*
X152900000Y-85600000D03*
X145700000Y-85700000D03*
X144400000Y-73800000D03*
X149200000Y-92000000D03*
%TO.N,/GPIO25*%
X151755031Y-89200000D03*
X143700000Y-70000000D03*
%TO.N,GND*%
X150100000Y-72200000D03*
X157100000Y-77900000D03*
X140900000Y-75700000D03*
X155200000Y-67400000D03*
X145200000Y-69900000D03*
X145200000Y-99900000D03*
X154300000Y-77800000D03*
X149600000Y-95700000D03*
X136200000Y-68500000D03*
X154800000Y-60300000D03*
X135200000Y-74000000D03*
X148200000Y-91900000D03*
X151200000Y-80200000D03*
%TO.N,/USB_DM*%
X150800000Y-83300000D03*
X159086863Y-77491962D03*
%TO.N,/+1V1*%
X151966765Y-80633235D03*
X151600000Y-82200000D03*
%TO.N,Net-(U1-RUN)*%
X151000000Y-92297500D03*
X160500000Y-67400000D03*
%TO.N,/USB_DP*%
X150700000Y-79300000D03*
X150200000Y-84100000D03*
%TO.N,/QSPI_SD3*%
X146700000Y-75700000D03*
X149043761Y-84233479D03*
%TO.N,/QSPI_SCLK*%
X147800000Y-75700000D03*
X148600000Y-83567837D03*
%TO.N,/QSPI_SD0*%
X149200000Y-75600000D03*
X148000000Y-83005000D03*
%TO.N,/USB_CONN_DP*%
X148893941Y-67964990D03*
X155500000Y-76500000D03*
%TO.N,/USB_CONN_DM*%
X148300000Y-64800000D03*
X159200000Y-76700000D03*
X149576062Y-67547002D03*
X148800000Y-63400000D03*
%TO.N,Net-(R5-Pad1)*%
X140500000Y-67200000D03*
X142800000Y-72800000D03*
%TD*%
%TO.N,+5V*%
D33*
X157160000Y-71840000D02*
X157160000Y-74370000D01*
D34*
X146190000Y-66355000D02*
X146190000Y-67910000D01*
D33*
X133300000Y-70200000D02*
X134800000Y-71700000D01*
D34*
X146190000Y-67910000D02*
X145900000Y-68200000D01*
D33*
X152200000Y-69000000D02*
X147600000Y-69000000D01*
X164850000Y-107050000D02*
X164850000Y-103150000D01*
D35*
X150990000Y-67390000D02*
X151300000Y-67700000D01*
D33*
X138850000Y-70700000D02*
X142600000Y-70700000D01*
X137300000Y-75700000D02*
X136525000Y-74925000D01*
X136525000Y-73025000D02*
X138850000Y-70700000D01*
X134800000Y-73000000D02*
X134825000Y-73025000D01*
X135225000Y-71275000D02*
X135900000Y-71275000D01*
X168000000Y-108460000D02*
X166260000Y-108460000D01*
X157200000Y-71800000D02*
X157160000Y-71840000D01*
X163800000Y-64500000D02*
X163800000Y-64400000D01*
X132210000Y-60210000D02*
X133300000Y-61300000D01*
X133300000Y-61300000D02*
X133300000Y-70200000D01*
X163800000Y-64400000D02*
X168000000Y-60200000D01*
X162440000Y-71840000D02*
X157160000Y-71840000D01*
X134800000Y-71700000D02*
X134800000Y-73000000D01*
X128780000Y-60210000D02*
X132210000Y-60210000D01*
X157200000Y-71300000D02*
X157200000Y-71800000D01*
X162500000Y-71900000D02*
X162440000Y-71840000D01*
X137300000Y-76200000D02*
X137300000Y-75700000D01*
X164850000Y-103150000D02*
X163400000Y-101700000D01*
X133300000Y-70200000D02*
X133300000Y-71900000D01*
X166260000Y-108460000D02*
X164850000Y-107050000D01*
X152200000Y-69000000D02*
X154500000Y-71300000D01*
X134800000Y-71700000D02*
X135225000Y-71275000D01*
D35*
X150990000Y-66355000D02*
X150990000Y-67390000D01*
D33*
X154500000Y-71300000D02*
X157200000Y-71300000D01*
X134825000Y-73025000D02*
X136525000Y-73025000D01*
%TO.N,+3.3V*%
D36*
X151400000Y-86360000D02*
X151800000Y-86360000D01*
X154500000Y-86375000D02*
X155325000Y-86375000D01*
X148500000Y-71125000D02*
X148525000Y-71100000D01*
X139200000Y-72100000D02*
X139200000Y-72625000D01*
X149400000Y-92200000D02*
X149400000Y-93235000D01*
X149600000Y-85300000D02*
X149600000Y-86160000D01*
X139200000Y-72625000D02*
X138800000Y-73025000D01*
X151800000Y-86360000D02*
X152140000Y-86360000D01*
X140125000Y-73025000D02*
X139200000Y-72100000D01*
X155325000Y-86375000D02*
X156300000Y-85400000D01*
X162597500Y-69215000D02*
X163585000Y-69215000D01*
X144400000Y-73800000D02*
X144697500Y-73800000D01*
X156500000Y-90597500D02*
X156300000Y-90797500D01*
X152637500Y-87197500D02*
X152637500Y-85862500D01*
X149400000Y-86360000D02*
X149800000Y-86360000D01*
X140900000Y-73025000D02*
X140125000Y-73025000D01*
X148500000Y-72200000D02*
X148500000Y-71125000D01*
X144697500Y-73800000D02*
X145415000Y-74517500D01*
X145762500Y-87197500D02*
X145762500Y-85762500D01*
X146600000Y-90797500D02*
X145762500Y-90797500D01*
X152900000Y-85600000D02*
X153725000Y-85600000D01*
X152637500Y-85862500D02*
X152900000Y-85600000D01*
X163585000Y-69215000D02*
X163600000Y-69200000D01*
X145762500Y-85762500D02*
X145700000Y-85700000D01*
X152140000Y-86360000D02*
X152900000Y-85600000D01*
X156300000Y-85400000D02*
X156300000Y-84475000D01*
X156300000Y-90797500D02*
X152637500Y-90797500D01*
X164400000Y-60800000D02*
X164400000Y-59765000D01*
X156000000Y-79175000D02*
X156000000Y-78500000D01*
X154700000Y-80475000D02*
X156000000Y-79175000D01*
X153725000Y-85600000D02*
X154500000Y-86375000D01*
X164400000Y-59765000D02*
X164325000Y-59690000D01*
X149600000Y-86160000D02*
X149400000Y-86360000D01*
X149200000Y-92000000D02*
X149400000Y-92200000D01*
%TO.N,/GPIO29*%
X157654314Y-84880000D02*
X157654314Y-81548629D01*
X165300000Y-67980000D02*
X168000000Y-65280000D01*
X154691670Y-87597500D02*
X155172014Y-87117157D01*
X157654314Y-81548629D02*
X158401472Y-80801472D01*
X155417157Y-87117157D02*
X157654314Y-84880000D01*
X152637500Y-87597500D02*
X154691670Y-87597500D01*
X165300000Y-73902942D02*
X165300000Y-67980000D01*
X158401472Y-80801472D02*
X165300000Y-73902942D01*
X155172014Y-87117157D02*
X155417157Y-87117157D01*
%TO.N,/GPIO28*%
X165700000Y-74068628D02*
X165700000Y-70120000D01*
X165700000Y-70120000D02*
X168000000Y-67820000D01*
X152637500Y-87997500D02*
X154857355Y-87997500D01*
X158054314Y-85045686D02*
X158054314Y-81714315D01*
X155502500Y-87597500D02*
X158054314Y-85045686D01*
X158054314Y-81714315D02*
X165700000Y-74068628D01*
X154857355Y-87997500D02*
X155257356Y-87597500D01*
X155257356Y-87597500D02*
X155502500Y-87597500D01*
%TO.N,/GPIO27*%
X158454314Y-81880001D02*
X158454314Y-85314314D01*
X166100000Y-72260000D02*
X166100000Y-74234314D01*
X155023041Y-88397500D02*
X152637500Y-88397500D01*
X168000000Y-70360000D02*
X166100000Y-72260000D01*
X158454314Y-85314314D02*
X155771128Y-87997500D01*
X166100000Y-74234314D02*
X158454314Y-81880001D01*
X155423041Y-87997500D02*
X155023041Y-88397500D01*
X155771128Y-87997500D02*
X155423041Y-87997500D01*
%TO.N,/GPIO26*%
X168000000Y-72900000D02*
X158900000Y-82000000D01*
X155188727Y-88797500D02*
X152637500Y-88797500D01*
X158900000Y-85434314D02*
X155936814Y-88397500D01*
X155588727Y-88397500D02*
X155188727Y-88797500D01*
X155936814Y-88397500D02*
X155588727Y-88397500D01*
X158900000Y-82000000D02*
X158900000Y-85434314D01*
%TO.N,/GPIO25*%
X151757531Y-89197500D02*
X152637500Y-89197500D01*
X156102500Y-88797500D02*
X155754413Y-88797500D01*
X155754413Y-88797500D02*
X155354413Y-89197500D01*
X155354413Y-89197500D02*
X153171360Y-89197500D01*
X143700000Y-69215000D02*
X143700000Y-70000000D01*
X167523654Y-76830000D02*
X166850000Y-77503654D01*
X153171360Y-89197500D02*
X152637500Y-89197500D01*
X168000000Y-75440000D02*
X168000000Y-76830000D01*
X168000000Y-76830000D02*
X167523654Y-76830000D01*
X151755031Y-89200000D02*
X151757531Y-89197500D01*
X166850000Y-78050000D02*
X156102500Y-88797500D01*
X166850000Y-77503654D02*
X166850000Y-78050000D01*
%TO.N,GND*%
X155130000Y-68580000D02*
X156540000Y-68580000D01*
X135225000Y-73975000D02*
X135200000Y-74000000D01*
X144000000Y-98700000D02*
X144000000Y-98375000D01*
X136530000Y-66015000D02*
X136530000Y-68170000D01*
X136915000Y-69215000D02*
X136200000Y-68500000D01*
X156585000Y-66015000D02*
X155200000Y-67400000D01*
X154300000Y-78525000D02*
X154700000Y-78925000D01*
X156540000Y-68580000D02*
X157175000Y-69215000D01*
X154300000Y-77800000D02*
X153060000Y-77800000D01*
X154500000Y-84825000D02*
X154500000Y-84725000D01*
X136530000Y-66015000D02*
X136530000Y-59715000D01*
X155130000Y-67470000D02*
X155200000Y-67400000D01*
X151200000Y-80200000D02*
X151200000Y-80715000D01*
X149200000Y-89797500D02*
X149200000Y-90900000D01*
X153035000Y-82550000D02*
X153035000Y-83360000D01*
X145200000Y-99900000D02*
X145200000Y-99700000D01*
X149200000Y-90900000D02*
X148200000Y-91900000D01*
X150717500Y-80200000D02*
X151200000Y-80200000D01*
X156850000Y-66015000D02*
X156585000Y-66015000D01*
X145225000Y-69925000D02*
X145200000Y-69900000D01*
X145200000Y-99900000D02*
X144000000Y-98700000D01*
X157100000Y-76705000D02*
X157160000Y-76645000D01*
X150100000Y-71125000D02*
X150075000Y-71100000D01*
X148150000Y-96250000D02*
X149050000Y-96250000D01*
X154500000Y-84725000D02*
X156300000Y-82925000D01*
X153060000Y-77800000D02*
X153035000Y-77825000D01*
X150100000Y-72200000D02*
X150200000Y-72200000D01*
X155385000Y-59715000D02*
X154800000Y-60300000D01*
X157100000Y-77900000D02*
X157100000Y-76705000D01*
X140900000Y-75700000D02*
X140900000Y-74575000D01*
X145225000Y-71120000D02*
X145225000Y-69925000D01*
X138277500Y-69215000D02*
X136915000Y-69215000D01*
X156850000Y-59715000D02*
X155385000Y-59715000D01*
X151790000Y-66355000D02*
X152335000Y-66355000D01*
X136915000Y-69215000D02*
X136405000Y-69725000D01*
X136405000Y-69725000D02*
X135900000Y-69725000D01*
X152335000Y-66355000D02*
X152910000Y-65780000D01*
X151200000Y-80715000D02*
X153035000Y-82550000D01*
X150100000Y-72200000D02*
X150100000Y-71125000D01*
X153035000Y-83360000D02*
X154500000Y-84825000D01*
X150300000Y-97025000D02*
X150300000Y-96400000D01*
X148200000Y-91900000D02*
X148200000Y-93235000D01*
X136530000Y-68170000D02*
X136200000Y-68500000D01*
X145200000Y-99700000D02*
X146450000Y-98450000D01*
X144845000Y-66355000D02*
X144270000Y-65780000D01*
X154300000Y-77800000D02*
X154300000Y-78525000D01*
X145390000Y-66355000D02*
X144845000Y-66355000D01*
X136525000Y-73975000D02*
X135225000Y-73975000D01*
X149225000Y-81692500D02*
X150717500Y-80200000D01*
X149050000Y-96250000D02*
X149600000Y-95700000D01*
X150300000Y-96400000D02*
X149600000Y-95700000D01*
X155130000Y-68580000D02*
X155130000Y-67470000D01*
%TO.N,/GPIO24*%
X168000000Y-80520000D02*
X159322500Y-89197500D01*
X153337045Y-89597500D02*
X152637500Y-89597500D01*
X155920099Y-89197500D02*
X155520099Y-89597500D01*
X155520099Y-89597500D02*
X153337045Y-89597500D01*
X159322500Y-89197500D02*
X155920099Y-89197500D01*
%TO.N,/GPIO23*%
X156085785Y-89597500D02*
X155685785Y-89997500D01*
X153171360Y-89997500D02*
X152637500Y-89997500D01*
X155685785Y-89997500D02*
X153171360Y-89997500D01*
X161462500Y-89597500D02*
X156085785Y-89597500D01*
X168000000Y-83060000D02*
X161462500Y-89597500D01*
%TO.N,/GPIO22*%
X156251471Y-89997500D02*
X155851471Y-90397500D01*
X163602500Y-89997500D02*
X156251471Y-89997500D01*
X155851471Y-90397500D02*
X152637500Y-90397500D01*
X168000000Y-85600000D02*
X163602500Y-89997500D01*
%TO.N,/GPIO21*%
X168000000Y-88140000D02*
X164942500Y-91197500D01*
X164942500Y-91197500D02*
X152637500Y-91197500D01*
%TO.N,/GPIO20*%
X168000000Y-90680000D02*
X167082500Y-91597500D01*
X167082500Y-91597500D02*
X152637500Y-91597500D01*
%TO.N,/GPIO19*%
X166777500Y-91997500D02*
X152637500Y-91997500D01*
X168000000Y-93220000D02*
X166777500Y-91997500D01*
%TO.N,/GPIO18*%
X164637500Y-92397500D02*
X152637500Y-92397500D01*
X168000000Y-95760000D02*
X164637500Y-92397500D01*
%TO.N,/GPIO17*%
X168000000Y-98300000D02*
X158765686Y-98300000D01*
X151800000Y-93934314D02*
X151800000Y-93235000D01*
X154432843Y-93967157D02*
X151832843Y-93967157D01*
X158765686Y-98300000D02*
X154432843Y-93967157D01*
X151832843Y-93967157D02*
X151800000Y-93934314D01*
%TO.N,/GPIO16*%
X151400000Y-94100000D02*
X151400000Y-93235000D01*
X168000000Y-100840000D02*
X160740000Y-100840000D01*
X160740000Y-100840000D02*
X154800000Y-94900000D01*
X154800000Y-94900000D02*
X152200000Y-94900000D01*
X152200000Y-94900000D02*
X151400000Y-94100000D01*
%TO.N,Net-(U1-XIN)*%
X147731371Y-95200000D02*
X148600000Y-94331371D01*
X146450000Y-96250000D02*
X147500000Y-95200000D01*
X145875000Y-96825000D02*
X146450000Y-96250000D01*
X144000000Y-96825000D02*
X145875000Y-96825000D01*
X148600000Y-94331371D02*
X148600000Y-93235000D01*
X147500000Y-95200000D02*
X147731371Y-95200000D01*
%TO.N,Net-(U1-XOUT)*%
X149000000Y-94300000D02*
X149000000Y-93235000D01*
X151075000Y-96326471D02*
X149048529Y-94300000D01*
X151075000Y-97800000D02*
X151075000Y-96326471D01*
X148275000Y-98575000D02*
X148150000Y-98450000D01*
X149048529Y-94300000D02*
X149000000Y-94300000D01*
X150300000Y-98575000D02*
X151075000Y-97800000D01*
X150300000Y-98575000D02*
X150075000Y-98575000D01*
X150300000Y-98575000D02*
X148275000Y-98575000D01*
%TO.N,/GPIO0*%
X144900000Y-85924314D02*
X144900000Y-87597500D01*
X129930000Y-68980000D02*
X129930000Y-70954314D01*
X129930000Y-70954314D02*
X144900000Y-85924314D01*
X128780000Y-67830000D02*
X129930000Y-68980000D01*
X144900000Y-87597500D02*
X145762500Y-87597500D01*
%TO.N,/GPIO1*%
X128780000Y-70370000D02*
X144167843Y-85757843D01*
X144167843Y-85757843D02*
X144167843Y-87732157D01*
X144433186Y-87997500D02*
X145762500Y-87997500D01*
X144167843Y-87732157D02*
X144433186Y-87997500D01*
%TO.N,/GPIO2*%
X144267500Y-88397500D02*
X145762500Y-88397500D01*
X128780000Y-72910000D02*
X144267500Y-88397500D01*
%TO.N,/GPIO3*%
X142127500Y-88797500D02*
X145762500Y-88797500D01*
X128780000Y-75450000D02*
X142127500Y-88797500D01*
%TO.N,/GPIO4*%
X128780000Y-77990000D02*
X139987500Y-89197500D01*
X139987500Y-89197500D02*
X145762500Y-89197500D01*
%TO.N,/GPIO5*%
X137847500Y-89597500D02*
X145762500Y-89597500D01*
X128780000Y-80530000D02*
X137847500Y-89597500D01*
%TO.N,/GPIO6*%
X135707500Y-89997500D02*
X145762500Y-89997500D01*
X128780000Y-83070000D02*
X135707500Y-89997500D01*
%TO.N,/GPIO7*%
X133567500Y-90397500D02*
X145762500Y-90397500D01*
X128780000Y-85610000D02*
X133567500Y-90397500D01*
%TO.N,/GPIO8*%
X131827500Y-91197500D02*
X145762500Y-91197500D01*
X128780000Y-88150000D02*
X131827500Y-91197500D01*
%TO.N,/GPIO9*%
X128780000Y-90690000D02*
X129687500Y-91597500D01*
X129687500Y-91597500D02*
X145762500Y-91597500D01*
%TO.N,/GPIO10*%
X128780000Y-93230000D02*
X130012500Y-91997500D01*
X130012500Y-91997500D02*
X145762500Y-91997500D01*
%TO.N,/GPIO11*%
X132152500Y-92397500D02*
X145762500Y-92397500D01*
X128780000Y-95770000D02*
X132152500Y-92397500D01*
%TO.N,/GPIO12*%
X128780000Y-98310000D02*
X139192943Y-98310000D01*
X144265000Y-93235000D02*
X146600000Y-93235000D01*
X139192943Y-98310000D02*
X143702943Y-93800000D01*
X143702943Y-93797057D02*
X144265000Y-93235000D01*
X143702943Y-93800000D02*
X143702943Y-93797057D01*
%TO.N,/GPIO13*%
X128780000Y-103390000D02*
X134678628Y-103390000D01*
X144068628Y-94000000D02*
X147000000Y-94000000D01*
X147000000Y-94000000D02*
X147000000Y-93235000D01*
X134678628Y-103390000D02*
X144068628Y-94000000D01*
%TO.N,/GPIO14*%
X132704314Y-105930000D02*
X144234314Y-94400000D01*
X147400000Y-94400000D02*
X147400000Y-93235000D01*
X144234314Y-94400000D02*
X147400000Y-94400000D01*
X128780000Y-105930000D02*
X132704314Y-105930000D01*
%TO.N,/GPIO15*%
X147565685Y-94800000D02*
X147800000Y-94565685D01*
X130730000Y-108470000D02*
X144400000Y-94800000D01*
X128780000Y-108470000D02*
X130730000Y-108470000D01*
X144400000Y-94800000D02*
X147565685Y-94800000D01*
X147800000Y-94565685D02*
X147800000Y-93235000D01*
%TO.N,/USB_DM*%
X150600000Y-84548529D02*
X150800000Y-84348529D01*
X150600000Y-86360000D02*
X150600000Y-84548529D01*
X150800000Y-84348529D02*
X150800000Y-83300000D01*
X159086863Y-77491962D02*
X159363038Y-77491962D01*
X159363038Y-77491962D02*
X161290000Y-75565000D01*
%TO.N,Net-(R2-Pad2)*%
X158565000Y-73915000D02*
X161290000Y-73915000D01*
X158110000Y-74370000D02*
X158565000Y-73915000D01*
%TO.N,/+1V1*%
X151100000Y-91697500D02*
X149800000Y-91697500D01*
X151000000Y-85800000D02*
X151600000Y-85200000D01*
X149000000Y-86893860D02*
X149951568Y-87845428D01*
X149800000Y-91697500D02*
X149800000Y-93235000D01*
X149951568Y-87845428D02*
X151155031Y-87845428D01*
X151000000Y-86360000D02*
X151000000Y-85800000D01*
X151000000Y-87690397D02*
X151155031Y-87845428D01*
X151000000Y-86360000D02*
X151000000Y-87690397D01*
X151600000Y-85200000D02*
X151600000Y-82200000D01*
X151155031Y-87845428D02*
X151155031Y-91642469D01*
X153035000Y-79375000D02*
X153035000Y-81000000D01*
X151155031Y-91642469D02*
X151100000Y-91697500D01*
X149000000Y-86360000D02*
X149000000Y-86893860D01*
X151966765Y-80633235D02*
X152668235Y-80633235D01*
X152668235Y-80633235D02*
X153035000Y-81000000D01*
%TO.N,/SWCLK*%
X156000000Y-99865686D02*
X150200000Y-94065685D01*
X156000000Y-106600000D02*
X156000000Y-99865686D01*
X156810000Y-108400000D02*
X156810000Y-107410000D01*
X150200000Y-94065685D02*
X150200000Y-93235000D01*
X156810000Y-107410000D02*
X156000000Y-106600000D01*
%TO.N,/SWDIO*%
X156400000Y-99700000D02*
X150600000Y-93900000D01*
X150600000Y-93900000D02*
X150600000Y-93235000D01*
X156400000Y-106200000D02*
X156400000Y-99700000D01*
X157150000Y-106200000D02*
X156400000Y-106200000D01*
X159350000Y-108400000D02*
X157150000Y-106200000D01*
%TO.N,Net-(U1-RUN)*%
X160500000Y-67400000D02*
X160500000Y-66165000D01*
X151000000Y-93235000D02*
X151000000Y-92297500D01*
X160500000Y-66165000D02*
X160650000Y-66015000D01*
X160650000Y-59715000D02*
X160650000Y-66015000D01*
X160675000Y-59690000D02*
X160650000Y-59715000D01*
X162675000Y-59690000D02*
X160675000Y-59690000D01*
%TO.N,/USB_DP*%
X150200000Y-84100000D02*
X150200000Y-86360000D01*
X153670000Y-75565000D02*
X150700000Y-78535000D01*
X150700000Y-78535000D02*
X150700000Y-79300000D01*
%TO.N,/QSPI_SD3*%
X146685000Y-74517500D02*
X146685000Y-75685000D01*
X149043761Y-84233479D02*
X148600000Y-84677240D01*
X146685000Y-75685000D02*
X146700000Y-75700000D01*
X148600000Y-84677240D02*
X148600000Y-86360000D01*
%TO.N,/QSPI_SCLK*%
X148200000Y-83967837D02*
X148200000Y-86360000D01*
X147955000Y-74517500D02*
X147955000Y-75545000D01*
X148600000Y-83567837D02*
X148200000Y-83967837D01*
X147955000Y-75545000D02*
X147800000Y-75700000D01*
%TO.N,/QSPI_SD0*%
X149225000Y-74517500D02*
X149225000Y-75575000D01*
X149225000Y-75575000D02*
X149200000Y-75600000D01*
X147800000Y-83205000D02*
X147800000Y-86360000D01*
X148000000Y-83005000D02*
X147800000Y-83205000D01*
%TO.N,/QSPI_SD2*%
X147955000Y-81692500D02*
X147400000Y-82247500D01*
X147400000Y-82247500D02*
X147400000Y-86360000D01*
%TO.N,/QSPI_SD1*%
X146685000Y-81692500D02*
X147000000Y-82007500D01*
X147000000Y-82007500D02*
X147000000Y-86360000D01*
%TO.N,/QSPI_SS_N*%
X145415000Y-81692500D02*
X145415000Y-84566471D01*
X142800000Y-75725000D02*
X142800000Y-79077500D01*
X142800000Y-79077500D02*
X145415000Y-81692500D01*
X146600000Y-85751471D02*
X146600000Y-86360000D01*
X145415000Y-84566471D02*
X146600000Y-85751471D01*
%TO.N,Net-(J1-CC1)*%
X153200000Y-68300000D02*
X153480000Y-68580000D01*
X149840000Y-66962410D02*
X150200000Y-67322410D01*
X150200000Y-68300000D02*
X153200000Y-68300000D01*
X150200000Y-67322410D02*
X150200000Y-68300000D01*
X149840000Y-66355000D02*
X149840000Y-66962410D01*
%TO.N,/USB_CONN_DP*%
X148940000Y-65647590D02*
X148840000Y-65747590D01*
X147700000Y-64551471D02*
X148051471Y-64200000D01*
X148840000Y-65747590D02*
X148840000Y-66355000D01*
X147840000Y-65188529D02*
X147700000Y-65048529D01*
X148840000Y-67911049D02*
X148893941Y-67964990D01*
X148940000Y-64540000D02*
X148940000Y-65647590D01*
X148600000Y-64200000D02*
X148940000Y-64540000D01*
X147700000Y-65048529D02*
X147700000Y-64551471D01*
X155500000Y-76500000D02*
X156065000Y-76500000D01*
X156065000Y-76500000D02*
X156210000Y-76645000D01*
X148840000Y-66355000D02*
X148840000Y-67911049D01*
X147840000Y-66355000D02*
X147840000Y-65188529D01*
X148051471Y-64200000D02*
X148600000Y-64200000D01*
%TO.N,/USB_CONN_DM*%
X159200000Y-76700000D02*
X158165000Y-76700000D01*
X149340000Y-66355000D02*
X149340000Y-67310940D01*
X148800000Y-63400000D02*
X149100000Y-63700000D01*
X148300000Y-64800000D02*
X148340000Y-64840000D01*
X149200000Y-63700000D02*
X149340000Y-63840000D01*
X148340000Y-64840000D02*
X148340000Y-66355000D01*
X149340000Y-63840000D02*
X149340000Y-66355000D01*
X158165000Y-76700000D02*
X158110000Y-76645000D01*
X149340000Y-67310940D02*
X149576062Y-67547002D01*
X149100000Y-63700000D02*
X149200000Y-63700000D01*
%TO.N,Net-(J1-CC2)*%
X146840000Y-66355000D02*
X146840000Y-71085000D01*
X146840000Y-71085000D02*
X146875000Y-71120000D01*
%TO.N,Net-(R1-Pad1)*%
X156210000Y-74370000D02*
X155755000Y-73915000D01*
X155755000Y-73915000D02*
X153670000Y-73915000D01*
%TO.N,Net-(D1-A)*%
X160947500Y-69215000D02*
X158750000Y-69215000D01*
%TO.N,Net-(D2-A)*%
X139852500Y-69215000D02*
X142050000Y-69215000D01*
%TO.N,Net-(R5-Pad1)*%
X142800000Y-72800000D02*
X142800000Y-74075000D01*
X140330000Y-67030000D02*
X140500000Y-67200000D01*
X140330000Y-66015000D02*
X140330000Y-67030000D01*
X140330000Y-59715000D02*
X140330000Y-66015000D01*
%TD*%
M02*
