%TF.GenerationSoftware,KiCad,Pcbnew,10.0.4*%
%TF.CreationDate,2026-08-18T22:30:30+03:00*%
%TF.ProjectId,MDC,4d44432e-6b69-4636-9164-5f7063625858,rev?*%
%TF.SameCoordinates,Original*%
%TF.FileFunction,Copper,L3,Inr*%
%TF.FilePolarity,Positive*%
%FSLAX46Y46*%
G04 Gerber Fmt 4.6, Leading zero omitted, Abs format (unit mm)*
G04 Created by KiCad (PCBNEW 10.0.4) date 2026-08-18 22:30:30*
%MOMM*%
%LPD*%
G01*
G04 APERTURE LIST*
%TA.AperFunction,ComponentPad*%
%ADD10R,1.700000X1.700000*%
%TD*%
%TA.AperFunction,ComponentPad*%
%ADD11C,1.700000*%
%TD*%
%TA.AperFunction,ComponentPad*%
%ADD12O,1.000000X2.100000*%
%TD*%
%TA.AperFunction,ComponentPad*%
%ADD13O,1.000000X1.800000*%
%TD*%
%TA.AperFunction,ViaPad*%
%ADD14C,0.600000*%
%TD*%
G04 APERTURE END LIST*
D10*
%TO.N,+5V*%
%TO.C,J4*%
X168000000Y-60200000D03*
D11*
%TO.N,+3.3V*%
X168000000Y-62740000D03*
%TO.N,/GPIO29*%
X168000000Y-65280000D03*
%TO.N,/GPIO28*%
X168000000Y-67820000D03*
%TO.N,/GPIO27*%
X168000000Y-70360000D03*
%TO.N,/GPIO26*%
X168000000Y-72900000D03*
%TO.N,/GPIO25*%
X168000000Y-75440000D03*
%TO.N,GND*%
X168000000Y-77980000D03*
%TO.N,/GPIO24*%
X168000000Y-80520000D03*
%TO.N,/GPIO23*%
X168000000Y-83060000D03*
%TO.N,/GPIO22*%
X168000000Y-85600000D03*
%TO.N,/GPIO21*%
X168000000Y-88140000D03*
%TO.N,/GPIO20*%
X168000000Y-90680000D03*
%TO.N,/GPIO19*%
X168000000Y-93220000D03*
%TO.N,/GPIO18*%
X168000000Y-95760000D03*
%TO.N,/GPIO17*%
X168000000Y-98300000D03*
%TO.N,/GPIO16*%
X168000000Y-100840000D03*
%TO.N,GND*%
X168000000Y-103380000D03*
%TO.N,+3.3V*%
X168000000Y-105920000D03*
%TO.N,+5V*%
X168000000Y-108460000D03*
%TD*%
D10*
%TO.N,+5V*%
%TO.C,J3*%
X128780000Y-60210000D03*
D11*
%TO.N,+3.3V*%
X128780000Y-62750000D03*
%TO.N,GND*%
X128780000Y-65290000D03*
%TO.N,/GPIO0*%
X128780000Y-67830000D03*
%TO.N,/GPIO1*%
X128780000Y-70370000D03*
%TO.N,/GPIO2*%
X128780000Y-72910000D03*
%TO.N,/GPIO3*%
X128780000Y-75450000D03*
%TO.N,/GPIO4*%
X128780000Y-77990000D03*
%TO.N,/GPIO5*%
X128780000Y-80530000D03*
%TO.N,/GPIO6*%
X128780000Y-83070000D03*
%TO.N,/GPIO7*%
X128780000Y-85610000D03*
%TO.N,/GPIO8*%
X128780000Y-88150000D03*
%TO.N,/GPIO9*%
X128780000Y-90690000D03*
%TO.N,/GPIO10*%
X128780000Y-93230000D03*
%TO.N,/GPIO11*%
X128780000Y-95770000D03*
%TO.N,/GPIO12*%
X128780000Y-98310000D03*
%TO.N,GND*%
X128780000Y-100850000D03*
%TO.N,/GPIO13*%
X128780000Y-103390000D03*
%TO.N,/GPIO14*%
X128780000Y-105930000D03*
%TO.N,/GPIO15*%
X128780000Y-108470000D03*
%TD*%
D12*
%TO.N,GND*%
%TO.C,J1*%
X152910000Y-65780000D03*
D13*
X152910000Y-61600000D03*
D12*
X144270000Y-65780000D03*
D13*
X144270000Y-61600000D03*
%TD*%
D10*
%TO.N,/SWCLK*%
%TO.C,J2*%
X156810000Y-108400000D03*
D11*
%TO.N,/SWDIO*%
X159350000Y-108400000D03*
%TO.N,GND*%
X161890000Y-108400000D03*
%TD*%
D14*
%TO.N,+5V*%
X147600000Y-69000000D03*
X142600000Y-70700000D03*
X137300000Y-76200000D03*
X163400000Y-101700000D03*
X133300000Y-71900000D03*
X162500000Y-71900000D03*
X151300000Y-67700000D03*
X145900000Y-68200000D03*
X152200000Y-69000000D03*
X163800000Y-64500000D03*
%TO.N,+3.3V*%
X148500000Y-72200000D03*
X146600000Y-90797500D03*
X139200000Y-72100000D03*
X156000000Y-78500000D03*
X164400000Y-60800000D03*
X156500000Y-90597500D03*
X149600000Y-85300000D03*
X163600000Y-69200000D03*
X152900000Y-85600000D03*
X145700000Y-85700000D03*
X144400000Y-73800000D03*
X149200000Y-92000000D03*
%TO.N,/GPIO25*%
X151755031Y-89200000D03*
X143700000Y-70000000D03*
%TO.N,GND*%
X150100000Y-72200000D03*
X157100000Y-77900000D03*
X140900000Y-75700000D03*
X155200000Y-67400000D03*
X145200000Y-69900000D03*
X145200000Y-99900000D03*
X154300000Y-77800000D03*
X149600000Y-95700000D03*
X136200000Y-68500000D03*
X154800000Y-60300000D03*
X135200000Y-74000000D03*
X148200000Y-91900000D03*
X151200000Y-80200000D03*
%TO.N,/USB_DM*%
X150800000Y-83300000D03*
X159086863Y-77491962D03*
%TO.N,/+1V1*%
X151966765Y-80633235D03*
X151600000Y-82200000D03*
%TO.N,Net-(U1-RUN)*%
X151000000Y-92297500D03*
X160500000Y-67400000D03*
%TO.N,/USB_DP*%
X150700000Y-79300000D03*
X150200000Y-84100000D03*
%TO.N,/QSPI_SD3*%
X146700000Y-75700000D03*
X149043761Y-84233479D03*
%TO.N,/QSPI_SCLK*%
X147800000Y-75700000D03*
X148600000Y-83567837D03*
%TO.N,/QSPI_SD0*%
X149200000Y-75600000D03*
X148000000Y-83005000D03*
%TO.N,/USB_CONN_DP*%
X148893941Y-67964990D03*
X155500000Y-76500000D03*
%TO.N,/USB_CONN_DM*%
X148300000Y-64800000D03*
X159200000Y-76700000D03*
X149576062Y-67547002D03*
X148800000Y-63400000D03*
%TO.N,Net-(R5-Pad1)*%
X140500000Y-67200000D03*
X142800000Y-72800000D03*
%TD*%
%TA.AperFunction,Conductor*%
%TO.N,+3.3V*%
G36*
X166666454Y-58940185D02*
G01*
X166712209Y-58992989D01*
X166722153Y-59062147D01*
X166708246Y-59103929D01*
X166706203Y-59107669D01*
X166655908Y-59242517D01*
X166649501Y-59302116D01*
X166649500Y-59302135D01*
X166649500Y-61097870D01*
X166649501Y-61097876D01*
X166655908Y-61157483D01*
X166706202Y-61292328D01*
X166706206Y-61292335D01*
X166792452Y-61407544D01*
X166792455Y-61407547D01*
X166907664Y-61493793D01*
X166907671Y-61493797D01*
X166934472Y-61503793D01*
X167042517Y-61544091D01*
X167102127Y-61550500D01*
X167112685Y-61550499D01*
X167179723Y-61570179D01*
X167200372Y-61586818D01*
X167870591Y-62257037D01*
X167807007Y-62274075D01*
X167692993Y-62339901D01*
X167599901Y-62432993D01*
X167534075Y-62547007D01*
X167517037Y-62610591D01*
X166884728Y-61978282D01*
X166884727Y-61978282D01*
X166845380Y-62032439D01*
X166748904Y-62221782D01*
X166683242Y-62423869D01*
X166683242Y-62423872D01*
X166650000Y-62633753D01*
X166650000Y-62846246D01*
X166683242Y-63056127D01*
X166683242Y-63056130D01*
X166748904Y-63258217D01*
X166845375Y-63447550D01*
X166884728Y-63501716D01*
X167517037Y-62869408D01*
X167534075Y-62932993D01*
X167599901Y-63047007D01*
X167692993Y-63140099D01*
X167807007Y-63205925D01*
X167870590Y-63222962D01*
X167238282Y-63855269D01*
X167238282Y-63855270D01*
X167292452Y-63894626D01*
X167292451Y-63894626D01*
X167301495Y-63899234D01*
X167352292Y-63947208D01*
X167369087Y-64015029D01*
X167346550Y-64081164D01*
X167301499Y-64120202D01*
X167292182Y-64124949D01*
X167120213Y-64249890D01*
X166969890Y-64400213D01*
X166844951Y-64572179D01*
X166748444Y-64761585D01*
X166682753Y-64963760D01*
X166649500Y-65173713D01*
X166649500Y-65386286D01*
X166678555Y-65569735D01*
X166682754Y-65596243D01*
X166745253Y-65788595D01*
X166748444Y-65798414D01*
X166844951Y-65987820D01*
X166969890Y-66159786D01*
X167120213Y-66310109D01*
X167292182Y-66435050D01*
X167300946Y-66439516D01*
X167351742Y-66487491D01*
X167368536Y-66555312D01*
X167345998Y-66621447D01*
X167300946Y-66660484D01*
X167292182Y-66664949D01*
X167120213Y-66789890D01*
X166969890Y-66940213D01*
X166844951Y-67112179D01*
X166748444Y-67301585D01*
X166682753Y-67503760D01*
X166649500Y-67713713D01*
X166649500Y-67926286D01*
X166681291Y-68127011D01*
X166682754Y-68136243D01*
X166741401Y-68316740D01*
X166748444Y-68338414D01*
X166844951Y-68527820D01*
X166969890Y-68699786D01*
X167120213Y-68850109D01*
X167292182Y-68975050D01*
X167300946Y-68979516D01*
X167351742Y-69027491D01*
X167368536Y-69095312D01*
X167345998Y-69161447D01*
X167300946Y-69200484D01*
X167292182Y-69204949D01*
X167120213Y-69329890D01*
X166969890Y-69480213D01*
X166844951Y-69652179D01*
X166748444Y-69841585D01*
X166682753Y-70043760D01*
X166659637Y-70189711D01*
X166649500Y-70253713D01*
X166649500Y-70466287D01*
X166649534Y-70466503D01*
X166681723Y-70669738D01*
X166682754Y-70676243D01*
X166728541Y-70817161D01*
X166748444Y-70878414D01*
X166844951Y-71067820D01*
X166969890Y-71239786D01*
X167120213Y-71390109D01*
X167292182Y-71515050D01*
X167300946Y-71519516D01*
X167351742Y-71567491D01*
X167368536Y-71635312D01*
X167345998Y-71701447D01*
X167300946Y-71740484D01*
X167292182Y-71744949D01*
X167120213Y-71869890D01*
X166969890Y-72020213D01*
X166844951Y-72192179D01*
X166748444Y-72381585D01*
X166682753Y-72583760D01*
X166649500Y-72793713D01*
X166649500Y-73006286D01*
X166676884Y-73179185D01*
X166682754Y-73216243D01*
X166735381Y-73378213D01*
X166748444Y-73418414D01*
X166844951Y-73607820D01*
X166969890Y-73779786D01*
X167120213Y-73930109D01*
X167292182Y-74055050D01*
X167300946Y-74059516D01*
X167351742Y-74107491D01*
X167368536Y-74175312D01*
X167345998Y-74241447D01*
X167300946Y-74280484D01*
X167292182Y-74284949D01*
X167120213Y-74409890D01*
X166969890Y-74560213D01*
X166844951Y-74732179D01*
X166748444Y-74921585D01*
X166682753Y-75123760D01*
X166649500Y-75333713D01*
X166649500Y-75546286D01*
X166672215Y-75689707D01*
X166682754Y-75756243D01*
X166729301Y-75899500D01*
X166748444Y-75958414D01*
X166844951Y-76147820D01*
X166969890Y-76319786D01*
X167120213Y-76470109D01*
X167292182Y-76595050D01*
X167300946Y-76599516D01*
X167351742Y-76647491D01*
X167368536Y-76715312D01*
X167345998Y-76781447D01*
X167300946Y-76820484D01*
X167292182Y-76824949D01*
X167120213Y-76949890D01*
X166969890Y-77100213D01*
X166844951Y-77272179D01*
X166748444Y-77461585D01*
X166682753Y-77663760D01*
X166671555Y-77734464D01*
X166649500Y-77873713D01*
X166649500Y-78086287D01*
X166653850Y-78113751D01*
X166677282Y-78261699D01*
X166682754Y-78296243D01*
X166686003Y-78306243D01*
X166748444Y-78498414D01*
X166844951Y-78687820D01*
X166969890Y-78859786D01*
X167120213Y-79010109D01*
X167292182Y-79135050D01*
X167300946Y-79139516D01*
X167351742Y-79187491D01*
X167368536Y-79255312D01*
X167345998Y-79321447D01*
X167300946Y-79360484D01*
X167292182Y-79364949D01*
X167120213Y-79489890D01*
X166969890Y-79640213D01*
X166844951Y-79812179D01*
X166748444Y-80001585D01*
X166682753Y-80203760D01*
X166649500Y-80413713D01*
X166649500Y-80626286D01*
X166680464Y-80821789D01*
X166682754Y-80836243D01*
X166742957Y-81021529D01*
X166748444Y-81038414D01*
X166844951Y-81227820D01*
X166969890Y-81399786D01*
X167120213Y-81550109D01*
X167292182Y-81675050D01*
X167300946Y-81679516D01*
X167351742Y-81727491D01*
X167368536Y-81795312D01*
X167345998Y-81861447D01*
X167300946Y-81900484D01*
X167292182Y-81904949D01*
X167120213Y-82029890D01*
X166969890Y-82180213D01*
X166844951Y-82352179D01*
X166748444Y-82541585D01*
X166682753Y-82743760D01*
X166649500Y-82953713D01*
X166649500Y-83166286D01*
X166678048Y-83346534D01*
X166682754Y-83376243D01*
X166745467Y-83569254D01*
X166748444Y-83578414D01*
X166844951Y-83767820D01*
X166969890Y-83939786D01*
X167120213Y-84090109D01*
X167292182Y-84215050D01*
X167300946Y-84219516D01*
X167351742Y-84267491D01*
X167368536Y-84335312D01*
X167345998Y-84401447D01*
X167300946Y-84440484D01*
X167292182Y-84444949D01*
X167120213Y-84569890D01*
X166969890Y-84720213D01*
X166844951Y-84892179D01*
X166748444Y-85081585D01*
X166682753Y-85283760D01*
X166649500Y-85493713D01*
X166649500Y-85706287D01*
X166682754Y-85916243D01*
X166686003Y-85926243D01*
X166748444Y-86118414D01*
X166844951Y-86307820D01*
X166969890Y-86479786D01*
X167120213Y-86630109D01*
X167292182Y-86755050D01*
X167300946Y-86759516D01*
X167351742Y-86807491D01*
X167368536Y-86875312D01*
X167345998Y-86941447D01*
X167300946Y-86980484D01*
X167292182Y-86984949D01*
X167120213Y-87109890D01*
X166969890Y-87260213D01*
X166844951Y-87432179D01*
X166748444Y-87621585D01*
X166682753Y-87823760D01*
X166649500Y-88033713D01*
X166649500Y-88246287D01*
X166682754Y-88456243D01*
X166693920Y-88490609D01*
X166748444Y-88658414D01*
X166844951Y-88847820D01*
X166969890Y-89019786D01*
X167120213Y-89170109D01*
X167292182Y-89295050D01*
X167300946Y-89299516D01*
X167351742Y-89347491D01*
X167368536Y-89415312D01*
X167345998Y-89481447D01*
X167300946Y-89520484D01*
X167292182Y-89524949D01*
X167120213Y-89649890D01*
X166969890Y-89800213D01*
X166844951Y-89972179D01*
X166748444Y-90161585D01*
X166682753Y-90363760D01*
X166649500Y-90573713D01*
X166649500Y-90786287D01*
X166682754Y-90996243D01*
X166745905Y-91190602D01*
X166748444Y-91198414D01*
X166844951Y-91387820D01*
X166969890Y-91559786D01*
X167120213Y-91710109D01*
X167292182Y-91835050D01*
X167300946Y-91839516D01*
X167351742Y-91887491D01*
X167368536Y-91955312D01*
X167345998Y-92021447D01*
X167300946Y-92060484D01*
X167292182Y-92064949D01*
X167120213Y-92189890D01*
X166969890Y-92340213D01*
X166844951Y-92512179D01*
X166748444Y-92701585D01*
X166682753Y-92903760D01*
X166666418Y-93006897D01*
X166649500Y-93113713D01*
X166649500Y-93326287D01*
X166682754Y-93536243D01*
X166686003Y-93546243D01*
X166748444Y-93738414D01*
X166844951Y-93927820D01*
X166969890Y-94099786D01*
X167120213Y-94250109D01*
X167292182Y-94375050D01*
X167300946Y-94379516D01*
X167351742Y-94427491D01*
X167368536Y-94495312D01*
X167345998Y-94561447D01*
X167300946Y-94600484D01*
X167292182Y-94604949D01*
X167120213Y-94729890D01*
X166969890Y-94880213D01*
X166844951Y-95052179D01*
X166748444Y-95241585D01*
X166682753Y-95443760D01*
X166679152Y-95466498D01*
X166649500Y-95653713D01*
X166649500Y-95866287D01*
X166682754Y-96076243D01*
X166726309Y-96210292D01*
X166748444Y-96278414D01*
X166844951Y-96467820D01*
X166969890Y-96639786D01*
X167120213Y-96790109D01*
X167292182Y-96915050D01*
X167300946Y-96919516D01*
X167351742Y-96967491D01*
X167368536Y-97035312D01*
X167345998Y-97101447D01*
X167300946Y-97140484D01*
X167292182Y-97144949D01*
X167120213Y-97269890D01*
X166969890Y-97420213D01*
X166844951Y-97592179D01*
X166748444Y-97781585D01*
X166682753Y-97983760D01*
X166649500Y-98193713D01*
X166649500Y-98406287D01*
X166682754Y-98616243D01*
X166686003Y-98626243D01*
X166748444Y-98818414D01*
X166844951Y-99007820D01*
X166969890Y-99179786D01*
X167120213Y-99330109D01*
X167292182Y-99455050D01*
X167300946Y-99459516D01*
X167351742Y-99507491D01*
X167368536Y-99575312D01*
X167345998Y-99641447D01*
X167300946Y-99680484D01*
X167292182Y-99684949D01*
X167120213Y-99809890D01*
X166969890Y-99960213D01*
X166844951Y-100132179D01*
X166748444Y-100321585D01*
X166682753Y-100523760D01*
X166669191Y-100609390D01*
X166649500Y-100733713D01*
X166649500Y-100946287D01*
X166682754Y-101156243D01*
X166693628Y-101189711D01*
X166748444Y-101358414D01*
X166844951Y-101547820D01*
X166969890Y-101719786D01*
X167120213Y-101870109D01*
X167292182Y-101995050D01*
X167300946Y-101999516D01*
X167351742Y-102047491D01*
X167368536Y-102115312D01*
X167345998Y-102181447D01*
X167300946Y-102220484D01*
X167292182Y-102224949D01*
X167120213Y-102349890D01*
X166969890Y-102500213D01*
X166844951Y-102672179D01*
X166748444Y-102861585D01*
X166682753Y-103063760D01*
X166649500Y-103273713D01*
X166649500Y-103486287D01*
X166682754Y-103696243D01*
X166686003Y-103706243D01*
X166748444Y-103898414D01*
X166844951Y-104087820D01*
X166969890Y-104259786D01*
X167120213Y-104410109D01*
X167292179Y-104535048D01*
X167292181Y-104535049D01*
X167292184Y-104535051D01*
X167301493Y-104539794D01*
X167352290Y-104587766D01*
X167369087Y-104655587D01*
X167346552Y-104721722D01*
X167301505Y-104760760D01*
X167292446Y-104765376D01*
X167292440Y-104765380D01*
X167238282Y-104804727D01*
X167238282Y-104804728D01*
X167870591Y-105437037D01*
X167807007Y-105454075D01*
X167692993Y-105519901D01*
X167599901Y-105612993D01*
X167534075Y-105727007D01*
X167517037Y-105790591D01*
X166884728Y-105158282D01*
X166884727Y-105158282D01*
X166845380Y-105212439D01*
X166748904Y-105401782D01*
X166683242Y-105603869D01*
X166683242Y-105603872D01*
X166650000Y-105813753D01*
X166650000Y-106026246D01*
X166683242Y-106236127D01*
X166683242Y-106236130D01*
X166748904Y-106438217D01*
X166845375Y-106627550D01*
X166884728Y-106681716D01*
X167517037Y-106049408D01*
X167534075Y-106112993D01*
X167599901Y-106227007D01*
X167692993Y-106320099D01*
X167807007Y-106385925D01*
X167870590Y-106402962D01*
X167238282Y-107035269D01*
X167238282Y-107035270D01*
X167292452Y-107074626D01*
X167292451Y-107074626D01*
X167301495Y-107079234D01*
X167352292Y-107127208D01*
X167369087Y-107195029D01*
X167346550Y-107261164D01*
X167301499Y-107300202D01*
X167292182Y-107304949D01*
X167120213Y-107429890D01*
X166969890Y-107580213D01*
X166844951Y-107752179D01*
X166748444Y-107941585D01*
X166682753Y-108143760D01*
X166659003Y-108293713D01*
X166649500Y-108353713D01*
X166649500Y-108566287D01*
X166682754Y-108776243D01*
X166728948Y-108918414D01*
X166748444Y-108978414D01*
X166844951Y-109167820D01*
X166969890Y-109339786D01*
X166969896Y-109339792D01*
X167120208Y-109490104D01*
X167133971Y-109500103D01*
X167140960Y-109505181D01*
X167183626Y-109560511D01*
X167189605Y-109630124D01*
X167157000Y-109691920D01*
X167096161Y-109726277D01*
X167068075Y-109729500D01*
X162739341Y-109729500D01*
X162672302Y-109709815D01*
X162626547Y-109657011D01*
X162616603Y-109587853D01*
X162645628Y-109524297D01*
X162666453Y-109505183D01*
X162769792Y-109430104D01*
X162920104Y-109279792D01*
X162920106Y-109279788D01*
X162920109Y-109279786D01*
X163045048Y-109107820D01*
X163045047Y-109107820D01*
X163045051Y-109107816D01*
X163141557Y-108918412D01*
X163207246Y-108716243D01*
X163240500Y-108506287D01*
X163240500Y-108293713D01*
X163207246Y-108083757D01*
X163141557Y-107881588D01*
X163045051Y-107692184D01*
X163045049Y-107692181D01*
X163045048Y-107692179D01*
X162920109Y-107520213D01*
X162769786Y-107369890D01*
X162597820Y-107244951D01*
X162408414Y-107148444D01*
X162408413Y-107148443D01*
X162408412Y-107148443D01*
X162206243Y-107082754D01*
X162206241Y-107082753D01*
X162206240Y-107082753D01*
X162044957Y-107057208D01*
X161996287Y-107049500D01*
X161783713Y-107049500D01*
X161735042Y-107057208D01*
X161573760Y-107082753D01*
X161371585Y-107148444D01*
X161182179Y-107244951D01*
X161010213Y-107369890D01*
X160859890Y-107520213D01*
X160734949Y-107692182D01*
X160730484Y-107700946D01*
X160682509Y-107751742D01*
X160614688Y-107768536D01*
X160548553Y-107745998D01*
X160509516Y-107700946D01*
X160505050Y-107692182D01*
X160380109Y-107520213D01*
X160229786Y-107369890D01*
X160057820Y-107244951D01*
X159868414Y-107148444D01*
X159868413Y-107148443D01*
X159868412Y-107148443D01*
X159666243Y-107082754D01*
X159666241Y-107082753D01*
X159666240Y-107082753D01*
X159504957Y-107057208D01*
X159456287Y-107049500D01*
X159243713Y-107049500D01*
X159195042Y-107057208D01*
X159033760Y-107082753D01*
X158831585Y-107148444D01*
X158642179Y-107244951D01*
X158470215Y-107369889D01*
X158356673Y-107483431D01*
X158295350Y-107516915D01*
X158225658Y-107511931D01*
X158169725Y-107470059D01*
X158152810Y-107439082D01*
X158103797Y-107307671D01*
X158103793Y-107307664D01*
X158017547Y-107192455D01*
X158017544Y-107192452D01*
X157902335Y-107106206D01*
X157902328Y-107106202D01*
X157767482Y-107055908D01*
X157767483Y-107055908D01*
X157707883Y-107049501D01*
X157707881Y-107049500D01*
X157707873Y-107049500D01*
X157707864Y-107049500D01*
X155912129Y-107049500D01*
X155912123Y-107049501D01*
X155852516Y-107055908D01*
X155717671Y-107106202D01*
X155717664Y-107106206D01*
X155602455Y-107192452D01*
X155602452Y-107192455D01*
X155516206Y-107307664D01*
X155516202Y-107307671D01*
X155465908Y-107442517D01*
X155459501Y-107502116D01*
X155459500Y-107502135D01*
X155459500Y-109297870D01*
X155459501Y-109297876D01*
X155465908Y-109357483D01*
X155516202Y-109492328D01*
X155516204Y-109492331D01*
X155545293Y-109531189D01*
X155569710Y-109596653D01*
X155554858Y-109664926D01*
X155505453Y-109714332D01*
X155446026Y-109729500D01*
X129725689Y-109729500D01*
X129658650Y-109709815D01*
X129612895Y-109657011D01*
X129602951Y-109587853D01*
X129631976Y-109524297D01*
X129652804Y-109505181D01*
X129659792Y-109500104D01*
X129810104Y-109349792D01*
X129810106Y-109349788D01*
X129810109Y-109349786D01*
X129935048Y-109177820D01*
X129935047Y-109177820D01*
X129935051Y-109177816D01*
X130031557Y-108988412D01*
X130097246Y-108786243D01*
X130130500Y-108576287D01*
X130130500Y-108363713D01*
X130097246Y-108153757D01*
X130031557Y-107951588D01*
X129935051Y-107762184D01*
X129935049Y-107762181D01*
X129935048Y-107762179D01*
X129810109Y-107590213D01*
X129659786Y-107439890D01*
X129487820Y-107314951D01*
X129487115Y-107314591D01*
X129479054Y-107310485D01*
X129428259Y-107262512D01*
X129411463Y-107194692D01*
X129433999Y-107128556D01*
X129479054Y-107089515D01*
X129487816Y-107085051D01*
X129556336Y-107035269D01*
X129659786Y-106960109D01*
X129659788Y-106960106D01*
X129659792Y-106960104D01*
X129810104Y-106809792D01*
X129810106Y-106809788D01*
X129810109Y-106809786D01*
X129935048Y-106637820D01*
X129935047Y-106637820D01*
X129935051Y-106637816D01*
X130031557Y-106448412D01*
X130097246Y-106246243D01*
X130130500Y-106036287D01*
X130130500Y-105823713D01*
X130097246Y-105613757D01*
X130031557Y-105411588D01*
X129935051Y-105222184D01*
X129935049Y-105222181D01*
X129935048Y-105222179D01*
X129810109Y-105050213D01*
X129659786Y-104899890D01*
X129487820Y-104774951D01*
X129487115Y-104774591D01*
X129479054Y-104770485D01*
X129428259Y-104722512D01*
X129411463Y-104654692D01*
X129433999Y-104588556D01*
X129479054Y-104549515D01*
X129487816Y-104545051D01*
X129509789Y-104529086D01*
X129659786Y-104420109D01*
X129659788Y-104420106D01*
X129659792Y-104420104D01*
X129810104Y-104269792D01*
X129810106Y-104269788D01*
X129810109Y-104269786D01*
X129935048Y-104097820D01*
X129935047Y-104097820D01*
X129935051Y-104097816D01*
X130031557Y-103908412D01*
X130097246Y-103706243D01*
X130130500Y-103496287D01*
X130130500Y-103283713D01*
X130097246Y-103073757D01*
X130031557Y-102871588D01*
X129935051Y-102682184D01*
X129935049Y-102682181D01*
X129935048Y-102682179D01*
X129810109Y-102510213D01*
X129659786Y-102359890D01*
X129487820Y-102234951D01*
X129487115Y-102234591D01*
X129479054Y-102230485D01*
X129428259Y-102182512D01*
X129411463Y-102114692D01*
X129433999Y-102048556D01*
X129479054Y-102009515D01*
X129487816Y-102005051D01*
X129586297Y-101933501D01*
X129659786Y-101880109D01*
X129659788Y-101880106D01*
X129659792Y-101880104D01*
X129810104Y-101729792D01*
X129810106Y-101729788D01*
X129810109Y-101729786D01*
X129889034Y-101621153D01*
X162599500Y-101621153D01*
X162599500Y-101778846D01*
X162630261Y-101933489D01*
X162630264Y-101933501D01*
X162690602Y-102079172D01*
X162690609Y-102079185D01*
X162778210Y-102210288D01*
X162778213Y-102210292D01*
X162889707Y-102321786D01*
X162889711Y-102321789D01*
X163020814Y-102409390D01*
X163020827Y-102409397D01*
X163166498Y-102469735D01*
X163166503Y-102469737D01*
X163318257Y-102499923D01*
X163321153Y-102500499D01*
X163321156Y-102500500D01*
X163321158Y-102500500D01*
X163478844Y-102500500D01*
X163478845Y-102500499D01*
X163633497Y-102469737D01*
X163779179Y-102409394D01*
X163910289Y-102321789D01*
X164021789Y-102210289D01*
X164109394Y-102079179D01*
X164122520Y-102047491D01*
X164138250Y-102009514D01*
X164169737Y-101933497D01*
X164200500Y-101778842D01*
X164200500Y-101621158D01*
X164200500Y-101621155D01*
X164200499Y-101621153D01*
X164169738Y-101466510D01*
X164169737Y-101466503D01*
X164129107Y-101368412D01*
X164109397Y-101320827D01*
X164109390Y-101320814D01*
X164021789Y-101189711D01*
X164021786Y-101189707D01*
X163910292Y-101078213D01*
X163910288Y-101078210D01*
X163779185Y-100990609D01*
X163779172Y-100990602D01*
X163633501Y-100930264D01*
X163633489Y-100930261D01*
X163478845Y-100899500D01*
X163478842Y-100899500D01*
X163321158Y-100899500D01*
X163321155Y-100899500D01*
X163166510Y-100930261D01*
X163166498Y-100930264D01*
X163020827Y-100990602D01*
X163020814Y-100990609D01*
X162889711Y-101078210D01*
X162889707Y-101078213D01*
X162778213Y-101189707D01*
X162778210Y-101189711D01*
X162690609Y-101320814D01*
X162690602Y-101320827D01*
X162630264Y-101466498D01*
X162630261Y-101466510D01*
X162599500Y-101621153D01*
X129889034Y-101621153D01*
X129935047Y-101557821D01*
X129935051Y-101557816D01*
X130031557Y-101368412D01*
X130097246Y-101166243D01*
X130130500Y-100956287D01*
X130130500Y-100743713D01*
X130097246Y-100533757D01*
X130031557Y-100331588D01*
X129935051Y-100142184D01*
X129935049Y-100142181D01*
X129935048Y-100142179D01*
X129810109Y-99970213D01*
X129661049Y-99821153D01*
X144399500Y-99821153D01*
X144399500Y-99978846D01*
X144430261Y-100133489D01*
X144430264Y-100133501D01*
X144490602Y-100279172D01*
X144490609Y-100279185D01*
X144578210Y-100410288D01*
X144578213Y-100410292D01*
X144689707Y-100521786D01*
X144689711Y-100521789D01*
X144820814Y-100609390D01*
X144820827Y-100609397D01*
X144966498Y-100669735D01*
X144966503Y-100669737D01*
X145121153Y-100700499D01*
X145121156Y-100700500D01*
X145121158Y-100700500D01*
X145278844Y-100700500D01*
X145278845Y-100700499D01*
X145433497Y-100669737D01*
X145579179Y-100609394D01*
X145710289Y-100521789D01*
X145821789Y-100410289D01*
X145909394Y-100279179D01*
X145969737Y-100133497D01*
X146000500Y-99978842D01*
X146000500Y-99821158D01*
X146000500Y-99821155D01*
X146000499Y-99821153D01*
X145998259Y-99809890D01*
X145969737Y-99666503D01*
X145931708Y-99574692D01*
X145909397Y-99520827D01*
X145909390Y-99520814D01*
X145821789Y-99389711D01*
X145821786Y-99389707D01*
X145710292Y-99278213D01*
X145710288Y-99278210D01*
X145579185Y-99190609D01*
X145579172Y-99190602D01*
X145433501Y-99130264D01*
X145433489Y-99130261D01*
X145278845Y-99099500D01*
X145278842Y-99099500D01*
X145121158Y-99099500D01*
X145121155Y-99099500D01*
X144966510Y-99130261D01*
X144966498Y-99130264D01*
X144820827Y-99190602D01*
X144820814Y-99190609D01*
X144689711Y-99278210D01*
X144689707Y-99278213D01*
X144578213Y-99389707D01*
X144578210Y-99389711D01*
X144490609Y-99520814D01*
X144490602Y-99520827D01*
X144430264Y-99666498D01*
X144430261Y-99666510D01*
X144399500Y-99821153D01*
X129661049Y-99821153D01*
X129659786Y-99819890D01*
X129487820Y-99694951D01*
X129487115Y-99694591D01*
X129479054Y-99690485D01*
X129428259Y-99642512D01*
X129411463Y-99574692D01*
X129433999Y-99508556D01*
X129479054Y-99469515D01*
X129487816Y-99465051D01*
X129509789Y-99449086D01*
X129659786Y-99340109D01*
X129659788Y-99340106D01*
X129659792Y-99340104D01*
X129810104Y-99189792D01*
X129810106Y-99189788D01*
X129810109Y-99189786D01*
X129935048Y-99017820D01*
X129935047Y-99017820D01*
X129935051Y-99017816D01*
X130031557Y-98828412D01*
X130097246Y-98626243D01*
X130130500Y-98416287D01*
X130130500Y-98203713D01*
X130097246Y-97993757D01*
X130031557Y-97791588D01*
X129935051Y-97602184D01*
X129935049Y-97602181D01*
X129935048Y-97602179D01*
X129810109Y-97430213D01*
X129659786Y-97279890D01*
X129487820Y-97154951D01*
X129487115Y-97154591D01*
X129479054Y-97150485D01*
X129428259Y-97102512D01*
X129411463Y-97034692D01*
X129433999Y-96968556D01*
X129479054Y-96929515D01*
X129487816Y-96925051D01*
X129509789Y-96909086D01*
X129659786Y-96800109D01*
X129659788Y-96800106D01*
X129659792Y-96800104D01*
X129810104Y-96649792D01*
X129810106Y-96649788D01*
X129810109Y-96649786D01*
X129935048Y-96477820D01*
X129935047Y-96477820D01*
X129935051Y-96477816D01*
X130031557Y-96288412D01*
X130097246Y-96086243D01*
X130130500Y-95876287D01*
X130130500Y-95663713D01*
X130123759Y-95621153D01*
X148799500Y-95621153D01*
X148799500Y-95778846D01*
X148830261Y-95933489D01*
X148830264Y-95933501D01*
X148890602Y-96079172D01*
X148890609Y-96079185D01*
X148978210Y-96210288D01*
X148978213Y-96210292D01*
X149089707Y-96321786D01*
X149089711Y-96321789D01*
X149220814Y-96409390D01*
X149220827Y-96409397D01*
X149361865Y-96467816D01*
X149366503Y-96469737D01*
X149521153Y-96500499D01*
X149521156Y-96500500D01*
X149521158Y-96500500D01*
X149678844Y-96500500D01*
X149678845Y-96500499D01*
X149833497Y-96469737D01*
X149979179Y-96409394D01*
X150110289Y-96321789D01*
X150221789Y-96210289D01*
X150309394Y-96079179D01*
X150369737Y-95933497D01*
X150400500Y-95778842D01*
X150400500Y-95621158D01*
X150400500Y-95621155D01*
X150400499Y-95621153D01*
X150369738Y-95466510D01*
X150369737Y-95466503D01*
X150364458Y-95453759D01*
X150309397Y-95320827D01*
X150309390Y-95320814D01*
X150221789Y-95189711D01*
X150221786Y-95189707D01*
X150110292Y-95078213D01*
X150110288Y-95078210D01*
X149979185Y-94990609D01*
X149979172Y-94990602D01*
X149833501Y-94930264D01*
X149833489Y-94930261D01*
X149678845Y-94899500D01*
X149678842Y-94899500D01*
X149521158Y-94899500D01*
X149521155Y-94899500D01*
X149366510Y-94930261D01*
X149366498Y-94930264D01*
X149220827Y-94990602D01*
X149220814Y-94990609D01*
X149089711Y-95078210D01*
X149089707Y-95078213D01*
X148978213Y-95189707D01*
X148978210Y-95189711D01*
X148890609Y-95320814D01*
X148890602Y-95320827D01*
X148830264Y-95466498D01*
X148830261Y-95466510D01*
X148799500Y-95621153D01*
X130123759Y-95621153D01*
X130097246Y-95453757D01*
X130031557Y-95251588D01*
X129935051Y-95062184D01*
X129935049Y-95062181D01*
X129935048Y-95062179D01*
X129810109Y-94890213D01*
X129659786Y-94739890D01*
X129487820Y-94614951D01*
X129487115Y-94614591D01*
X129479054Y-94610485D01*
X129428259Y-94562512D01*
X129411463Y-94494692D01*
X129433999Y-94428556D01*
X129479054Y-94389515D01*
X129487816Y-94385051D01*
X129509789Y-94369086D01*
X129659786Y-94260109D01*
X129659788Y-94260106D01*
X129659792Y-94260104D01*
X129810104Y-94109792D01*
X129810106Y-94109788D01*
X129810109Y-94109786D01*
X129935048Y-93937820D01*
X129935047Y-93937820D01*
X129935051Y-93937816D01*
X130031557Y-93748412D01*
X130097246Y-93546243D01*
X130130500Y-93336287D01*
X130130500Y-93123713D01*
X130097246Y-92913757D01*
X130031557Y-92711588D01*
X129935051Y-92522184D01*
X129935049Y-92522181D01*
X129935048Y-92522179D01*
X129810109Y-92350213D01*
X129659786Y-92199890D01*
X129487820Y-92074951D01*
X129487115Y-92074591D01*
X129479054Y-92070485D01*
X129428259Y-92022512D01*
X129411463Y-91954692D01*
X129433999Y-91888556D01*
X129479054Y-91849515D01*
X129487816Y-91845051D01*
X129520709Y-91821153D01*
X147399500Y-91821153D01*
X147399500Y-91978846D01*
X147430261Y-92133489D01*
X147430264Y-92133501D01*
X147490602Y-92279172D01*
X147490609Y-92279185D01*
X147578210Y-92410288D01*
X147578213Y-92410292D01*
X147689707Y-92521786D01*
X147689711Y-92521789D01*
X147820814Y-92609390D01*
X147820827Y-92609397D01*
X147966498Y-92669735D01*
X147966503Y-92669737D01*
X148121153Y-92700499D01*
X148121156Y-92700500D01*
X148121158Y-92700500D01*
X148278844Y-92700500D01*
X148278845Y-92700499D01*
X148433497Y-92669737D01*
X148579179Y-92609394D01*
X148710289Y-92521789D01*
X148821789Y-92410289D01*
X148909394Y-92279179D01*
X148934463Y-92218658D01*
X148934465Y-92218653D01*
X150199500Y-92218653D01*
X150199500Y-92376346D01*
X150230261Y-92530989D01*
X150230264Y-92531001D01*
X150290602Y-92676672D01*
X150290609Y-92676685D01*
X150378210Y-92807788D01*
X150378213Y-92807792D01*
X150489707Y-92919286D01*
X150489711Y-92919289D01*
X150620814Y-93006890D01*
X150620827Y-93006897D01*
X150766498Y-93067235D01*
X150766503Y-93067237D01*
X150921153Y-93097999D01*
X150921156Y-93098000D01*
X150921158Y-93098000D01*
X151078844Y-93098000D01*
X151078845Y-93097999D01*
X151233497Y-93067237D01*
X151379179Y-93006894D01*
X151510289Y-92919289D01*
X151621789Y-92807789D01*
X151709394Y-92676679D01*
X151712270Y-92669737D01*
X151769735Y-92531001D01*
X151769737Y-92530997D01*
X151800500Y-92376342D01*
X151800500Y-92218658D01*
X151800500Y-92218655D01*
X151800499Y-92218653D01*
X151783560Y-92133497D01*
X151769737Y-92064003D01*
X151734464Y-91978846D01*
X151709397Y-91918327D01*
X151709390Y-91918314D01*
X151621789Y-91787211D01*
X151621786Y-91787207D01*
X151510292Y-91675713D01*
X151510288Y-91675710D01*
X151379185Y-91588109D01*
X151379172Y-91588102D01*
X151233501Y-91527764D01*
X151233489Y-91527761D01*
X151078845Y-91497000D01*
X151078842Y-91497000D01*
X150921158Y-91497000D01*
X150921155Y-91497000D01*
X150766510Y-91527761D01*
X150766498Y-91527764D01*
X150620827Y-91588102D01*
X150620814Y-91588109D01*
X150489711Y-91675710D01*
X150489707Y-91675713D01*
X150378213Y-91787207D01*
X150378210Y-91787211D01*
X150290609Y-91918314D01*
X150290602Y-91918327D01*
X150230264Y-92063998D01*
X150230261Y-92064010D01*
X150199500Y-92218653D01*
X148934465Y-92218653D01*
X148956641Y-92165114D01*
X148956641Y-92165113D01*
X148969737Y-92133497D01*
X149000500Y-91978842D01*
X149000500Y-91821158D01*
X149000500Y-91821155D01*
X149000499Y-91821153D01*
X148971569Y-91675713D01*
X148969737Y-91666503D01*
X148945571Y-91608161D01*
X148909397Y-91520827D01*
X148909390Y-91520814D01*
X148821789Y-91389711D01*
X148821786Y-91389707D01*
X148710292Y-91278213D01*
X148710288Y-91278210D01*
X148579185Y-91190609D01*
X148579172Y-91190602D01*
X148433501Y-91130264D01*
X148433489Y-91130261D01*
X148278845Y-91099500D01*
X148278842Y-91099500D01*
X148121158Y-91099500D01*
X148121155Y-91099500D01*
X147966510Y-91130261D01*
X147966498Y-91130264D01*
X147820827Y-91190602D01*
X147820814Y-91190609D01*
X147689711Y-91278210D01*
X147689707Y-91278213D01*
X147578213Y-91389707D01*
X147578210Y-91389711D01*
X147490609Y-91520814D01*
X147490602Y-91520827D01*
X147430264Y-91666498D01*
X147430261Y-91666510D01*
X147399500Y-91821153D01*
X129520709Y-91821153D01*
X129659792Y-91720104D01*
X129810104Y-91569792D01*
X129810106Y-91569788D01*
X129810109Y-91569786D01*
X129935048Y-91397820D01*
X129935047Y-91397820D01*
X129935051Y-91397816D01*
X130031557Y-91208412D01*
X130097246Y-91006243D01*
X130130500Y-90796287D01*
X130130500Y-90583713D01*
X130097246Y-90373757D01*
X130031557Y-90171588D01*
X129935051Y-89982184D01*
X129935049Y-89982181D01*
X129935048Y-89982179D01*
X129810109Y-89810213D01*
X129659786Y-89659890D01*
X129487820Y-89534951D01*
X129487115Y-89534591D01*
X129479054Y-89530485D01*
X129428259Y-89482512D01*
X129411463Y-89414692D01*
X129433999Y-89348556D01*
X129479054Y-89309515D01*
X129487816Y-89305051D01*
X129523890Y-89278842D01*
X129659786Y-89180109D01*
X129659788Y-89180106D01*
X129659792Y-89180104D01*
X129718743Y-89121153D01*
X150954531Y-89121153D01*
X150954531Y-89278846D01*
X150985292Y-89433489D01*
X150985295Y-89433501D01*
X151045633Y-89579172D01*
X151045640Y-89579185D01*
X151133241Y-89710288D01*
X151133244Y-89710292D01*
X151244738Y-89821786D01*
X151244742Y-89821789D01*
X151375845Y-89909390D01*
X151375858Y-89909397D01*
X151521529Y-89969735D01*
X151521534Y-89969737D01*
X151676184Y-90000499D01*
X151676187Y-90000500D01*
X151676189Y-90000500D01*
X151833875Y-90000500D01*
X151833876Y-90000499D01*
X151988528Y-89969737D01*
X152101197Y-89923067D01*
X152134203Y-89909397D01*
X152134203Y-89909396D01*
X152134210Y-89909394D01*
X152265320Y-89821789D01*
X152376820Y-89710289D01*
X152464425Y-89579179D01*
X152524768Y-89433497D01*
X152555531Y-89278842D01*
X152555531Y-89121158D01*
X152555531Y-89121155D01*
X152555530Y-89121153D01*
X152535368Y-89019792D01*
X152524768Y-88966503D01*
X152520155Y-88955367D01*
X152464428Y-88820827D01*
X152464421Y-88820814D01*
X152376820Y-88689711D01*
X152376817Y-88689707D01*
X152265323Y-88578213D01*
X152265319Y-88578210D01*
X152134216Y-88490609D01*
X152134203Y-88490602D01*
X151988532Y-88430264D01*
X151988520Y-88430261D01*
X151833876Y-88399500D01*
X151833873Y-88399500D01*
X151676189Y-88399500D01*
X151676186Y-88399500D01*
X151521541Y-88430261D01*
X151521529Y-88430264D01*
X151375858Y-88490602D01*
X151375845Y-88490609D01*
X151244742Y-88578210D01*
X151244738Y-88578213D01*
X151133244Y-88689707D01*
X151133241Y-88689711D01*
X151045640Y-88820814D01*
X151045633Y-88820827D01*
X150985295Y-88966498D01*
X150985292Y-88966510D01*
X150954531Y-89121153D01*
X129718743Y-89121153D01*
X129810104Y-89029792D01*
X129810106Y-89029788D01*
X129810109Y-89029786D01*
X129935048Y-88857820D01*
X129935047Y-88857820D01*
X129935051Y-88857816D01*
X130031557Y-88668412D01*
X130097246Y-88466243D01*
X130130500Y-88256287D01*
X130130500Y-88043713D01*
X130097246Y-87833757D01*
X130031557Y-87631588D01*
X129935051Y-87442184D01*
X129935049Y-87442181D01*
X129935048Y-87442179D01*
X129810109Y-87270213D01*
X129659786Y-87119890D01*
X129487820Y-86994951D01*
X129487115Y-86994591D01*
X129479054Y-86990485D01*
X129428259Y-86942512D01*
X129411463Y-86874692D01*
X129433999Y-86808556D01*
X129479054Y-86769515D01*
X129487816Y-86765051D01*
X129509789Y-86749086D01*
X129659786Y-86640109D01*
X129659788Y-86640106D01*
X129659792Y-86640104D01*
X129810104Y-86489792D01*
X129810106Y-86489788D01*
X129810109Y-86489786D01*
X129935048Y-86317820D01*
X129935047Y-86317820D01*
X129935051Y-86317816D01*
X130031557Y-86128412D01*
X130097246Y-85926243D01*
X130130500Y-85716287D01*
X130130500Y-85503713D01*
X130097246Y-85293757D01*
X130031557Y-85091588D01*
X129935051Y-84902184D01*
X129935049Y-84902181D01*
X129935048Y-84902179D01*
X129810109Y-84730213D01*
X129659786Y-84579890D01*
X129487820Y-84454951D01*
X129487115Y-84454591D01*
X129479054Y-84450485D01*
X129428259Y-84402512D01*
X129411463Y-84334692D01*
X129433999Y-84268556D01*
X129479054Y-84229515D01*
X129487816Y-84225051D01*
X129568737Y-84166259D01*
X129659786Y-84100109D01*
X129659788Y-84100106D01*
X129659792Y-84100104D01*
X129810104Y-83949792D01*
X129810106Y-83949788D01*
X129810109Y-83949786D01*
X129935048Y-83777820D01*
X129935047Y-83777820D01*
X129935051Y-83777816D01*
X130031557Y-83588412D01*
X130097246Y-83386243D01*
X130130500Y-83176287D01*
X130130500Y-82963713D01*
X130124551Y-82926153D01*
X147199500Y-82926153D01*
X147199500Y-83083846D01*
X147230261Y-83238489D01*
X147230264Y-83238501D01*
X147290602Y-83384172D01*
X147290609Y-83384185D01*
X147378210Y-83515288D01*
X147378213Y-83515292D01*
X147489707Y-83626786D01*
X147489711Y-83626789D01*
X147620814Y-83714390D01*
X147620827Y-83714397D01*
X147766503Y-83774737D01*
X147770703Y-83776011D01*
X147829141Y-83814308D01*
X147849268Y-83847218D01*
X147890604Y-83947012D01*
X147890609Y-83947022D01*
X147978210Y-84078125D01*
X147978213Y-84078129D01*
X148089707Y-84189623D01*
X148089711Y-84189626D01*
X148195944Y-84260609D01*
X148240749Y-84314221D01*
X148248670Y-84339519D01*
X148274022Y-84466970D01*
X148274025Y-84466980D01*
X148334363Y-84612651D01*
X148334370Y-84612664D01*
X148421971Y-84743767D01*
X148421974Y-84743771D01*
X148533468Y-84855265D01*
X148533472Y-84855268D01*
X148664575Y-84942869D01*
X148664588Y-84942876D01*
X148810259Y-85003214D01*
X148810264Y-85003216D01*
X148964914Y-85033978D01*
X148964917Y-85033979D01*
X148964919Y-85033979D01*
X149122605Y-85033979D01*
X149122606Y-85033978D01*
X149277258Y-85003216D01*
X149422940Y-84942873D01*
X149554050Y-84855268D01*
X149616446Y-84792871D01*
X149677767Y-84759388D01*
X149747459Y-84764372D01*
X149773018Y-84777453D01*
X149820813Y-84809389D01*
X149820815Y-84809390D01*
X149820821Y-84809394D01*
X149820823Y-84809395D01*
X149820827Y-84809397D01*
X149966498Y-84869735D01*
X149966503Y-84869737D01*
X150079326Y-84892179D01*
X150121153Y-84900499D01*
X150121156Y-84900500D01*
X150121158Y-84900500D01*
X150278844Y-84900500D01*
X150278845Y-84900499D01*
X150433497Y-84869737D01*
X150579179Y-84809394D01*
X150710289Y-84721789D01*
X150821789Y-84610289D01*
X150909394Y-84479179D01*
X150919430Y-84454951D01*
X150967043Y-84340000D01*
X150969737Y-84333497D01*
X151000500Y-84178842D01*
X151000500Y-84166259D01*
X151020185Y-84099220D01*
X151072989Y-84053465D01*
X151077048Y-84051698D01*
X151179172Y-84009397D01*
X151179172Y-84009396D01*
X151179179Y-84009394D01*
X151310289Y-83921789D01*
X151421789Y-83810289D01*
X151509394Y-83679179D01*
X151569737Y-83533497D01*
X151600500Y-83378842D01*
X151600500Y-83221158D01*
X151600500Y-83221155D01*
X151585452Y-83145506D01*
X151591679Y-83075914D01*
X151634542Y-83020737D01*
X151682877Y-82999697D01*
X151833497Y-82969737D01*
X151951592Y-82920821D01*
X151979172Y-82909397D01*
X151979172Y-82909396D01*
X151979179Y-82909394D01*
X152110289Y-82821789D01*
X152221789Y-82710289D01*
X152309394Y-82579179D01*
X152369737Y-82433497D01*
X152400500Y-82278842D01*
X152400500Y-82121158D01*
X152400500Y-82121155D01*
X152400499Y-82121153D01*
X152384336Y-82039896D01*
X152369737Y-81966503D01*
X152346534Y-81910486D01*
X152309397Y-81820827D01*
X152309390Y-81820814D01*
X152221789Y-81689711D01*
X152221786Y-81689707D01*
X152143064Y-81610985D01*
X152109579Y-81549662D01*
X152114563Y-81479970D01*
X152156435Y-81424037D01*
X152194755Y-81404642D01*
X152200254Y-81402973D01*
X152200262Y-81402972D01*
X152345944Y-81342629D01*
X152477054Y-81255024D01*
X152588554Y-81143524D01*
X152676159Y-81012414D01*
X152736502Y-80866732D01*
X152767265Y-80712077D01*
X152767265Y-80554393D01*
X152767265Y-80554390D01*
X152767264Y-80554388D01*
X152743217Y-80433497D01*
X152736502Y-80399738D01*
X152736500Y-80399733D01*
X152676162Y-80254062D01*
X152676155Y-80254049D01*
X152588554Y-80122946D01*
X152588551Y-80122942D01*
X152477057Y-80011448D01*
X152477053Y-80011445D01*
X152345950Y-79923844D01*
X152345937Y-79923837D01*
X152200266Y-79863499D01*
X152200254Y-79863496D01*
X152045610Y-79832735D01*
X152045607Y-79832735D01*
X151983635Y-79832735D01*
X151916596Y-79813050D01*
X151880533Y-79777626D01*
X151821789Y-79689711D01*
X151821786Y-79689707D01*
X151710292Y-79578213D01*
X151710288Y-79578210D01*
X151579185Y-79490609D01*
X151579169Y-79490601D01*
X151577038Y-79489718D01*
X151576094Y-79488957D01*
X151573809Y-79487736D01*
X151574040Y-79487302D01*
X151522638Y-79445873D01*
X151500579Y-79379577D01*
X151500500Y-79375161D01*
X151500500Y-79221155D01*
X151500499Y-79221153D01*
X151485361Y-79145050D01*
X151469737Y-79066503D01*
X151446376Y-79010104D01*
X151409397Y-78920827D01*
X151409390Y-78920814D01*
X151321789Y-78789711D01*
X151321786Y-78789707D01*
X151210292Y-78678213D01*
X151210288Y-78678210D01*
X151079185Y-78590609D01*
X151079172Y-78590602D01*
X150933501Y-78530264D01*
X150933489Y-78530261D01*
X150778845Y-78499500D01*
X150778842Y-78499500D01*
X150621158Y-78499500D01*
X150621155Y-78499500D01*
X150466510Y-78530261D01*
X150466498Y-78530264D01*
X150320827Y-78590602D01*
X150320814Y-78590609D01*
X150189711Y-78678210D01*
X150189707Y-78678213D01*
X150078213Y-78789707D01*
X150078210Y-78789711D01*
X149990609Y-78920814D01*
X149990602Y-78920827D01*
X149930264Y-79066498D01*
X149930261Y-79066510D01*
X149899500Y-79221153D01*
X149899500Y-79378846D01*
X149930261Y-79533489D01*
X149930264Y-79533501D01*
X149990602Y-79679172D01*
X149990609Y-79679185D01*
X150078210Y-79810288D01*
X150078213Y-79810292D01*
X150189710Y-79921789D01*
X150320815Y-80009390D01*
X150320821Y-80009394D01*
X150322945Y-80010274D01*
X150323885Y-80011031D01*
X150326192Y-80012264D01*
X150325958Y-80012701D01*
X150377349Y-80054107D01*
X150399421Y-80120399D01*
X150399500Y-80124837D01*
X150399500Y-80278846D01*
X150430261Y-80433489D01*
X150430264Y-80433501D01*
X150490602Y-80579172D01*
X150490609Y-80579185D01*
X150578210Y-80710288D01*
X150578213Y-80710292D01*
X150689707Y-80821786D01*
X150689711Y-80821789D01*
X150820814Y-80909390D01*
X150820827Y-80909397D01*
X150966498Y-80969735D01*
X150966503Y-80969737D01*
X151121153Y-81000499D01*
X151121156Y-81000500D01*
X151121158Y-81000500D01*
X151183130Y-81000500D01*
X151184642Y-81000944D01*
X151186166Y-81000537D01*
X151218069Y-81010759D01*
X151250169Y-81020185D01*
X151251683Y-81021529D01*
X151252704Y-81021857D01*
X151257592Y-81026777D01*
X151278803Y-81045616D01*
X151282773Y-81050432D01*
X151344976Y-81143524D01*
X151427905Y-81226453D01*
X151431692Y-81231046D01*
X151443178Y-81257921D01*
X151457185Y-81283572D01*
X151456748Y-81289671D01*
X151459152Y-81295294D01*
X151454285Y-81324109D01*
X151452201Y-81353264D01*
X151448535Y-81358159D01*
X151447518Y-81364188D01*
X151427843Y-81385800D01*
X151410329Y-81409197D01*
X151403312Y-81412748D01*
X151400484Y-81415856D01*
X151393472Y-81417729D01*
X151372021Y-81428588D01*
X151366507Y-81430260D01*
X151220827Y-81490602D01*
X151220814Y-81490609D01*
X151089711Y-81578210D01*
X151089707Y-81578213D01*
X150978213Y-81689707D01*
X150978210Y-81689711D01*
X150890609Y-81820814D01*
X150890602Y-81820827D01*
X150830264Y-81966498D01*
X150830261Y-81966510D01*
X150799500Y-82121153D01*
X150799500Y-82278846D01*
X150814547Y-82354494D01*
X150808320Y-82424086D01*
X150765456Y-82479263D01*
X150717122Y-82500302D01*
X150566508Y-82530261D01*
X150566498Y-82530264D01*
X150420827Y-82590602D01*
X150420814Y-82590609D01*
X150289711Y-82678210D01*
X150289707Y-82678213D01*
X150178213Y-82789707D01*
X150178210Y-82789711D01*
X150090609Y-82920814D01*
X150090602Y-82920827D01*
X150030264Y-83066498D01*
X150030261Y-83066510D01*
X149999500Y-83221153D01*
X149999500Y-83233740D01*
X149979815Y-83300779D01*
X149927011Y-83346534D01*
X149922953Y-83348301D01*
X149820824Y-83390604D01*
X149820814Y-83390609D01*
X149689711Y-83478210D01*
X149627315Y-83540606D01*
X149599443Y-83555824D01*
X149572437Y-83572506D01*
X149569004Y-83572444D01*
X149565991Y-83574090D01*
X149534328Y-83571825D01*
X149502579Y-83571258D01*
X149498391Y-83569254D01*
X149496300Y-83569105D01*
X149470743Y-83556026D01*
X149447814Y-83540705D01*
X149403010Y-83487092D01*
X149395090Y-83461795D01*
X149372514Y-83348301D01*
X149369737Y-83334340D01*
X149355836Y-83300779D01*
X149309397Y-83188664D01*
X149309390Y-83188651D01*
X149221789Y-83057548D01*
X149221786Y-83057544D01*
X149110292Y-82946050D01*
X149110288Y-82946047D01*
X148979185Y-82858446D01*
X148979172Y-82858439D01*
X148833497Y-82798099D01*
X148829292Y-82796824D01*
X148770855Y-82758524D01*
X148750731Y-82725617D01*
X148709397Y-82625827D01*
X148709390Y-82625814D01*
X148621789Y-82494711D01*
X148621786Y-82494707D01*
X148510292Y-82383213D01*
X148510288Y-82383210D01*
X148379185Y-82295609D01*
X148379172Y-82295602D01*
X148233501Y-82235264D01*
X148233489Y-82235261D01*
X148078845Y-82204500D01*
X148078842Y-82204500D01*
X147921158Y-82204500D01*
X147921155Y-82204500D01*
X147766510Y-82235261D01*
X147766498Y-82235264D01*
X147620827Y-82295602D01*
X147620814Y-82295609D01*
X147489711Y-82383210D01*
X147489707Y-82383213D01*
X147378213Y-82494707D01*
X147378210Y-82494711D01*
X147290609Y-82625814D01*
X147290602Y-82625827D01*
X147230264Y-82771498D01*
X147230261Y-82771510D01*
X147199500Y-82926153D01*
X130124551Y-82926153D01*
X130097246Y-82753757D01*
X130031557Y-82551588D01*
X129935051Y-82362184D01*
X129935049Y-82362181D01*
X129935048Y-82362179D01*
X129810109Y-82190213D01*
X129659786Y-82039890D01*
X129487820Y-81914951D01*
X129487115Y-81914591D01*
X129479054Y-81910485D01*
X129428259Y-81862512D01*
X129411463Y-81794692D01*
X129433999Y-81728556D01*
X129479054Y-81689515D01*
X129487816Y-81685051D01*
X129589760Y-81610985D01*
X129659786Y-81560109D01*
X129659788Y-81560106D01*
X129659792Y-81560104D01*
X129810104Y-81409792D01*
X129810106Y-81409788D01*
X129810109Y-81409786D01*
X129935048Y-81237820D01*
X129935047Y-81237820D01*
X129935051Y-81237816D01*
X130031557Y-81048412D01*
X130097246Y-80846243D01*
X130130500Y-80636287D01*
X130130500Y-80423713D01*
X130097246Y-80213757D01*
X130031557Y-80011588D01*
X129935051Y-79822184D01*
X129935049Y-79822181D01*
X129935048Y-79822179D01*
X129810109Y-79650213D01*
X129659786Y-79499890D01*
X129487820Y-79374951D01*
X129487115Y-79374591D01*
X129479054Y-79370485D01*
X129428259Y-79322512D01*
X129411463Y-79254692D01*
X129433999Y-79188556D01*
X129479054Y-79149515D01*
X129487816Y-79145051D01*
X129509789Y-79129086D01*
X129659786Y-79020109D01*
X129659788Y-79020106D01*
X129659792Y-79020104D01*
X129810104Y-78869792D01*
X129810106Y-78869788D01*
X129810109Y-78869786D01*
X129935048Y-78697820D01*
X129935047Y-78697820D01*
X129935051Y-78697816D01*
X130031557Y-78508412D01*
X130097246Y-78306243D01*
X130130500Y-78096287D01*
X130130500Y-77883713D01*
X130104753Y-77721153D01*
X153499500Y-77721153D01*
X153499500Y-77878846D01*
X153530261Y-78033489D01*
X153530264Y-78033501D01*
X153590602Y-78179172D01*
X153590609Y-78179185D01*
X153678210Y-78310288D01*
X153678213Y-78310292D01*
X153789707Y-78421786D01*
X153789711Y-78421789D01*
X153920814Y-78509390D01*
X153920827Y-78509397D01*
X154066498Y-78569735D01*
X154066503Y-78569737D01*
X154221153Y-78600499D01*
X154221156Y-78600500D01*
X154221158Y-78600500D01*
X154378844Y-78600500D01*
X154378845Y-78600499D01*
X154533497Y-78569737D01*
X154679179Y-78509394D01*
X154810289Y-78421789D01*
X154921789Y-78310289D01*
X155009394Y-78179179D01*
X155069737Y-78033497D01*
X155100500Y-77878842D01*
X155100500Y-77821153D01*
X156299500Y-77821153D01*
X156299500Y-77978846D01*
X156330261Y-78133489D01*
X156330264Y-78133501D01*
X156390602Y-78279172D01*
X156390609Y-78279185D01*
X156478210Y-78410288D01*
X156478213Y-78410292D01*
X156589707Y-78521786D01*
X156589711Y-78521789D01*
X156720814Y-78609390D01*
X156720827Y-78609397D01*
X156866498Y-78669735D01*
X156866503Y-78669737D01*
X157007665Y-78697816D01*
X157021153Y-78700499D01*
X157021156Y-78700500D01*
X157021158Y-78700500D01*
X157178844Y-78700500D01*
X157178845Y-78700499D01*
X157333497Y-78669737D01*
X157479179Y-78609394D01*
X157610289Y-78521789D01*
X157721789Y-78410289D01*
X157809394Y-78279179D01*
X157869737Y-78133497D01*
X157900500Y-77978842D01*
X157900500Y-77821158D01*
X157900500Y-77821155D01*
X157900499Y-77821153D01*
X157881464Y-77725459D01*
X157869737Y-77666503D01*
X157830099Y-77570808D01*
X157809397Y-77520827D01*
X157809390Y-77520814D01*
X157779392Y-77475919D01*
X157737427Y-77413115D01*
X158286363Y-77413115D01*
X158286363Y-77570808D01*
X158317124Y-77725451D01*
X158317127Y-77725463D01*
X158377465Y-77871134D01*
X158377472Y-77871147D01*
X158465073Y-78002250D01*
X158465076Y-78002254D01*
X158576570Y-78113748D01*
X158576574Y-78113751D01*
X158707677Y-78201352D01*
X158707690Y-78201359D01*
X158853361Y-78261697D01*
X158853366Y-78261699D01*
X159008016Y-78292461D01*
X159008019Y-78292462D01*
X159008021Y-78292462D01*
X159165707Y-78292462D01*
X159165708Y-78292461D01*
X159320360Y-78261699D01*
X159466042Y-78201356D01*
X159597152Y-78113751D01*
X159708652Y-78002251D01*
X159796257Y-77871141D01*
X159856600Y-77725459D01*
X159887363Y-77570804D01*
X159887363Y-77413120D01*
X159887363Y-77413117D01*
X159887362Y-77413115D01*
X159860528Y-77278213D01*
X159856600Y-77258465D01*
X159856325Y-77257802D01*
X159856285Y-77257428D01*
X159854832Y-77252638D01*
X159855740Y-77252362D01*
X159848853Y-77188337D01*
X159867780Y-77141456D01*
X159909394Y-77079179D01*
X159969737Y-76933497D01*
X160000500Y-76778842D01*
X160000500Y-76621158D01*
X160000500Y-76621155D01*
X160000499Y-76621153D01*
X159997296Y-76605050D01*
X159969737Y-76466503D01*
X159950955Y-76421158D01*
X159909397Y-76320827D01*
X159909390Y-76320814D01*
X159821789Y-76189711D01*
X159821786Y-76189707D01*
X159710292Y-76078213D01*
X159710288Y-76078210D01*
X159579185Y-75990609D01*
X159579172Y-75990602D01*
X159433501Y-75930264D01*
X159433489Y-75930261D01*
X159278845Y-75899500D01*
X159278842Y-75899500D01*
X159121158Y-75899500D01*
X159121155Y-75899500D01*
X158966510Y-75930261D01*
X158966498Y-75930264D01*
X158820827Y-75990602D01*
X158820814Y-75990609D01*
X158689711Y-76078210D01*
X158689707Y-76078213D01*
X158578213Y-76189707D01*
X158578210Y-76189711D01*
X158490609Y-76320814D01*
X158490602Y-76320827D01*
X158430264Y-76466498D01*
X158430261Y-76466510D01*
X158399500Y-76621153D01*
X158399500Y-76778846D01*
X158430260Y-76933488D01*
X158430263Y-76933498D01*
X158430539Y-76934163D01*
X158430579Y-76934538D01*
X158432030Y-76939320D01*
X158431123Y-76939595D01*
X158438008Y-77003633D01*
X158419081Y-77050504D01*
X158377468Y-77112783D01*
X158377467Y-77112784D01*
X158317127Y-77258460D01*
X158317124Y-77258472D01*
X158286363Y-77413115D01*
X157737427Y-77413115D01*
X157721789Y-77389711D01*
X157721786Y-77389707D01*
X157610292Y-77278213D01*
X157610288Y-77278210D01*
X157479185Y-77190609D01*
X157479172Y-77190602D01*
X157333501Y-77130264D01*
X157333489Y-77130261D01*
X157178845Y-77099500D01*
X157178842Y-77099500D01*
X157021158Y-77099500D01*
X157021155Y-77099500D01*
X156866510Y-77130261D01*
X156866498Y-77130264D01*
X156720827Y-77190602D01*
X156720814Y-77190609D01*
X156589711Y-77278210D01*
X156589707Y-77278213D01*
X156478213Y-77389707D01*
X156478210Y-77389711D01*
X156390609Y-77520814D01*
X156390602Y-77520827D01*
X156330264Y-77666498D01*
X156330261Y-77666510D01*
X156299500Y-77821153D01*
X155100500Y-77821153D01*
X155100500Y-77721158D01*
X155100500Y-77721155D01*
X155100499Y-77721153D01*
X155070593Y-77570806D01*
X155069737Y-77566503D01*
X155050812Y-77520814D01*
X155009397Y-77420827D01*
X155009392Y-77420818D01*
X154998523Y-77404552D01*
X154977644Y-77337875D01*
X154996127Y-77270495D01*
X155048105Y-77223803D01*
X155117075Y-77212625D01*
X155149076Y-77221098D01*
X155266498Y-77269735D01*
X155266503Y-77269737D01*
X155421153Y-77300499D01*
X155421156Y-77300500D01*
X155421158Y-77300500D01*
X155578844Y-77300500D01*
X155578845Y-77300499D01*
X155733497Y-77269737D01*
X155871379Y-77212625D01*
X155879172Y-77209397D01*
X155879172Y-77209396D01*
X155879179Y-77209394D01*
X156010289Y-77121789D01*
X156121789Y-77010289D01*
X156209394Y-76879179D01*
X156269737Y-76733497D01*
X156300500Y-76578842D01*
X156300500Y-76421158D01*
X156300500Y-76421155D01*
X156300499Y-76421153D01*
X156280734Y-76321789D01*
X156269737Y-76266503D01*
X156265124Y-76255367D01*
X156209397Y-76120827D01*
X156209390Y-76120814D01*
X156121789Y-75989711D01*
X156121786Y-75989707D01*
X156010292Y-75878213D01*
X156010288Y-75878210D01*
X155879185Y-75790609D01*
X155879172Y-75790602D01*
X155733501Y-75730264D01*
X155733489Y-75730261D01*
X155578845Y-75699500D01*
X155578842Y-75699500D01*
X155421158Y-75699500D01*
X155421155Y-75699500D01*
X155266510Y-75730261D01*
X155266498Y-75730264D01*
X155120827Y-75790602D01*
X155120814Y-75790609D01*
X154989711Y-75878210D01*
X154989707Y-75878213D01*
X154878213Y-75989707D01*
X154878210Y-75989711D01*
X154790609Y-76120814D01*
X154790602Y-76120827D01*
X154730264Y-76266498D01*
X154730261Y-76266510D01*
X154699500Y-76421153D01*
X154699500Y-76578846D01*
X154730261Y-76733489D01*
X154730264Y-76733501D01*
X154790602Y-76879172D01*
X154790610Y-76879187D01*
X154801476Y-76895448D01*
X154822355Y-76962125D01*
X154803871Y-77029505D01*
X154751893Y-77076196D01*
X154682923Y-77087373D01*
X154650923Y-77078901D01*
X154533501Y-77030264D01*
X154533489Y-77030261D01*
X154378845Y-76999500D01*
X154378842Y-76999500D01*
X154221158Y-76999500D01*
X154221155Y-76999500D01*
X154066510Y-77030261D01*
X154066498Y-77030264D01*
X153920827Y-77090602D01*
X153920814Y-77090609D01*
X153789711Y-77178210D01*
X153789707Y-77178213D01*
X153678213Y-77289707D01*
X153678210Y-77289711D01*
X153590609Y-77420814D01*
X153590602Y-77420827D01*
X153530264Y-77566498D01*
X153530261Y-77566510D01*
X153499500Y-77721153D01*
X130104753Y-77721153D01*
X130097246Y-77673757D01*
X130031557Y-77471588D01*
X129935051Y-77282184D01*
X129935049Y-77282181D01*
X129935048Y-77282179D01*
X129810109Y-77110213D01*
X129659786Y-76959890D01*
X129487820Y-76834951D01*
X129487115Y-76834591D01*
X129479054Y-76830485D01*
X129428259Y-76782512D01*
X129411463Y-76714692D01*
X129433999Y-76648556D01*
X129479054Y-76609515D01*
X129487816Y-76605051D01*
X129523890Y-76578842D01*
X129659786Y-76480109D01*
X129659788Y-76480106D01*
X129659792Y-76480104D01*
X129810104Y-76329792D01*
X129810106Y-76329788D01*
X129810109Y-76329786D01*
X129896925Y-76210292D01*
X129935051Y-76157816D01*
X129953732Y-76121153D01*
X136499500Y-76121153D01*
X136499500Y-76278846D01*
X136530261Y-76433489D01*
X136530264Y-76433501D01*
X136590602Y-76579172D01*
X136590609Y-76579185D01*
X136678210Y-76710288D01*
X136678213Y-76710292D01*
X136789707Y-76821786D01*
X136789711Y-76821789D01*
X136920814Y-76909390D01*
X136920827Y-76909397D01*
X137048126Y-76962125D01*
X137066503Y-76969737D01*
X137195509Y-76995398D01*
X137221153Y-77000499D01*
X137221156Y-77000500D01*
X137221158Y-77000500D01*
X137378844Y-77000500D01*
X137378845Y-77000499D01*
X137533497Y-76969737D01*
X137679179Y-76909394D01*
X137810289Y-76821789D01*
X137921789Y-76710289D01*
X138009394Y-76579179D01*
X138069737Y-76433497D01*
X138100500Y-76278842D01*
X138100500Y-76121158D01*
X138100500Y-76121155D01*
X138100499Y-76121153D01*
X138074531Y-75990606D01*
X138069737Y-75966503D01*
X138069735Y-75966498D01*
X138009397Y-75820827D01*
X138009390Y-75820814D01*
X137921790Y-75689712D01*
X137921784Y-75689705D01*
X137853232Y-75621153D01*
X140099500Y-75621153D01*
X140099500Y-75778846D01*
X140130261Y-75933489D01*
X140130264Y-75933501D01*
X140190602Y-76079172D01*
X140190609Y-76079185D01*
X140278210Y-76210288D01*
X140278213Y-76210292D01*
X140389707Y-76321786D01*
X140389711Y-76321789D01*
X140520814Y-76409390D01*
X140520827Y-76409397D01*
X140658683Y-76466498D01*
X140666503Y-76469737D01*
X140821153Y-76500499D01*
X140821156Y-76500500D01*
X140821158Y-76500500D01*
X140978844Y-76500500D01*
X140978845Y-76500499D01*
X141133497Y-76469737D01*
X141279179Y-76409394D01*
X141410289Y-76321789D01*
X141521789Y-76210289D01*
X141609394Y-76079179D01*
X141669737Y-75933497D01*
X141700500Y-75778842D01*
X141700500Y-75621158D01*
X141700500Y-75621155D01*
X141700499Y-75621153D01*
X145899500Y-75621153D01*
X145899500Y-75778846D01*
X145930261Y-75933489D01*
X145930264Y-75933501D01*
X145990602Y-76079172D01*
X145990609Y-76079185D01*
X146078210Y-76210288D01*
X146078213Y-76210292D01*
X146189707Y-76321786D01*
X146189711Y-76321789D01*
X146320814Y-76409390D01*
X146320827Y-76409397D01*
X146458683Y-76466498D01*
X146466503Y-76469737D01*
X146621153Y-76500499D01*
X146621156Y-76500500D01*
X146621158Y-76500500D01*
X146778844Y-76500500D01*
X146778845Y-76500499D01*
X146933497Y-76469737D01*
X147079179Y-76409394D01*
X147181111Y-76341284D01*
X147247786Y-76320408D01*
X147315166Y-76338892D01*
X147318847Y-76341257D01*
X147420821Y-76409394D01*
X147420823Y-76409395D01*
X147420827Y-76409397D01*
X147558683Y-76466498D01*
X147566503Y-76469737D01*
X147721153Y-76500499D01*
X147721156Y-76500500D01*
X147721158Y-76500500D01*
X147878844Y-76500500D01*
X147878845Y-76500499D01*
X148033497Y-76469737D01*
X148179179Y-76409394D01*
X148310289Y-76321789D01*
X148421789Y-76210289D01*
X148440553Y-76182205D01*
X148494162Y-76137402D01*
X148563486Y-76128692D01*
X148626515Y-76158845D01*
X148631336Y-76163415D01*
X148689707Y-76221786D01*
X148689711Y-76221789D01*
X148820814Y-76309390D01*
X148820827Y-76309397D01*
X148962698Y-76368161D01*
X148966503Y-76369737D01*
X149121153Y-76400499D01*
X149121156Y-76400500D01*
X149121158Y-76400500D01*
X149278844Y-76400500D01*
X149278845Y-76400499D01*
X149433497Y-76369737D01*
X149551592Y-76320821D01*
X149579172Y-76309397D01*
X149579172Y-76309396D01*
X149579179Y-76309394D01*
X149710289Y-76221789D01*
X149821789Y-76110289D01*
X149909394Y-75979179D01*
X149969737Y-75833497D01*
X150000500Y-75678842D01*
X150000500Y-75521158D01*
X150000500Y-75521155D01*
X150000499Y-75521153D01*
X149982419Y-75430261D01*
X149969737Y-75366503D01*
X149927774Y-75265194D01*
X149909397Y-75220827D01*
X149909390Y-75220814D01*
X149821789Y-75089711D01*
X149821786Y-75089707D01*
X149710292Y-74978213D01*
X149710288Y-74978210D01*
X149579185Y-74890609D01*
X149579172Y-74890602D01*
X149433501Y-74830264D01*
X149433489Y-74830261D01*
X149278845Y-74799500D01*
X149278842Y-74799500D01*
X149121158Y-74799500D01*
X149121155Y-74799500D01*
X148966510Y-74830261D01*
X148966498Y-74830264D01*
X148820827Y-74890602D01*
X148820814Y-74890609D01*
X148689711Y-74978210D01*
X148689707Y-74978213D01*
X148578213Y-75089707D01*
X148578210Y-75089711D01*
X148559446Y-75117794D01*
X148505833Y-75162599D01*
X148436508Y-75171306D01*
X148373481Y-75141151D01*
X148368663Y-75136584D01*
X148310292Y-75078213D01*
X148310288Y-75078210D01*
X148179185Y-74990609D01*
X148179172Y-74990602D01*
X148033501Y-74930264D01*
X148033489Y-74930261D01*
X147878845Y-74899500D01*
X147878842Y-74899500D01*
X147721158Y-74899500D01*
X147721155Y-74899500D01*
X147566510Y-74930261D01*
X147566498Y-74930264D01*
X147420827Y-74990602D01*
X147420814Y-74990609D01*
X147318891Y-75058713D01*
X147252213Y-75079591D01*
X147184833Y-75061107D01*
X147181109Y-75058713D01*
X147079185Y-74990609D01*
X147079172Y-74990602D01*
X146933501Y-74930264D01*
X146933489Y-74930261D01*
X146778845Y-74899500D01*
X146778842Y-74899500D01*
X146621158Y-74899500D01*
X146621155Y-74899500D01*
X146466510Y-74930261D01*
X146466498Y-74930264D01*
X146320827Y-74990602D01*
X146320814Y-74990609D01*
X146189711Y-75078210D01*
X146189707Y-75078213D01*
X146078213Y-75189707D01*
X146078210Y-75189711D01*
X145990609Y-75320814D01*
X145990602Y-75320827D01*
X145930264Y-75466498D01*
X145930261Y-75466510D01*
X145899500Y-75621153D01*
X141700499Y-75621153D01*
X141685607Y-75546286D01*
X141669737Y-75466503D01*
X141669735Y-75466498D01*
X141609397Y-75320827D01*
X141609390Y-75320814D01*
X141521789Y-75189711D01*
X141521786Y-75189707D01*
X141410292Y-75078213D01*
X141410288Y-75078210D01*
X141279185Y-74990609D01*
X141279172Y-74990602D01*
X141133501Y-74930264D01*
X141133489Y-74930261D01*
X140978845Y-74899500D01*
X140978842Y-74899500D01*
X140821158Y-74899500D01*
X140821155Y-74899500D01*
X140666510Y-74930261D01*
X140666498Y-74930264D01*
X140520827Y-74990602D01*
X140520814Y-74990609D01*
X140389711Y-75078210D01*
X140389707Y-75078213D01*
X140278213Y-75189707D01*
X140278210Y-75189711D01*
X140190609Y-75320814D01*
X140190602Y-75320827D01*
X140130264Y-75466498D01*
X140130261Y-75466510D01*
X140099500Y-75621153D01*
X137853232Y-75621153D01*
X137810292Y-75578213D01*
X137810288Y-75578210D01*
X137679185Y-75490609D01*
X137679172Y-75490602D01*
X137533501Y-75430264D01*
X137533489Y-75430261D01*
X137378845Y-75399500D01*
X137378842Y-75399500D01*
X137221158Y-75399500D01*
X137221155Y-75399500D01*
X137066510Y-75430261D01*
X137066498Y-75430264D01*
X136920827Y-75490602D01*
X136920814Y-75490609D01*
X136789711Y-75578210D01*
X136789707Y-75578213D01*
X136678213Y-75689707D01*
X136678210Y-75689711D01*
X136590609Y-75820814D01*
X136590602Y-75820827D01*
X136530264Y-75966498D01*
X136530261Y-75966510D01*
X136499500Y-76121153D01*
X129953732Y-76121153D01*
X130031557Y-75968412D01*
X130097246Y-75766243D01*
X130130500Y-75556287D01*
X130130500Y-75343713D01*
X130097246Y-75133757D01*
X130031557Y-74931588D01*
X129935051Y-74742184D01*
X129935049Y-74742181D01*
X129935048Y-74742179D01*
X129810109Y-74570213D01*
X129659786Y-74419890D01*
X129487820Y-74294951D01*
X129487115Y-74294591D01*
X129479054Y-74290485D01*
X129428259Y-74242512D01*
X129411463Y-74174692D01*
X129433999Y-74108556D01*
X129479054Y-74069515D01*
X129487816Y-74065051D01*
X129509789Y-74049086D01*
X129659786Y-73940109D01*
X129659788Y-73940106D01*
X129659792Y-73940104D01*
X129678743Y-73921153D01*
X134399500Y-73921153D01*
X134399500Y-74078846D01*
X134430261Y-74233489D01*
X134430264Y-74233501D01*
X134490602Y-74379172D01*
X134490609Y-74379185D01*
X134578210Y-74510288D01*
X134578213Y-74510292D01*
X134689707Y-74621786D01*
X134689711Y-74621789D01*
X134820814Y-74709390D01*
X134820827Y-74709397D01*
X134966498Y-74769735D01*
X134966503Y-74769737D01*
X135116131Y-74799500D01*
X135121153Y-74800499D01*
X135121156Y-74800500D01*
X135121158Y-74800500D01*
X135278844Y-74800500D01*
X135278845Y-74800499D01*
X135433497Y-74769737D01*
X135579179Y-74709394D01*
X135710289Y-74621789D01*
X135821789Y-74510289D01*
X135909394Y-74379179D01*
X135969737Y-74233497D01*
X136000500Y-74078842D01*
X136000500Y-73921158D01*
X136000500Y-73921155D01*
X136000499Y-73921153D01*
X135969737Y-73766503D01*
X135965087Y-73755276D01*
X135909397Y-73620827D01*
X135909390Y-73620814D01*
X135821789Y-73489711D01*
X135821786Y-73489707D01*
X135710292Y-73378213D01*
X135710288Y-73378210D01*
X135579185Y-73290609D01*
X135579172Y-73290602D01*
X135433501Y-73230264D01*
X135433489Y-73230261D01*
X135278845Y-73199500D01*
X135278842Y-73199500D01*
X135121158Y-73199500D01*
X135121155Y-73199500D01*
X134966510Y-73230261D01*
X134966498Y-73230264D01*
X134820827Y-73290602D01*
X134820814Y-73290609D01*
X134689711Y-73378210D01*
X134689707Y-73378213D01*
X134578213Y-73489707D01*
X134578210Y-73489711D01*
X134490609Y-73620814D01*
X134490602Y-73620827D01*
X134430264Y-73766498D01*
X134430261Y-73766510D01*
X134399500Y-73921153D01*
X129678743Y-73921153D01*
X129810104Y-73789792D01*
X129810106Y-73789788D01*
X129810109Y-73789786D01*
X129935048Y-73617820D01*
X129935047Y-73617820D01*
X129935051Y-73617816D01*
X130031557Y-73428412D01*
X130097246Y-73226243D01*
X130130500Y-73016287D01*
X130130500Y-72803713D01*
X130117424Y-72721153D01*
X141999500Y-72721153D01*
X141999500Y-72878846D01*
X142030261Y-73033489D01*
X142030264Y-73033501D01*
X142090602Y-73179172D01*
X142090609Y-73179185D01*
X142178210Y-73310288D01*
X142178213Y-73310292D01*
X142289707Y-73421786D01*
X142289711Y-73421789D01*
X142420814Y-73509390D01*
X142420827Y-73509397D01*
X142566498Y-73569735D01*
X142566503Y-73569737D01*
X142721153Y-73600499D01*
X142721156Y-73600500D01*
X142721158Y-73600500D01*
X142878844Y-73600500D01*
X142878845Y-73600499D01*
X143033497Y-73569737D01*
X143179179Y-73509394D01*
X143310289Y-73421789D01*
X143421789Y-73310289D01*
X143509394Y-73179179D01*
X143569737Y-73033497D01*
X143600500Y-72878842D01*
X143600500Y-72721158D01*
X143600500Y-72721155D01*
X143600499Y-72721153D01*
X143578269Y-72609397D01*
X143569737Y-72566503D01*
X143532907Y-72477587D01*
X143509397Y-72420827D01*
X143509390Y-72420814D01*
X143421789Y-72289711D01*
X143421786Y-72289707D01*
X143310292Y-72178213D01*
X143310288Y-72178210D01*
X143224897Y-72121153D01*
X149299500Y-72121153D01*
X149299500Y-72278846D01*
X149330261Y-72433489D01*
X149330264Y-72433501D01*
X149390602Y-72579172D01*
X149390609Y-72579185D01*
X149478210Y-72710288D01*
X149478213Y-72710292D01*
X149589707Y-72821786D01*
X149589711Y-72821789D01*
X149720814Y-72909390D01*
X149720827Y-72909397D01*
X149866498Y-72969735D01*
X149866503Y-72969737D01*
X150021153Y-73000499D01*
X150021156Y-73000500D01*
X150021158Y-73000500D01*
X150178844Y-73000500D01*
X150178845Y-73000499D01*
X150333497Y-72969737D01*
X150479179Y-72909394D01*
X150610289Y-72821789D01*
X150721789Y-72710289D01*
X150809394Y-72579179D01*
X150869737Y-72433497D01*
X150900500Y-72278842D01*
X150900500Y-72121158D01*
X150900500Y-72121155D01*
X150900499Y-72121153D01*
X150891598Y-72076405D01*
X150869737Y-71966503D01*
X150869735Y-71966498D01*
X150826666Y-71862518D01*
X150809532Y-71821153D01*
X161699500Y-71821153D01*
X161699500Y-71978846D01*
X161730261Y-72133489D01*
X161730264Y-72133501D01*
X161790602Y-72279172D01*
X161790609Y-72279185D01*
X161878210Y-72410288D01*
X161878213Y-72410292D01*
X161989707Y-72521786D01*
X161989711Y-72521789D01*
X162120814Y-72609390D01*
X162120827Y-72609397D01*
X162266498Y-72669735D01*
X162266503Y-72669737D01*
X162421153Y-72700499D01*
X162421156Y-72700500D01*
X162421158Y-72700500D01*
X162578844Y-72700500D01*
X162578845Y-72700499D01*
X162733497Y-72669737D01*
X162879179Y-72609394D01*
X163010289Y-72521789D01*
X163121789Y-72410289D01*
X163209394Y-72279179D01*
X163269737Y-72133497D01*
X163300500Y-71978842D01*
X163300500Y-71821158D01*
X163300500Y-71821155D01*
X163300499Y-71821153D01*
X163300432Y-71820814D01*
X163269737Y-71666503D01*
X163269735Y-71666498D01*
X163209397Y-71520827D01*
X163209390Y-71520814D01*
X163121789Y-71389711D01*
X163121786Y-71389707D01*
X163010292Y-71278213D01*
X163010288Y-71278210D01*
X162879185Y-71190609D01*
X162879172Y-71190602D01*
X162733501Y-71130264D01*
X162733489Y-71130261D01*
X162578845Y-71099500D01*
X162578842Y-71099500D01*
X162421158Y-71099500D01*
X162421155Y-71099500D01*
X162266510Y-71130261D01*
X162266498Y-71130264D01*
X162120827Y-71190602D01*
X162120814Y-71190609D01*
X161989711Y-71278210D01*
X161989707Y-71278213D01*
X161878213Y-71389707D01*
X161878210Y-71389711D01*
X161790609Y-71520814D01*
X161790602Y-71520827D01*
X161730264Y-71666498D01*
X161730261Y-71666510D01*
X161699500Y-71821153D01*
X150809532Y-71821153D01*
X150809395Y-71820823D01*
X150809390Y-71820814D01*
X150721789Y-71689711D01*
X150721786Y-71689707D01*
X150610292Y-71578213D01*
X150610288Y-71578210D01*
X150479185Y-71490609D01*
X150479172Y-71490602D01*
X150333501Y-71430264D01*
X150333489Y-71430261D01*
X150178845Y-71399500D01*
X150178842Y-71399500D01*
X150021158Y-71399500D01*
X150021155Y-71399500D01*
X149866510Y-71430261D01*
X149866498Y-71430264D01*
X149720827Y-71490602D01*
X149720814Y-71490609D01*
X149589711Y-71578210D01*
X149589707Y-71578213D01*
X149478213Y-71689707D01*
X149478210Y-71689711D01*
X149390609Y-71820814D01*
X149390602Y-71820827D01*
X149330264Y-71966498D01*
X149330261Y-71966510D01*
X149299500Y-72121153D01*
X143224897Y-72121153D01*
X143179185Y-72090609D01*
X143179172Y-72090602D01*
X143033501Y-72030264D01*
X143033489Y-72030261D01*
X142878845Y-71999500D01*
X142878842Y-71999500D01*
X142721158Y-71999500D01*
X142721155Y-71999500D01*
X142566510Y-72030261D01*
X142566498Y-72030264D01*
X142420827Y-72090602D01*
X142420814Y-72090609D01*
X142289711Y-72178210D01*
X142289707Y-72178213D01*
X142178213Y-72289707D01*
X142178210Y-72289711D01*
X142090609Y-72420814D01*
X142090602Y-72420827D01*
X142030264Y-72566498D01*
X142030261Y-72566510D01*
X141999500Y-72721153D01*
X130117424Y-72721153D01*
X130097246Y-72593757D01*
X130031557Y-72391588D01*
X129935051Y-72202184D01*
X129935049Y-72202181D01*
X129935048Y-72202179D01*
X129810109Y-72030213D01*
X129659786Y-71879890D01*
X129578940Y-71821153D01*
X132499500Y-71821153D01*
X132499500Y-71978846D01*
X132530261Y-72133489D01*
X132530264Y-72133501D01*
X132590602Y-72279172D01*
X132590609Y-72279185D01*
X132678210Y-72410288D01*
X132678213Y-72410292D01*
X132789707Y-72521786D01*
X132789711Y-72521789D01*
X132920814Y-72609390D01*
X132920827Y-72609397D01*
X133066498Y-72669735D01*
X133066503Y-72669737D01*
X133221153Y-72700499D01*
X133221156Y-72700500D01*
X133221158Y-72700500D01*
X133378844Y-72700500D01*
X133378845Y-72700499D01*
X133533497Y-72669737D01*
X133679179Y-72609394D01*
X133810289Y-72521789D01*
X133921789Y-72410289D01*
X134009394Y-72279179D01*
X134069737Y-72133497D01*
X134100500Y-71978842D01*
X134100500Y-71821158D01*
X134100500Y-71821155D01*
X134100499Y-71821153D01*
X134100432Y-71820814D01*
X134069737Y-71666503D01*
X134069735Y-71666498D01*
X134009397Y-71520827D01*
X134009390Y-71520814D01*
X133921789Y-71389711D01*
X133921786Y-71389707D01*
X133810292Y-71278213D01*
X133810288Y-71278210D01*
X133679185Y-71190609D01*
X133679172Y-71190602D01*
X133533501Y-71130264D01*
X133533489Y-71130261D01*
X133378845Y-71099500D01*
X133378842Y-71099500D01*
X133221158Y-71099500D01*
X133221155Y-71099500D01*
X133066510Y-71130261D01*
X133066498Y-71130264D01*
X132920827Y-71190602D01*
X132920814Y-71190609D01*
X132789711Y-71278210D01*
X132789707Y-71278213D01*
X132678213Y-71389707D01*
X132678210Y-71389711D01*
X132590609Y-71520814D01*
X132590602Y-71520827D01*
X132530264Y-71666498D01*
X132530261Y-71666510D01*
X132499500Y-71821153D01*
X129578940Y-71821153D01*
X129487820Y-71754951D01*
X129487115Y-71754591D01*
X129479054Y-71750485D01*
X129428259Y-71702512D01*
X129411463Y-71634692D01*
X129433999Y-71568556D01*
X129479054Y-71529515D01*
X129487816Y-71525051D01*
X129535231Y-71490602D01*
X129659786Y-71400109D01*
X129659788Y-71400106D01*
X129659792Y-71400104D01*
X129810104Y-71249792D01*
X129810106Y-71249788D01*
X129810109Y-71249786D01*
X129935048Y-71077820D01*
X129935047Y-71077820D01*
X129935051Y-71077816D01*
X130031557Y-70888412D01*
X130097246Y-70686243D01*
X130107556Y-70621153D01*
X141799500Y-70621153D01*
X141799500Y-70778846D01*
X141830261Y-70933489D01*
X141830264Y-70933501D01*
X141890602Y-71079172D01*
X141890609Y-71079185D01*
X141978210Y-71210288D01*
X141978213Y-71210292D01*
X142089707Y-71321786D01*
X142089711Y-71321789D01*
X142220814Y-71409390D01*
X142220827Y-71409397D01*
X142366498Y-71469735D01*
X142366503Y-71469737D01*
X142521153Y-71500499D01*
X142521156Y-71500500D01*
X142521158Y-71500500D01*
X142678844Y-71500500D01*
X142678845Y-71500499D01*
X142833497Y-71469737D01*
X142979179Y-71409394D01*
X143110289Y-71321789D01*
X143221789Y-71210289D01*
X143309394Y-71079179D01*
X143369737Y-70933497D01*
X143380563Y-70879072D01*
X143412947Y-70817161D01*
X143473663Y-70782587D01*
X143526372Y-70781646D01*
X143621155Y-70800500D01*
X143621158Y-70800500D01*
X143778844Y-70800500D01*
X143778845Y-70800499D01*
X143933497Y-70769737D01*
X144079179Y-70709394D01*
X144210289Y-70621789D01*
X144321789Y-70510289D01*
X144380811Y-70421956D01*
X144434421Y-70377152D01*
X144503746Y-70368445D01*
X144566774Y-70398599D01*
X144573867Y-70406017D01*
X144573903Y-70405982D01*
X144689707Y-70521786D01*
X144689711Y-70521789D01*
X144820814Y-70609390D01*
X144820827Y-70609397D01*
X144966498Y-70669735D01*
X144966503Y-70669737D01*
X145121153Y-70700499D01*
X145121156Y-70700500D01*
X145121158Y-70700500D01*
X145278844Y-70700500D01*
X145278845Y-70700499D01*
X145433497Y-70669737D01*
X145579179Y-70609394D01*
X145710289Y-70521789D01*
X145821789Y-70410289D01*
X145909394Y-70279179D01*
X145969737Y-70133497D01*
X146000500Y-69978842D01*
X146000500Y-69821158D01*
X146000500Y-69821155D01*
X146000499Y-69821153D01*
X145978269Y-69709397D01*
X145969737Y-69666503D01*
X145938920Y-69592104D01*
X145909397Y-69520827D01*
X145909390Y-69520814D01*
X145821789Y-69389711D01*
X145821786Y-69389707D01*
X145710292Y-69278213D01*
X145710288Y-69278210D01*
X145600149Y-69204617D01*
X145600146Y-69204615D01*
X145579179Y-69190606D01*
X145433497Y-69130263D01*
X145405317Y-69124657D01*
X145405311Y-69124655D01*
X145278845Y-69099500D01*
X145278842Y-69099500D01*
X145121158Y-69099500D01*
X145121155Y-69099500D01*
X144966510Y-69130261D01*
X144966498Y-69130264D01*
X144820827Y-69190602D01*
X144820814Y-69190609D01*
X144689711Y-69278210D01*
X144689707Y-69278213D01*
X144578213Y-69389707D01*
X144578210Y-69389711D01*
X144519189Y-69478042D01*
X144465576Y-69522847D01*
X144396251Y-69531554D01*
X144333224Y-69501399D01*
X144326132Y-69493982D01*
X144326097Y-69494018D01*
X144210292Y-69378213D01*
X144210288Y-69378210D01*
X144079185Y-69290609D01*
X144079172Y-69290602D01*
X143933501Y-69230264D01*
X143933489Y-69230261D01*
X143778845Y-69199500D01*
X143778842Y-69199500D01*
X143621158Y-69199500D01*
X143621155Y-69199500D01*
X143466510Y-69230261D01*
X143466498Y-69230264D01*
X143320827Y-69290602D01*
X143320814Y-69290609D01*
X143189711Y-69378210D01*
X143189707Y-69378213D01*
X143078213Y-69489707D01*
X143078210Y-69489711D01*
X142990609Y-69620814D01*
X142990602Y-69620827D01*
X142930264Y-69766498D01*
X142930261Y-69766507D01*
X142919436Y-69820929D01*
X142887050Y-69882840D01*
X142826334Y-69917413D01*
X142773628Y-69918353D01*
X142678846Y-69899500D01*
X142678842Y-69899500D01*
X142521158Y-69899500D01*
X142521155Y-69899500D01*
X142366510Y-69930261D01*
X142366498Y-69930264D01*
X142220827Y-69990602D01*
X142220814Y-69990609D01*
X142089711Y-70078210D01*
X142089707Y-70078213D01*
X141978213Y-70189707D01*
X141978210Y-70189711D01*
X141890609Y-70320814D01*
X141890602Y-70320827D01*
X141830264Y-70466498D01*
X141830261Y-70466510D01*
X141799500Y-70621153D01*
X130107556Y-70621153D01*
X130109418Y-70609394D01*
X130111592Y-70595668D01*
X130130500Y-70476286D01*
X130130500Y-70263713D01*
X130118779Y-70189711D01*
X130097246Y-70053757D01*
X130031557Y-69851588D01*
X129935051Y-69662184D01*
X129935049Y-69662181D01*
X129935048Y-69662179D01*
X129810109Y-69490213D01*
X129659786Y-69339890D01*
X129487820Y-69214951D01*
X129487115Y-69214591D01*
X129479054Y-69210485D01*
X129428259Y-69162512D01*
X129411463Y-69094692D01*
X129433999Y-69028556D01*
X129479054Y-68989515D01*
X129487816Y-68985051D01*
X129591950Y-68909394D01*
X129659786Y-68860109D01*
X129659788Y-68860106D01*
X129659792Y-68860104D01*
X129810104Y-68709792D01*
X129810106Y-68709788D01*
X129810109Y-68709786D01*
X129935048Y-68537820D01*
X129935047Y-68537820D01*
X129935051Y-68537816D01*
X129994494Y-68421153D01*
X135399500Y-68421153D01*
X135399500Y-68578846D01*
X135430261Y-68733489D01*
X135430264Y-68733501D01*
X135490602Y-68879172D01*
X135490609Y-68879185D01*
X135578210Y-69010288D01*
X135578213Y-69010292D01*
X135689707Y-69121786D01*
X135689711Y-69121789D01*
X135820814Y-69209390D01*
X135820827Y-69209397D01*
X135966498Y-69269735D01*
X135966503Y-69269737D01*
X136121153Y-69300499D01*
X136121156Y-69300500D01*
X136121158Y-69300500D01*
X136278844Y-69300500D01*
X136278845Y-69300499D01*
X136433497Y-69269737D01*
X136576543Y-69210486D01*
X136579172Y-69209397D01*
X136579172Y-69209396D01*
X136579179Y-69209394D01*
X136710289Y-69121789D01*
X136821789Y-69010289D01*
X136909394Y-68879179D01*
X136969737Y-68733497D01*
X137000500Y-68578842D01*
X137000500Y-68421158D01*
X137000500Y-68421155D01*
X137000499Y-68421153D01*
X136988090Y-68358771D01*
X136969737Y-68266503D01*
X136969735Y-68266498D01*
X136909532Y-68121153D01*
X145099500Y-68121153D01*
X145099500Y-68278846D01*
X145130261Y-68433489D01*
X145130264Y-68433501D01*
X145190602Y-68579172D01*
X145190609Y-68579185D01*
X145278210Y-68710288D01*
X145278213Y-68710292D01*
X145389707Y-68821786D01*
X145389711Y-68821789D01*
X145499848Y-68895381D01*
X145499850Y-68895382D01*
X145520821Y-68909394D01*
X145666503Y-68969737D01*
X145773445Y-68991009D01*
X145821155Y-69000500D01*
X145821158Y-69000500D01*
X145978844Y-69000500D01*
X145978845Y-69000499D01*
X146133497Y-68969737D01*
X146250790Y-68921153D01*
X146799500Y-68921153D01*
X146799500Y-69078846D01*
X146830261Y-69233489D01*
X146830264Y-69233501D01*
X146890602Y-69379172D01*
X146890609Y-69379185D01*
X146978210Y-69510288D01*
X146978213Y-69510292D01*
X147089707Y-69621786D01*
X147089711Y-69621789D01*
X147220814Y-69709390D01*
X147220827Y-69709397D01*
X147358683Y-69766498D01*
X147366503Y-69769737D01*
X147521153Y-69800499D01*
X147521156Y-69800500D01*
X147521158Y-69800500D01*
X147678844Y-69800500D01*
X147678845Y-69800499D01*
X147833497Y-69769737D01*
X147979179Y-69709394D01*
X148110289Y-69621789D01*
X148221789Y-69510289D01*
X148309394Y-69379179D01*
X148369737Y-69233497D01*
X148400500Y-69078842D01*
X148400500Y-68921158D01*
X148400500Y-68921155D01*
X148382005Y-68828178D01*
X148388232Y-68758586D01*
X148431095Y-68703409D01*
X148496984Y-68680164D01*
X148551074Y-68689425D01*
X148601445Y-68710289D01*
X148660444Y-68734727D01*
X148815094Y-68765489D01*
X148815097Y-68765490D01*
X148815099Y-68765490D01*
X148972785Y-68765490D01*
X148972786Y-68765489D01*
X149127438Y-68734727D01*
X149273120Y-68674384D01*
X149404230Y-68586779D01*
X149515730Y-68475279D01*
X149564736Y-68401936D01*
X149618346Y-68357133D01*
X149649022Y-68349158D01*
X149648930Y-68348691D01*
X149735396Y-68331490D01*
X149809559Y-68316739D01*
X149922228Y-68270069D01*
X149955234Y-68256399D01*
X149955234Y-68256398D01*
X149955241Y-68256396D01*
X150086351Y-68168791D01*
X150197851Y-68057291D01*
X150285456Y-67926181D01*
X150293427Y-67906934D01*
X150337267Y-67852532D01*
X150403561Y-67830466D01*
X150471260Y-67847744D01*
X150518872Y-67898880D01*
X150529607Y-67930197D01*
X150530263Y-67933498D01*
X150530264Y-67933501D01*
X150590602Y-68079172D01*
X150590609Y-68079185D01*
X150678210Y-68210288D01*
X150678213Y-68210292D01*
X150789707Y-68321786D01*
X150789711Y-68321789D01*
X150920814Y-68409390D01*
X150920827Y-68409397D01*
X151066498Y-68469735D01*
X151066503Y-68469737D01*
X151221153Y-68500499D01*
X151221156Y-68500500D01*
X151354866Y-68500500D01*
X151421905Y-68520185D01*
X151467660Y-68572989D01*
X151477604Y-68642147D01*
X151469427Y-68671950D01*
X151456397Y-68703409D01*
X151430263Y-68766502D01*
X151430261Y-68766510D01*
X151399500Y-68921153D01*
X151399500Y-69078846D01*
X151430261Y-69233489D01*
X151430264Y-69233501D01*
X151490602Y-69379172D01*
X151490609Y-69379185D01*
X151578210Y-69510288D01*
X151578213Y-69510292D01*
X151689707Y-69621786D01*
X151689711Y-69621789D01*
X151820814Y-69709390D01*
X151820827Y-69709397D01*
X151958683Y-69766498D01*
X151966503Y-69769737D01*
X152121153Y-69800499D01*
X152121156Y-69800500D01*
X152121158Y-69800500D01*
X152278844Y-69800500D01*
X152278845Y-69800499D01*
X152433497Y-69769737D01*
X152579179Y-69709394D01*
X152710289Y-69621789D01*
X152821789Y-69510289D01*
X152909394Y-69379179D01*
X152969737Y-69233497D01*
X153000500Y-69078842D01*
X153000500Y-68921158D01*
X153000500Y-68921155D01*
X153000499Y-68921153D01*
X152992148Y-68879172D01*
X152969737Y-68766503D01*
X152962140Y-68748161D01*
X152909397Y-68620827D01*
X152909390Y-68620814D01*
X152821789Y-68489711D01*
X152821786Y-68489707D01*
X152710292Y-68378213D01*
X152710288Y-68378210D01*
X152579185Y-68290609D01*
X152579172Y-68290602D01*
X152433501Y-68230264D01*
X152433489Y-68230261D01*
X152278845Y-68199500D01*
X152278842Y-68199500D01*
X152145134Y-68199500D01*
X152078095Y-68179815D01*
X152032340Y-68127011D01*
X152022396Y-68057853D01*
X152030573Y-68028047D01*
X152069737Y-67933497D01*
X152100500Y-67778842D01*
X152100500Y-67621158D01*
X152100500Y-67621155D01*
X152100499Y-67621153D01*
X152074531Y-67490606D01*
X152069737Y-67466503D01*
X152069735Y-67466498D01*
X152009397Y-67320827D01*
X152009390Y-67320814D01*
X151921789Y-67189711D01*
X151921786Y-67189707D01*
X151810292Y-67078213D01*
X151810288Y-67078210D01*
X151679185Y-66990609D01*
X151679172Y-66990602D01*
X151533501Y-66930264D01*
X151533489Y-66930261D01*
X151378845Y-66899500D01*
X151378842Y-66899500D01*
X151221158Y-66899500D01*
X151221155Y-66899500D01*
X151066510Y-66930261D01*
X151066498Y-66930264D01*
X150920827Y-66990602D01*
X150920814Y-66990609D01*
X150789711Y-67078210D01*
X150789707Y-67078213D01*
X150678213Y-67189707D01*
X150678210Y-67189711D01*
X150590609Y-67320814D01*
X150590604Y-67320823D01*
X150582632Y-67340070D01*
X150538789Y-67394472D01*
X150472494Y-67416535D01*
X150404795Y-67399254D01*
X150357186Y-67348115D01*
X150346454Y-67316802D01*
X150345799Y-67313505D01*
X150331443Y-67278846D01*
X150285459Y-67167829D01*
X150285452Y-67167816D01*
X150197851Y-67036713D01*
X150197848Y-67036709D01*
X150086354Y-66925215D01*
X150086350Y-66925212D01*
X149955247Y-66837611D01*
X149955234Y-66837604D01*
X149809563Y-66777266D01*
X149809551Y-66777263D01*
X149654907Y-66746502D01*
X149654904Y-66746502D01*
X149497220Y-66746502D01*
X149497217Y-66746502D01*
X149342572Y-66777263D01*
X149342560Y-66777266D01*
X149196889Y-66837604D01*
X149196876Y-66837611D01*
X149065773Y-66925212D01*
X149065769Y-66925215D01*
X148954275Y-67036709D01*
X148954272Y-67036713D01*
X148905267Y-67110054D01*
X148851654Y-67154859D01*
X148820980Y-67162835D01*
X148821073Y-67163301D01*
X148660451Y-67195251D01*
X148660439Y-67195254D01*
X148514768Y-67255592D01*
X148514755Y-67255599D01*
X148383652Y-67343200D01*
X148383648Y-67343203D01*
X148272154Y-67454697D01*
X148272151Y-67454701D01*
X148184550Y-67585804D01*
X148184543Y-67585817D01*
X148124205Y-67731488D01*
X148124202Y-67731500D01*
X148093441Y-67886143D01*
X148093441Y-68043836D01*
X148111935Y-68136812D01*
X148105708Y-68206404D01*
X148062845Y-68261581D01*
X147996955Y-68284825D01*
X147942866Y-68275564D01*
X147833501Y-68230264D01*
X147833489Y-68230261D01*
X147678845Y-68199500D01*
X147678842Y-68199500D01*
X147521158Y-68199500D01*
X147521155Y-68199500D01*
X147366510Y-68230261D01*
X147366498Y-68230264D01*
X147220827Y-68290602D01*
X147220814Y-68290609D01*
X147089711Y-68378210D01*
X147089707Y-68378213D01*
X146978213Y-68489707D01*
X146978210Y-68489711D01*
X146890609Y-68620814D01*
X146890602Y-68620827D01*
X146830264Y-68766498D01*
X146830261Y-68766510D01*
X146799500Y-68921153D01*
X146250790Y-68921153D01*
X146279179Y-68909394D01*
X146410289Y-68821789D01*
X146521789Y-68710289D01*
X146609394Y-68579179D01*
X146669737Y-68433497D01*
X146700500Y-68278842D01*
X146700500Y-68121158D01*
X146700500Y-68121155D01*
X146700499Y-68121153D01*
X146687908Y-68057853D01*
X146669737Y-67966503D01*
X146636451Y-67886143D01*
X146609397Y-67820827D01*
X146609390Y-67820814D01*
X146521789Y-67689711D01*
X146521786Y-67689707D01*
X146410292Y-67578213D01*
X146410288Y-67578210D01*
X146279185Y-67490609D01*
X146279172Y-67490602D01*
X146133501Y-67430264D01*
X146133489Y-67430261D01*
X145978845Y-67399500D01*
X145978842Y-67399500D01*
X145821158Y-67399500D01*
X145821155Y-67399500D01*
X145666510Y-67430261D01*
X145666498Y-67430264D01*
X145520827Y-67490602D01*
X145520814Y-67490609D01*
X145389711Y-67578210D01*
X145389707Y-67578213D01*
X145278213Y-67689707D01*
X145278210Y-67689711D01*
X145190609Y-67820814D01*
X145190602Y-67820827D01*
X145130264Y-67966498D01*
X145130261Y-67966510D01*
X145099500Y-68121153D01*
X136909532Y-68121153D01*
X136909397Y-68120827D01*
X136909390Y-68120814D01*
X136821789Y-67989711D01*
X136821786Y-67989707D01*
X136710292Y-67878213D01*
X136710288Y-67878210D01*
X136579185Y-67790609D01*
X136579172Y-67790602D01*
X136433501Y-67730264D01*
X136433489Y-67730261D01*
X136278845Y-67699500D01*
X136278842Y-67699500D01*
X136121158Y-67699500D01*
X136121155Y-67699500D01*
X135966510Y-67730261D01*
X135966498Y-67730264D01*
X135820827Y-67790602D01*
X135820814Y-67790609D01*
X135689711Y-67878210D01*
X135689707Y-67878213D01*
X135578213Y-67989707D01*
X135578210Y-67989711D01*
X135490609Y-68120814D01*
X135490602Y-68120827D01*
X135430264Y-68266498D01*
X135430261Y-68266510D01*
X135399500Y-68421153D01*
X129994494Y-68421153D01*
X130031557Y-68348412D01*
X130097246Y-68146243D01*
X130130500Y-67936287D01*
X130130500Y-67723713D01*
X130097246Y-67513757D01*
X130031557Y-67311588D01*
X129935051Y-67122184D01*
X129934302Y-67121153D01*
X139699500Y-67121153D01*
X139699500Y-67278846D01*
X139730261Y-67433489D01*
X139730264Y-67433501D01*
X139790602Y-67579172D01*
X139790609Y-67579185D01*
X139878210Y-67710288D01*
X139878213Y-67710292D01*
X139989707Y-67821786D01*
X139989711Y-67821789D01*
X140120814Y-67909390D01*
X140120827Y-67909397D01*
X140258683Y-67966498D01*
X140266503Y-67969737D01*
X140421153Y-68000499D01*
X140421156Y-68000500D01*
X140421158Y-68000500D01*
X140578844Y-68000500D01*
X140578845Y-68000499D01*
X140733497Y-67969737D01*
X140879179Y-67909394D01*
X141010289Y-67821789D01*
X141121789Y-67710289D01*
X141209394Y-67579179D01*
X141269737Y-67433497D01*
X141300500Y-67278842D01*
X141300500Y-67121158D01*
X141300500Y-67121155D01*
X141300499Y-67121153D01*
X141281848Y-67027389D01*
X141269737Y-66966503D01*
X141262988Y-66950209D01*
X141209397Y-66820827D01*
X141209390Y-66820814D01*
X141121789Y-66689711D01*
X141121786Y-66689707D01*
X141010292Y-66578213D01*
X141010288Y-66578210D01*
X140879185Y-66490609D01*
X140879172Y-66490602D01*
X140733501Y-66430264D01*
X140733489Y-66430261D01*
X140724852Y-66428543D01*
X143269499Y-66428543D01*
X143307947Y-66621829D01*
X143307950Y-66621839D01*
X143383364Y-66803907D01*
X143383371Y-66803920D01*
X143492860Y-66967781D01*
X143492863Y-66967785D01*
X143632214Y-67107136D01*
X143632218Y-67107139D01*
X143796079Y-67216628D01*
X143796092Y-67216635D01*
X143890161Y-67255599D01*
X143978165Y-67292051D01*
X143978169Y-67292051D01*
X143978170Y-67292052D01*
X144171456Y-67330500D01*
X144171459Y-67330500D01*
X144368543Y-67330500D01*
X144513905Y-67301585D01*
X144561835Y-67292051D01*
X144743914Y-67216632D01*
X144907782Y-67107139D01*
X145047139Y-66967782D01*
X145156632Y-66803914D01*
X145232051Y-66621835D01*
X145247396Y-66544692D01*
X145270500Y-66428543D01*
X145270500Y-65911333D01*
X145290185Y-65844294D01*
X145342989Y-65798539D01*
X145412147Y-65788595D01*
X145456501Y-65803947D01*
X145477859Y-65816278D01*
X145477860Y-65816278D01*
X145477865Y-65816281D01*
X145624234Y-65855500D01*
X145624236Y-65855500D01*
X145775764Y-65855500D01*
X145775766Y-65855500D01*
X145922135Y-65816281D01*
X146053365Y-65740515D01*
X146160515Y-65633365D01*
X146236281Y-65502135D01*
X146275500Y-65355766D01*
X146275500Y-65204234D01*
X146236281Y-65057865D01*
X146160515Y-64926635D01*
X146053365Y-64819485D01*
X145982838Y-64778766D01*
X145922137Y-64743720D01*
X145922136Y-64743719D01*
X145922135Y-64743719D01*
X145837917Y-64721153D01*
X147499500Y-64721153D01*
X147499500Y-64878846D01*
X147530261Y-65033489D01*
X147530264Y-65033501D01*
X147590602Y-65179172D01*
X147590609Y-65179185D01*
X147678210Y-65310288D01*
X147678213Y-65310292D01*
X147789707Y-65421786D01*
X147789711Y-65421789D01*
X147920814Y-65509390D01*
X147920827Y-65509397D01*
X148066498Y-65569735D01*
X148066503Y-65569737D01*
X148199737Y-65596239D01*
X148221153Y-65600499D01*
X148221156Y-65600500D01*
X148221158Y-65600500D01*
X148378844Y-65600500D01*
X148378845Y-65600499D01*
X148533497Y-65569737D01*
X148679179Y-65509394D01*
X148810289Y-65421789D01*
X148921789Y-65310289D01*
X148992653Y-65204234D01*
X150904500Y-65204234D01*
X150904500Y-65355766D01*
X150922190Y-65421786D01*
X150943719Y-65502136D01*
X150981602Y-65567750D01*
X151019485Y-65633365D01*
X151126635Y-65740515D01*
X151209912Y-65788595D01*
X151257861Y-65816279D01*
X151257865Y-65816281D01*
X151404234Y-65855500D01*
X151404236Y-65855500D01*
X151555764Y-65855500D01*
X151555766Y-65855500D01*
X151702135Y-65816281D01*
X151712451Y-65810325D01*
X151723499Y-65803947D01*
X151791398Y-65787473D01*
X151857426Y-65810325D01*
X151900617Y-65865245D01*
X151909500Y-65911333D01*
X151909500Y-66428541D01*
X151909500Y-66428543D01*
X151909499Y-66428543D01*
X151947947Y-66621829D01*
X151947950Y-66621839D01*
X152023364Y-66803907D01*
X152023371Y-66803920D01*
X152132860Y-66967781D01*
X152132863Y-66967785D01*
X152272214Y-67107136D01*
X152272218Y-67107139D01*
X152436079Y-67216628D01*
X152436092Y-67216635D01*
X152530161Y-67255599D01*
X152618165Y-67292051D01*
X152618169Y-67292051D01*
X152618170Y-67292052D01*
X152811456Y-67330500D01*
X152811459Y-67330500D01*
X153008543Y-67330500D01*
X153055532Y-67321153D01*
X154399500Y-67321153D01*
X154399500Y-67478846D01*
X154430261Y-67633489D01*
X154430264Y-67633501D01*
X154490602Y-67779172D01*
X154490609Y-67779185D01*
X154578210Y-67910288D01*
X154578213Y-67910292D01*
X154689707Y-68021786D01*
X154689711Y-68021789D01*
X154820814Y-68109390D01*
X154820827Y-68109397D01*
X154964212Y-68168788D01*
X154966503Y-68169737D01*
X155072690Y-68190859D01*
X155121153Y-68200499D01*
X155121156Y-68200500D01*
X155121158Y-68200500D01*
X155278844Y-68200500D01*
X155278845Y-68200499D01*
X155433497Y-68169737D01*
X155551592Y-68120821D01*
X155579172Y-68109397D01*
X155579172Y-68109396D01*
X155579179Y-68109394D01*
X155710289Y-68021789D01*
X155821789Y-67910289D01*
X155909394Y-67779179D01*
X155969737Y-67633497D01*
X156000500Y-67478842D01*
X156000500Y-67321158D01*
X156000500Y-67321155D01*
X156000499Y-67321153D01*
X159699500Y-67321153D01*
X159699500Y-67478846D01*
X159730261Y-67633489D01*
X159730264Y-67633501D01*
X159790602Y-67779172D01*
X159790609Y-67779185D01*
X159878210Y-67910288D01*
X159878213Y-67910292D01*
X159989707Y-68021786D01*
X159989711Y-68021789D01*
X160120814Y-68109390D01*
X160120827Y-68109397D01*
X160264212Y-68168788D01*
X160266503Y-68169737D01*
X160372690Y-68190859D01*
X160421153Y-68200499D01*
X160421156Y-68200500D01*
X160421158Y-68200500D01*
X160578844Y-68200500D01*
X160578845Y-68200499D01*
X160733497Y-68169737D01*
X160851592Y-68120821D01*
X160879172Y-68109397D01*
X160879172Y-68109396D01*
X160879179Y-68109394D01*
X161010289Y-68021789D01*
X161121789Y-67910289D01*
X161209394Y-67779179D01*
X161269737Y-67633497D01*
X161300500Y-67478842D01*
X161300500Y-67321158D01*
X161300500Y-67321155D01*
X161300499Y-67321153D01*
X161298978Y-67313505D01*
X161269737Y-67166503D01*
X161250955Y-67121158D01*
X161209397Y-67020827D01*
X161209390Y-67020814D01*
X161121789Y-66889711D01*
X161121786Y-66889707D01*
X161010292Y-66778213D01*
X161010288Y-66778210D01*
X160879185Y-66690609D01*
X160879172Y-66690602D01*
X160733501Y-66630264D01*
X160733489Y-66630261D01*
X160578845Y-66599500D01*
X160578842Y-66599500D01*
X160421158Y-66599500D01*
X160421155Y-66599500D01*
X160266510Y-66630261D01*
X160266498Y-66630264D01*
X160120827Y-66690602D01*
X160120814Y-66690609D01*
X159989711Y-66778210D01*
X159989707Y-66778213D01*
X159878213Y-66889707D01*
X159878210Y-66889711D01*
X159790609Y-67020814D01*
X159790602Y-67020827D01*
X159730264Y-67166498D01*
X159730261Y-67166510D01*
X159699500Y-67321153D01*
X156000499Y-67321153D01*
X155998978Y-67313505D01*
X155969737Y-67166503D01*
X155950955Y-67121158D01*
X155909397Y-67020827D01*
X155909390Y-67020814D01*
X155821789Y-66889711D01*
X155821786Y-66889707D01*
X155710292Y-66778213D01*
X155710288Y-66778210D01*
X155579185Y-66690609D01*
X155579172Y-66690602D01*
X155433501Y-66630264D01*
X155433489Y-66630261D01*
X155278845Y-66599500D01*
X155278842Y-66599500D01*
X155121158Y-66599500D01*
X155121155Y-66599500D01*
X154966510Y-66630261D01*
X154966498Y-66630264D01*
X154820827Y-66690602D01*
X154820814Y-66690609D01*
X154689711Y-66778210D01*
X154689707Y-66778213D01*
X154578213Y-66889707D01*
X154578210Y-66889711D01*
X154490609Y-67020814D01*
X154490602Y-67020827D01*
X154430264Y-67166498D01*
X154430261Y-67166510D01*
X154399500Y-67321153D01*
X153055532Y-67321153D01*
X153153905Y-67301585D01*
X153201835Y-67292051D01*
X153383914Y-67216632D01*
X153387693Y-67214106D01*
X153390901Y-67211964D01*
X153476364Y-67154859D01*
X153547782Y-67107139D01*
X153687139Y-66967782D01*
X153796632Y-66803914D01*
X153872051Y-66621835D01*
X153887396Y-66544692D01*
X153910500Y-66428543D01*
X153910500Y-65131456D01*
X153872052Y-64938170D01*
X153872051Y-64938169D01*
X153872051Y-64938165D01*
X153847621Y-64879185D01*
X153796635Y-64756092D01*
X153796628Y-64756079D01*
X153687139Y-64592218D01*
X153687136Y-64592214D01*
X153547785Y-64452863D01*
X153547781Y-64452860D01*
X153500328Y-64421153D01*
X162999500Y-64421153D01*
X162999500Y-64578846D01*
X163030261Y-64733489D01*
X163030264Y-64733501D01*
X163090602Y-64879172D01*
X163090609Y-64879185D01*
X163178210Y-65010288D01*
X163178213Y-65010292D01*
X163289707Y-65121786D01*
X163289711Y-65121789D01*
X163420814Y-65209390D01*
X163420827Y-65209397D01*
X163566498Y-65269735D01*
X163566503Y-65269737D01*
X163721153Y-65300499D01*
X163721156Y-65300500D01*
X163721158Y-65300500D01*
X163878844Y-65300500D01*
X163878845Y-65300499D01*
X164033497Y-65269737D01*
X164179179Y-65209394D01*
X164310289Y-65121789D01*
X164421789Y-65010289D01*
X164509394Y-64879179D01*
X164569737Y-64733497D01*
X164600500Y-64578842D01*
X164600500Y-64421158D01*
X164600500Y-64421155D01*
X164600499Y-64421153D01*
X164594176Y-64389366D01*
X164569737Y-64266503D01*
X164542398Y-64200500D01*
X164509397Y-64120827D01*
X164509390Y-64120814D01*
X164421789Y-63989711D01*
X164421786Y-63989707D01*
X164310292Y-63878213D01*
X164310288Y-63878210D01*
X164179185Y-63790609D01*
X164179172Y-63790602D01*
X164033501Y-63730264D01*
X164033489Y-63730261D01*
X163878845Y-63699500D01*
X163878842Y-63699500D01*
X163721158Y-63699500D01*
X163721155Y-63699500D01*
X163566510Y-63730261D01*
X163566498Y-63730264D01*
X163420827Y-63790602D01*
X163420814Y-63790609D01*
X163289711Y-63878210D01*
X163289707Y-63878213D01*
X163178213Y-63989707D01*
X163178210Y-63989711D01*
X163090609Y-64120814D01*
X163090602Y-64120827D01*
X163030264Y-64266498D01*
X163030261Y-64266510D01*
X162999500Y-64421153D01*
X153500328Y-64421153D01*
X153383920Y-64343371D01*
X153383907Y-64343364D01*
X153201839Y-64267950D01*
X153201829Y-64267947D01*
X153008543Y-64229500D01*
X153008541Y-64229500D01*
X152811459Y-64229500D01*
X152811457Y-64229500D01*
X152618170Y-64267947D01*
X152618160Y-64267950D01*
X152436092Y-64343364D01*
X152436079Y-64343371D01*
X152272218Y-64452860D01*
X152272214Y-64452863D01*
X152132863Y-64592214D01*
X152132860Y-64592218D01*
X152023371Y-64756079D01*
X152023363Y-64756094D01*
X152019456Y-64765528D01*
X151975615Y-64819931D01*
X151909320Y-64841995D01*
X151841621Y-64824715D01*
X151836968Y-64821566D01*
X151833366Y-64819486D01*
X151833365Y-64819485D01*
X151733080Y-64761585D01*
X151702136Y-64743719D01*
X151617924Y-64721155D01*
X151555766Y-64704500D01*
X151404234Y-64704500D01*
X151257863Y-64743719D01*
X151126635Y-64819485D01*
X151126632Y-64819487D01*
X151019487Y-64926632D01*
X151019485Y-64926635D01*
X150943719Y-65057863D01*
X150904500Y-65204234D01*
X148992653Y-65204234D01*
X149009394Y-65179179D01*
X149069737Y-65033497D01*
X149100500Y-64878842D01*
X149100500Y-64721158D01*
X149100500Y-64721155D01*
X149100499Y-64721153D01*
X149072192Y-64578846D01*
X149069737Y-64566503D01*
X149069735Y-64566498D01*
X149009397Y-64420827D01*
X149009390Y-64420814D01*
X148966850Y-64357149D01*
X148945972Y-64290472D01*
X148964456Y-64223092D01*
X149016435Y-64176401D01*
X149031994Y-64170359D01*
X149033494Y-64169737D01*
X149033497Y-64169737D01*
X149179179Y-64109394D01*
X149310289Y-64021789D01*
X149421789Y-63910289D01*
X149509394Y-63779179D01*
X149569737Y-63633497D01*
X149600500Y-63478842D01*
X149600500Y-63321158D01*
X149600500Y-63321155D01*
X149600499Y-63321153D01*
X149586346Y-63250000D01*
X149569737Y-63166503D01*
X149539521Y-63093554D01*
X149509397Y-63020827D01*
X149509390Y-63020814D01*
X149421789Y-62889711D01*
X149421786Y-62889707D01*
X149310292Y-62778213D01*
X149310288Y-62778210D01*
X149179185Y-62690609D01*
X149179172Y-62690602D01*
X149033501Y-62630264D01*
X149033489Y-62630261D01*
X148878845Y-62599500D01*
X148878842Y-62599500D01*
X148721158Y-62599500D01*
X148721155Y-62599500D01*
X148566510Y-62630261D01*
X148566498Y-62630264D01*
X148420827Y-62690602D01*
X148420814Y-62690609D01*
X148289711Y-62778210D01*
X148289707Y-62778213D01*
X148178213Y-62889707D01*
X148178210Y-62889711D01*
X148090609Y-63020814D01*
X148090602Y-63020827D01*
X148030264Y-63166498D01*
X148030261Y-63166510D01*
X147999500Y-63321153D01*
X147999500Y-63478846D01*
X148030261Y-63633489D01*
X148030264Y-63633501D01*
X148090602Y-63779172D01*
X148090609Y-63779185D01*
X148133149Y-63842850D01*
X148154027Y-63909528D01*
X148135542Y-63976908D01*
X148083564Y-64023598D01*
X148067987Y-64029647D01*
X147920827Y-64090602D01*
X147920814Y-64090609D01*
X147789711Y-64178210D01*
X147789707Y-64178213D01*
X147678213Y-64289707D01*
X147678210Y-64289711D01*
X147590609Y-64420814D01*
X147590602Y-64420827D01*
X147530264Y-64566498D01*
X147530261Y-64566510D01*
X147499500Y-64721153D01*
X145837917Y-64721153D01*
X145775766Y-64704500D01*
X145624234Y-64704500D01*
X145477863Y-64743719D01*
X145386428Y-64796510D01*
X145346635Y-64819485D01*
X145346633Y-64819486D01*
X145339597Y-64823549D01*
X145338254Y-64821224D01*
X145285391Y-64841647D01*
X145216949Y-64827592D01*
X145166971Y-64778766D01*
X145160540Y-64765522D01*
X145158909Y-64761585D01*
X145156632Y-64756086D01*
X145156630Y-64756083D01*
X145156628Y-64756079D01*
X145047139Y-64592218D01*
X145047136Y-64592214D01*
X144907785Y-64452863D01*
X144907781Y-64452860D01*
X144743920Y-64343371D01*
X144743907Y-64343364D01*
X144561839Y-64267950D01*
X144561829Y-64267947D01*
X144368543Y-64229500D01*
X144368541Y-64229500D01*
X144171459Y-64229500D01*
X144171457Y-64229500D01*
X143978170Y-64267947D01*
X143978160Y-64267950D01*
X143796092Y-64343364D01*
X143796079Y-64343371D01*
X143632218Y-64452860D01*
X143632214Y-64452863D01*
X143492863Y-64592214D01*
X143492860Y-64592218D01*
X143383371Y-64756079D01*
X143383364Y-64756092D01*
X143307950Y-64938160D01*
X143307947Y-64938170D01*
X143269500Y-65131456D01*
X143269500Y-65131459D01*
X143269500Y-66428541D01*
X143269500Y-66428543D01*
X143269499Y-66428543D01*
X140724852Y-66428543D01*
X140578845Y-66399500D01*
X140578842Y-66399500D01*
X140421158Y-66399500D01*
X140421155Y-66399500D01*
X140266510Y-66430261D01*
X140266498Y-66430264D01*
X140120827Y-66490602D01*
X140120814Y-66490609D01*
X139989711Y-66578210D01*
X139989707Y-66578213D01*
X139878213Y-66689707D01*
X139878210Y-66689711D01*
X139790609Y-66820814D01*
X139790602Y-66820827D01*
X139730264Y-66966498D01*
X139730261Y-66966510D01*
X139699500Y-67121153D01*
X129934302Y-67121153D01*
X129924118Y-67107136D01*
X129810109Y-66950213D01*
X129659786Y-66799890D01*
X129487820Y-66674951D01*
X129487115Y-66674591D01*
X129479054Y-66670485D01*
X129428259Y-66622512D01*
X129411463Y-66554692D01*
X129433999Y-66488556D01*
X129479054Y-66449515D01*
X129487816Y-66445051D01*
X129550512Y-66399500D01*
X129659786Y-66320109D01*
X129659788Y-66320106D01*
X129659792Y-66320104D01*
X129810104Y-66169792D01*
X129810106Y-66169788D01*
X129810109Y-66169786D01*
X129935048Y-65997820D01*
X129935047Y-65997820D01*
X129935051Y-65997816D01*
X130031557Y-65808412D01*
X130097246Y-65606243D01*
X130130500Y-65396287D01*
X130130500Y-65183713D01*
X130097246Y-64973757D01*
X130031557Y-64771588D01*
X129935051Y-64582184D01*
X129935049Y-64582181D01*
X129935048Y-64582179D01*
X129810109Y-64410213D01*
X129659786Y-64259890D01*
X129487817Y-64134949D01*
X129478504Y-64130204D01*
X129427707Y-64082230D01*
X129410912Y-64014409D01*
X129433449Y-63948274D01*
X129478507Y-63909232D01*
X129487555Y-63904622D01*
X129541716Y-63865270D01*
X129541717Y-63865270D01*
X128909408Y-63232962D01*
X128972993Y-63215925D01*
X129087007Y-63150099D01*
X129180099Y-63057007D01*
X129245925Y-62942993D01*
X129262962Y-62879409D01*
X129895270Y-63511717D01*
X129895270Y-63511716D01*
X129934622Y-63457554D01*
X130031095Y-63268217D01*
X130096757Y-63066130D01*
X130096757Y-63066127D01*
X130130000Y-62856246D01*
X130130000Y-62643753D01*
X130096757Y-62433872D01*
X130096757Y-62433869D01*
X130031095Y-62231782D01*
X129963206Y-62098543D01*
X143269499Y-62098543D01*
X143307947Y-62291829D01*
X143307950Y-62291839D01*
X143383364Y-62473907D01*
X143383371Y-62473920D01*
X143492860Y-62637781D01*
X143492863Y-62637785D01*
X143632214Y-62777136D01*
X143632218Y-62777139D01*
X143796079Y-62886628D01*
X143796092Y-62886635D01*
X143978160Y-62962049D01*
X143978165Y-62962051D01*
X143978169Y-62962051D01*
X143978170Y-62962052D01*
X144171456Y-63000500D01*
X144171459Y-63000500D01*
X144368543Y-63000500D01*
X144498582Y-62974632D01*
X144561835Y-62962051D01*
X144743914Y-62886632D01*
X144907782Y-62777139D01*
X145047139Y-62637782D01*
X145156632Y-62473914D01*
X145232051Y-62291835D01*
X145270500Y-62098543D01*
X151909499Y-62098543D01*
X151947947Y-62291829D01*
X151947950Y-62291839D01*
X152023364Y-62473907D01*
X152023371Y-62473920D01*
X152132860Y-62637781D01*
X152132863Y-62637785D01*
X152272214Y-62777136D01*
X152272218Y-62777139D01*
X152436079Y-62886628D01*
X152436092Y-62886635D01*
X152618160Y-62962049D01*
X152618165Y-62962051D01*
X152618169Y-62962051D01*
X152618170Y-62962052D01*
X152811456Y-63000500D01*
X152811459Y-63000500D01*
X153008543Y-63000500D01*
X153138582Y-62974632D01*
X153201835Y-62962051D01*
X153383914Y-62886632D01*
X153547782Y-62777139D01*
X153687139Y-62637782D01*
X153712718Y-62599500D01*
X153739118Y-62559991D01*
X153739118Y-62559990D01*
X153796628Y-62473920D01*
X153796628Y-62473919D01*
X153796632Y-62473914D01*
X153872051Y-62291835D01*
X153910500Y-62098541D01*
X153910500Y-61101459D01*
X153910500Y-61101456D01*
X153872052Y-60908170D01*
X153872051Y-60908169D01*
X153872051Y-60908165D01*
X153831510Y-60810289D01*
X153796635Y-60726092D01*
X153796628Y-60726079D01*
X153687139Y-60562218D01*
X153687136Y-60562214D01*
X153547785Y-60422863D01*
X153547781Y-60422860D01*
X153391099Y-60318168D01*
X153383918Y-60313370D01*
X153383907Y-60313364D01*
X153201839Y-60237950D01*
X153201829Y-60237947D01*
X153117400Y-60221153D01*
X153999500Y-60221153D01*
X153999500Y-60378846D01*
X154030261Y-60533489D01*
X154030264Y-60533501D01*
X154090602Y-60679172D01*
X154090609Y-60679185D01*
X154178210Y-60810288D01*
X154178213Y-60810292D01*
X154289707Y-60921786D01*
X154289711Y-60921789D01*
X154420814Y-61009390D01*
X154420827Y-61009397D01*
X154566498Y-61069735D01*
X154566503Y-61069737D01*
X154721153Y-61100499D01*
X154721156Y-61100500D01*
X154721158Y-61100500D01*
X154878844Y-61100500D01*
X154878845Y-61100499D01*
X155033497Y-61069737D01*
X155179179Y-61009394D01*
X155310289Y-60921789D01*
X155421789Y-60810289D01*
X155509394Y-60679179D01*
X155569737Y-60533497D01*
X155600500Y-60378842D01*
X155600500Y-60221158D01*
X155600500Y-60221155D01*
X155600499Y-60221153D01*
X155569738Y-60066510D01*
X155569737Y-60066503D01*
X155569735Y-60066498D01*
X155509397Y-59920827D01*
X155509390Y-59920814D01*
X155421789Y-59789711D01*
X155421786Y-59789707D01*
X155310292Y-59678213D01*
X155310288Y-59678210D01*
X155179185Y-59590609D01*
X155179172Y-59590602D01*
X155033501Y-59530264D01*
X155033489Y-59530261D01*
X154878845Y-59499500D01*
X154878842Y-59499500D01*
X154721158Y-59499500D01*
X154721155Y-59499500D01*
X154566510Y-59530261D01*
X154566498Y-59530264D01*
X154420827Y-59590602D01*
X154420814Y-59590609D01*
X154289711Y-59678210D01*
X154289707Y-59678213D01*
X154178213Y-59789707D01*
X154178210Y-59789711D01*
X154090609Y-59920814D01*
X154090602Y-59920827D01*
X154030264Y-60066498D01*
X154030261Y-60066510D01*
X153999500Y-60221153D01*
X153117400Y-60221153D01*
X153008543Y-60199500D01*
X153008541Y-60199500D01*
X152811459Y-60199500D01*
X152811457Y-60199500D01*
X152618170Y-60237947D01*
X152618160Y-60237950D01*
X152436092Y-60313364D01*
X152436079Y-60313371D01*
X152272218Y-60422860D01*
X152272214Y-60422863D01*
X152132863Y-60562214D01*
X152132860Y-60562218D01*
X152023371Y-60726079D01*
X152023364Y-60726092D01*
X151947950Y-60908160D01*
X151947947Y-60908170D01*
X151909500Y-61101456D01*
X151909500Y-61101459D01*
X151909500Y-62098541D01*
X151909500Y-62098543D01*
X151909499Y-62098543D01*
X145270500Y-62098543D01*
X145270500Y-62098541D01*
X145270500Y-61101459D01*
X145270500Y-61101456D01*
X145232052Y-60908170D01*
X145232051Y-60908169D01*
X145232051Y-60908165D01*
X145191510Y-60810289D01*
X145156635Y-60726092D01*
X145156628Y-60726079D01*
X145047139Y-60562218D01*
X145047136Y-60562214D01*
X144907785Y-60422863D01*
X144907781Y-60422860D01*
X144743920Y-60313371D01*
X144743907Y-60313364D01*
X144561839Y-60237950D01*
X144561829Y-60237947D01*
X144368543Y-60199500D01*
X144368541Y-60199500D01*
X144171459Y-60199500D01*
X144171457Y-60199500D01*
X143978170Y-60237947D01*
X143978160Y-60237950D01*
X143796092Y-60313364D01*
X143796079Y-60313371D01*
X143632218Y-60422860D01*
X143632214Y-60422863D01*
X143492863Y-60562214D01*
X143492860Y-60562218D01*
X143383371Y-60726079D01*
X143383364Y-60726092D01*
X143307950Y-60908160D01*
X143307947Y-60908170D01*
X143269500Y-61101456D01*
X143269500Y-61101459D01*
X143269500Y-62098541D01*
X143269500Y-62098543D01*
X143269499Y-62098543D01*
X129963206Y-62098543D01*
X129934624Y-62042449D01*
X129895270Y-61988282D01*
X129895269Y-61988282D01*
X129262962Y-62620590D01*
X129245925Y-62557007D01*
X129180099Y-62442993D01*
X129087007Y-62349901D01*
X128972993Y-62284075D01*
X128909409Y-62267037D01*
X129579627Y-61596818D01*
X129640950Y-61563333D01*
X129667307Y-61560499D01*
X129677872Y-61560499D01*
X129737483Y-61554091D01*
X129872331Y-61503796D01*
X129987546Y-61417546D01*
X130073796Y-61302331D01*
X130124091Y-61167483D01*
X130130500Y-61107873D01*
X130130499Y-59312128D01*
X130124091Y-59252517D01*
X130120361Y-59242517D01*
X130073797Y-59117671D01*
X130069546Y-59109886D01*
X130071021Y-59109080D01*
X130050234Y-59053345D01*
X130065086Y-58985072D01*
X130114492Y-58935667D01*
X130173918Y-58920500D01*
X166599415Y-58920500D01*
X166666454Y-58940185D01*
G37*
%TD.AperFunction*%
%TA.AperFunction,Conductor*%
G36*
X169115269Y-106681716D02*
G01*
X169165771Y-106677742D01*
X169234148Y-106692106D01*
X169283905Y-106741157D01*
X169299500Y-106801360D01*
X169299500Y-107569366D01*
X169279815Y-107636405D01*
X169227011Y-107682160D01*
X169157853Y-107692104D01*
X169094297Y-107663079D01*
X169075182Y-107642251D01*
X169030109Y-107580214D01*
X169030105Y-107580209D01*
X168879786Y-107429890D01*
X168707817Y-107304949D01*
X168698504Y-107300204D01*
X168647707Y-107252230D01*
X168630912Y-107184409D01*
X168653449Y-107118274D01*
X168698507Y-107079232D01*
X168707555Y-107074622D01*
X168761716Y-107035270D01*
X168761717Y-107035270D01*
X168129408Y-106402962D01*
X168192993Y-106385925D01*
X168307007Y-106320099D01*
X168400099Y-106227007D01*
X168465925Y-106112993D01*
X168482962Y-106049408D01*
X169115269Y-106681716D01*
G37*
%TD.AperFunction*%
%TA.AperFunction,Conductor*%
G36*
X169261920Y-104181708D02*
G01*
X169296277Y-104242547D01*
X169299500Y-104270633D01*
X169299500Y-105038639D01*
X169279815Y-105105678D01*
X169227011Y-105151433D01*
X169165771Y-105162257D01*
X169115269Y-105158282D01*
X168482962Y-105790590D01*
X168465925Y-105727007D01*
X168400099Y-105612993D01*
X168307007Y-105519901D01*
X168192993Y-105454075D01*
X168129409Y-105437037D01*
X168761716Y-104804728D01*
X168707547Y-104765373D01*
X168707547Y-104765372D01*
X168698500Y-104760763D01*
X168647706Y-104712788D01*
X168630912Y-104644966D01*
X168653451Y-104578832D01*
X168698508Y-104539793D01*
X168707816Y-104535051D01*
X168787007Y-104477515D01*
X168879786Y-104410109D01*
X168879788Y-104410106D01*
X168879792Y-104410104D01*
X169030104Y-104259792D01*
X169075181Y-104197747D01*
X169130511Y-104155082D01*
X169200124Y-104149103D01*
X169261920Y-104181708D01*
G37*
%TD.AperFunction*%
%TA.AperFunction,Conductor*%
G36*
X169115269Y-63501716D02*
G01*
X169165771Y-63497742D01*
X169234148Y-63512106D01*
X169283905Y-63561157D01*
X169299500Y-63621360D01*
X169299500Y-64389366D01*
X169279815Y-64456405D01*
X169227011Y-64502160D01*
X169157853Y-64512104D01*
X169094297Y-64483079D01*
X169075182Y-64462251D01*
X169030109Y-64400214D01*
X169030105Y-64400209D01*
X168879786Y-64249890D01*
X168707817Y-64124949D01*
X168698504Y-64120204D01*
X168647707Y-64072230D01*
X168630912Y-64004409D01*
X168653449Y-63938274D01*
X168698507Y-63899232D01*
X168707555Y-63894622D01*
X168761716Y-63855270D01*
X168761717Y-63855270D01*
X168129408Y-63222962D01*
X168192993Y-63205925D01*
X168307007Y-63140099D01*
X168400099Y-63047007D01*
X168465925Y-62932993D01*
X168482962Y-62869408D01*
X169115269Y-63501716D01*
G37*
%TD.AperFunction*%
%TA.AperFunction,Conductor*%
G36*
X128314075Y-62942993D02*
G01*
X128379901Y-63057007D01*
X128472993Y-63150099D01*
X128587007Y-63215925D01*
X128650590Y-63232962D01*
X128018282Y-63865269D01*
X128018282Y-63865270D01*
X128072452Y-63904626D01*
X128072451Y-63904626D01*
X128081495Y-63909234D01*
X128132292Y-63957208D01*
X128149087Y-64025029D01*
X128126550Y-64091164D01*
X128081499Y-64130202D01*
X128072182Y-64134949D01*
X127900213Y-64259890D01*
X127749894Y-64410209D01*
X127724818Y-64444724D01*
X127669487Y-64487389D01*
X127599874Y-64493368D01*
X127538079Y-64460762D01*
X127503722Y-64399923D01*
X127500500Y-64371838D01*
X127500500Y-63632933D01*
X127520185Y-63565894D01*
X127572989Y-63520139D01*
X127634231Y-63509315D01*
X127664729Y-63511715D01*
X128297037Y-62879408D01*
X128314075Y-62942993D01*
G37*
%TD.AperFunction*%
%TA.AperFunction,Conductor*%
G36*
X127683929Y-61501754D02*
G01*
X127687669Y-61503796D01*
X127822517Y-61554091D01*
X127882127Y-61560500D01*
X127892685Y-61560499D01*
X127959723Y-61580179D01*
X127980372Y-61596818D01*
X128650591Y-62267037D01*
X128587007Y-62284075D01*
X128472993Y-62349901D01*
X128379901Y-62442993D01*
X128314075Y-62557007D01*
X128297037Y-62620591D01*
X127664727Y-61988281D01*
X127634228Y-61990682D01*
X127565851Y-61976317D01*
X127516095Y-61927266D01*
X127500500Y-61867064D01*
X127500500Y-61610585D01*
X127520185Y-61543546D01*
X127572989Y-61497791D01*
X127642147Y-61487847D01*
X127683929Y-61501754D01*
G37*
%TD.AperFunction*%
%TA.AperFunction,Conductor*%
G36*
X169234923Y-61477596D02*
G01*
X169284330Y-61527000D01*
X169299500Y-61586431D01*
X169299500Y-61858639D01*
X169279815Y-61925678D01*
X169227011Y-61971433D01*
X169165771Y-61982257D01*
X169115269Y-61978282D01*
X168482962Y-62610590D01*
X168465925Y-62547007D01*
X168400099Y-62432993D01*
X168307007Y-62339901D01*
X168192993Y-62274075D01*
X168129409Y-62257037D01*
X168799627Y-61586818D01*
X168860950Y-61553333D01*
X168887307Y-61550499D01*
X168897872Y-61550499D01*
X168957483Y-61544091D01*
X169092331Y-61493796D01*
X169101186Y-61487166D01*
X169166649Y-61462747D01*
X169234923Y-61477596D01*
G37*
%TD.AperFunction*%
%TD*%
M02*
