M48
; DRILL file KiCad 10.0.4 date 2026-08-18T22:30:39
; FORMAT={-:-/ absolute / metric / decimal}
; #@! TF.CreationDate,2026-08-18T22:30:39+03:00
; #@! TF.GenerationSoftware,Kicad,Pcbnew,10.0.4
; #@! TF.FileFunction,Plated,1,4,PTH
FMAT,2
METRIC
; #@! TA.AperFunction,Plated,PTH,ViaDrill
T1C0.300
; #@! TA.AperFunction,Plated,PTH,ComponentDrill
T2C0.600
; #@! TA.AperFunction,Plated,PTH,ComponentDrill
T3C1.000
%
G90
G05
T1
X133.3Y-71.9
X135.2Y-74.0
X136.2Y-68.5
X137.3Y-76.2
X139.2Y-72.1
X140.5Y-67.2
X140.9Y-75.7
X142.6Y-70.7
X142.8Y-72.8
X143.7Y-70.0
X144.4Y-73.8
X145.2Y-69.9
X145.2Y-99.9
X145.7Y-85.7
X145.9Y-68.2
X146.6Y-90.797
X146.7Y-75.7
X147.6Y-69.0
X147.8Y-75.7
X148.0Y-83.005
X148.2Y-91.9
X148.3Y-64.8
X148.5Y-72.2
X148.6Y-83.568
X148.8Y-63.4
X148.894Y-67.965
X149.044Y-84.233
X149.2Y-75.6
X149.2Y-92.0
X149.576Y-67.547
X149.6Y-85.3
X149.6Y-95.7
X150.1Y-72.2
X150.2Y-84.1
X150.7Y-79.3
X150.8Y-83.3
X151.0Y-92.297
X151.2Y-80.2
X151.3Y-67.7
X151.6Y-82.2
X151.755Y-89.2
X151.967Y-80.633
X152.2Y-69.0
X152.9Y-85.6
X154.3Y-77.8
X154.8Y-60.3
X155.2Y-67.4
X155.5Y-76.5
X156.0Y-78.5
X156.5Y-90.597
X157.1Y-77.9
X159.087Y-77.492
X159.2Y-76.7
X160.5Y-67.4
X162.5Y-71.9
X163.4Y-101.7
X163.6Y-69.2
X163.8Y-64.5
T3
X128.78Y-60.21
X128.78Y-62.75
X128.78Y-65.29
X128.78Y-67.83
X128.78Y-70.37
X128.78Y-72.91
X128.78Y-75.45
X128.78Y-77.99
X128.78Y-80.53
X128.78Y-83.07
X128.78Y-85.61
X128.78Y-88.15
X128.78Y-90.69
X128.78Y-93.23
X128.78Y-95.77
X128.78Y-98.31
X128.78Y-100.85
X128.78Y-103.39
X128.78Y-105.93
X128.78Y-108.47
X156.81Y-108.4
X159.35Y-108.4
X161.89Y-108.4
X168.0Y-60.2
X168.0Y-62.74
X168.0Y-65.28
X168.0Y-67.82
X168.0Y-70.36
X168.0Y-72.9
X168.0Y-75.44
X168.0Y-77.98
X168.0Y-80.52
X168.0Y-83.06
X168.0Y-85.6
X168.0Y-88.14
X168.0Y-90.68
X168.0Y-93.22
X168.0Y-95.76
X168.0Y-98.3
X168.0Y-100.84
X168.0Y-103.38
X168.0Y-105.92
X168.0Y-108.46
T2
G00X144.27Y-62.0
M15
G01X144.27Y-61.2
M16
G05
G00X144.27Y-66.33
M15
G01X144.27Y-65.23
M16
G05
G00X152.91Y-62.0
M15
G01X152.91Y-61.2
M16
G05
G00X152.91Y-66.33
M15
G01X152.91Y-65.23
M16
G05
M30
